<?xml version='1.0' encoding='utf-8'?>
<svg xmlns="http://www.w3.org/2000/svg" enable-background="new 0 0 5000 3446.5596" version="1.1" viewBox="0 0 5e3 3446.6"> <path d="m4958.9 0h-3.8833c-5.9766 42.644-12.122 84.598-22.894 126.35-42.546 165.32-133.38 333.45-271.52 437.28-186.8 140.38-450.62 173.48-676.32 140.98-330.36-47.574-331.38-207.24-764.2-185.51 87.299 57.868 231.54 183.11 250.6 281.42 22.185 114.58-26.541 240.13-72.464 343.22 339.66 81.45 506.55 45.938 546.05 48.976-161.37 150.64-313.4 165.04-464.13 235.39 0.2234-114.06-13.568-147.27-63.718-221.13l218.14 30.698c-43.998 11.947-85.903 16.293-131.39 16.917 58.709 29.104 80.109 24.355 117.71 25.426-43.289 12.552-85.329 19.251-130.51 16.556l21.915 76.749c31.268-4.2174 62.232-7.9891 92.69-16.654 109.2-31.072 231.31-110.1 265.68-142.27-197.18-3.8707-116.18 1.3965-357.59-25.264-41.534-5.6862-87.389-10.441-127.64-21.52-129.95 263.16-321.09 300.43-490.86 519.46-238.39 307.54-167.55 639.35-171.6 656.09-73.351-256.64-30.8-542.88 174.2-748.1 205.18-205.42 522.56-328.71 549.21-768.62-153.38-34.915-456.25-22.69-654.1 101.66-65.224 40.993-115.6 93.238-155.73 158.95-11.876 19.447-24.876 41.054-32.649 62.496 52.997-54.894 195.68-225.07 391.97-228.27 180.54-2.9503 277.21 175.93 147.62 303.48-70.738 69.625-166.69 87.241-248.64 137.01-277.69 168.64-342.57 502.22-395.49 797.45-46.714-275.24-113.76-595.52-356.57-767.25-145.11-102.63-317.14-124.94-343.88-277.79-33.821-193.33 264.11-298.8 527.43-36.759 61.973 64.604 58.415 62.815 63.894 64.89-1.8894-15.055-23.46-44.318-32.342-58.153-53.456-83.28-116.66-141.92-206.01-184.57-213.02-101.69-493.82-106.67-602.87-68.264 5.9058 89.898 29.225 170.81 67.527 252.28 105.74 224.95 252.77 309.9 402.74 434.97 248.2 207.02 327.03 467.23 266.28 759.75-4.4712 21.527-7.7429 53.079-18.423 72.187 4.9128-62.905 16.154-122.33 13.804-186.23-8.6414-234.69-130.48-467.78-309.16-617.87-99.979-83.979-198.4-104.53-350.79-368.76-46.714 62.988-131.28 150.62-85.208 339.31l-219-101.37c-58.831 20.668-77.106 26.272-120.2 103.32-64.916 116.05-115.55 222.99-353.93 249.49 21.716 7.6519 44.454 12.399 66.791 17.89 69.23 17.019 134.15 26.183 205.3 16.188 156.2-21.935 285.01-103.34 379.25-228.21-20.891 68.669-62.773 115.06-121.33 154.85-264.63 179.78-425.51 76.139-606.77 67.625-101.87-4.7767-163.83 16.222-178.41 13.477 24.069-43.816 46.838-90.205 74.082-132.04 146.18-224.49 404.05-363.96 657.8-291.46 62.746 17.925 127.21 52.085 178.4 77.816l-10.38-69.918c-161.12-43.397-314.86-105.28-446.05-210.9 152.54 14.402 303.96 22.117 454.07-15.452 35.056-8.7725 72.129-18.862 104.65-34.743-60.929-113.44-81.62-262.07-72.586-309.7 3.6771-19.372 13.24-38.612 21.796-56.317 49.06-101.51 138.84-185.24 230.45-248.4-290.41-2.1348-431.08 65.19-562.56 120.74-79.122 36.881-102.26 55.965-252.71 71.438-223.75 23.012-470.71-17.6-648.75-163.21-158.18-129.38-253.53-347.93-273.58-548.1h-5.6495c-134.46 434.67 114.56 989.53 563.25 1127.8 190.47 58.686 344.64 50.13 361.98 56.965 13.568 5.3521 29.752 21.169 41.655 30.063 20.645 15.428 43.113 29.114 62.31 46.359-201.5 43.491-345.66 196.62-457.9 370.74l-157.52 296.49c269.27-111.15 423.75-29.556 600.51-2.1613 186.33 28.874 361.46-65.667 477.04-207.38 11.963 79.687 36.546 125.16 36.394 128.82-0.7106 17.858-66.385 81.891-0.8577 305.8 89.696 306.5 254.56 398.67 341.55 591.99 55.027 122.31 28.435 193.23 27.648 261.14-4.1483 360.74 447.03 521.63 564.42 399.63 41.544 34.307 90.854 42.918 143.7 38.022 215.82-20.028 449.58-197.21 422.15-484.64-10.284-107.79-14.768-155.35 52.781-270.61 84.584-144.32 236.08-275.95 312.4-495.48 64.861-186.38 13.073-351.57 15.87-367.86 2.2778-13.301 13.56-8.9364 44.472-100.08 16.85 23.529 33.666 46.474 54.297 66.859 76.888 75.868 175.99 113.4 281.08 131.02 71.418 11.974 140.91 1.9989 211.04-12.723 152.52-32.036 212.81-57.175 366.07-23.279 45.214 10.009 92.252 24.302 134.53 43.364-51.389-190.34-256.67-499.8-482.4-628.98-38.393-21.979-78.475-35.489-120.14-49.367 62.647-29.878 88.378-57.161 106.77-64.104 29.876-11.275 385.6 2.7751 643.87-222.41 278.74-243 381.98-683.17 275.47-965.95zm-3599.3 1533.3c-90.612 9.2478-130.26 61.086-151.44 151.45 14.135-13.018 22.796-31.475 36.445-45.505 42.624-43.809 100.61-51.724 157.71-62.986-13.098 9.7554-28.648 15.074-41.871 24.701-16.691 12.146-31.177 27.206-47.361 40.024-20.672 16.374-43.479 30.589-65.451 45.17 32.454-7.5503 61.101-17.849 89.966-34.655 3.1816-1.9882 66.087-41.823 70.04-42.796-6.8523 17.371-55.345 53.859-86.184 67.406-37.664 16.546-76.857 20.267-116.51 28.831-20.355 4.3962-40.601 11.305-60.602 17.147 49.445-38.187 40.03-54.636 65.812-114.19 29.09-67.183 91.546-106.51 164.82-96.743 30.043 4.0048 75.773 21.554 99.353 41.659-38.636-12.308-74.348-17.562-114.72-19.511zm-820.19-622.11c-237.69-98.101-429.72-296-477.6-550.81l-11.384-107.22c34.391 92.995 80.214 186.08 145.12 261.9 164.37 192 416.76 259.27 668.45 260.48-42.589 43.085-23.146 33.017-73.589 28.783-185.48-15.591-296.56-64.523-324.54-69.516 40.752 31.272 235.95 96.84 361.53 78.09-65.09 74.742-74.45 88.915-166.1 136.18-41.213-6.6526-83.355-21.969-121.89-37.874zm427.67 127.59c55.184-97.815 46.696-123.3 63.614-182.43-73.293 97.845-161.71 139.84-182.69 141.61 1.6612-4.7038 9.1608-11.596 12.659-15.685 37.916-44.378 40.856-55.685 63.097-118.22-15.572 12.478-50.995 77.711-197.78 95.278 66.95-48.329 88.74-98.542 130.43-137.62 36.808-34.512 108.24-66.867 133.24-71.616-19.654 26.208-52.817 54.04-63.337 85.41 64.655-58.627 76.828-60.133 155-97.1-15.75 22.246-37.086 48.838-45.812 74.716 31.602-22.33 36.616-52.937 181.18-134.12-36.894 49.835-82.416 138.86-87.015 169.03 70.019-128.5 134.91-164.32 234.87-228.41-19.437 22.49-66.926 89.721-73.44 112.22 27.573-16.541 21.245-38.482 131.35-101.05 14.02-7.9689 28.243-17.235 43.458-22.685-7.8616 16.538-51.179 49.666-82.652 131.24 12.105-14.287 23.286-29.806 36.745-42.857 56.508-54.794 162.65-108.84 179.85-111.22-19.382 19.146-37.59 36.29-53.237 58.883-45.552 65.772-64.735 158.69-65.076 237.87l8.4247 100.58c-37.91-70.327-48.614-159.72-35.749-237.99-55.037 93.43-67.098 199.07-52.241 304.83-89.026-184.02-39.244-280.5-40.244-301.63-10.419 14.978-16.688 33.899-23.326 51.441-59.873 158.2-34.857 263.29-35.432 271.27-47.757-81.507-55.081-178.12-44.488-270.11-58.987 91.334-62.831 160.2-155.23 273.83 16.823-70.472 11.633-141.3 24.447-212.24-37.89 72.68-85.515 138.82-160.61 176.78zm2114.7 515.34c104.43-60.102 224.38-63.129 305.54-198.95 9.0156-15.04 15.802-31.37 24.244-46.764 11.06 20.398-5.9519 151.49-116.06 209.6-60.676 32.008-132.19 40.794-189.47 79.954-87.856 60.058-145.49 147.25-164.91 252.36-14.388 77.904-18.626 187.1 28.412 255.16 27.74 40.139 70.398 68.122 118.68 76.199 67.051 11.214 123.42-17.592 176.58-54.942-14.8 21.672-42.097 42.388-61.547 60.264-71.707 60.967-141.1 64.645-197.23 34.716-182.26-97.178-193.17-512.85 75.756-667.6zm-247.33 587.36 1.5195-0.9321c-2.269 17.718-15.945 53.433-27.156 67.943 1.2732-14.655 14.297-57.813 25.636-67.011zm-30.755-75.662c5.8821 14.814-31.556 201-39.264 223.37 2.9612-75.577 24.136-149.81 39.264-223.37zm-194.29-166.79c30.043-144.67 108.86-273.33 212.7-377.24 17.351-17.361 58.408-59.942 81.912-67.818-20.847 23.915-42.446 32.008-87.041 91.853-114.29 153.37-175.26 394.85-166.8 565.02 7.1855 144.53 36.019 195.37 75.851 288.47-33.37-20.86-172.19-232.71-116.62-500.29zm-284.18 357.67c34.404-125.3 30.759-332.69-47.733-534.99-71.684-184.76-162.45-234.41-190.97-264.92 51.218 15.638 253.41 194.21 302.89 449.85 37.487 193.67-20.505 385.1-119.4 494.33 19.825-47.187 41.625-94.788 55.213-144.27zm-116.14-144.97c33.949 159.05 34.612 156.06 34.27 173-6.813-12.527-7.0762-17.042-32.849-135.49-6.2498-29.391-17.062-62.074-17.802-91.921 8.6005 16.654 12.024 36.259 16.381 54.406zm-13.71 99.336-1.8098-1.4656c-8.572-8.9578-30.428-67.096-33.203-99.451 6.8113 7.2427 33.794 88.463 35.013 100.92zm263.05 412.03c114.52 13.372 164.49-19.381 206.15-79.066 80.568-115.43 80.517-266.97 207.09-367.52-10.441 19.791-28.527 36.823-39.798 57.073-34.223 61.487-59.687 129.07-74.494 197.81-19.717 91.531-9.9697 119.33 26.089 209.66 8.0398 20.132 17.613 40.652 19.224 62.564 10.926 148.85-161.93 235.15-244.03 160.96-32.097-28.998-40.77-88.503-6.4124-124.99 41.93-44.522 133.85-28.738 134.02 10.178-10.937-3.7009-16.36-9.6238-28.84-10.333-65.444-3.717-94.26 56.732-61.01 86.764 19.109 17.262 46.615 16.31 70.425 14.372 32.018-8.1013 57.086-21.497 75.828-50.006 50.718-77.154 0.4907-135.68-25.197-268.14l-27.638 49.827c-24.927 39.656-67.875 74.017-113.91 84.215-23.232 5.146-48.834 3.218-72.555 3.2014-53.562-0.0344-127.9 9.3379-192.85-79.829-20.552-28.22-29.029-50.345-35.216-54.304-12.075 74.916-66.646 155.7-40.071 231.67 31.503 90.083 155.63 110.66 178.75 50.589 10.718-27.827-10.175-53.122-38.278-63.148-27.487-9.8096-44.92-2.4316-69.79 9.1572 6.3752-9.3091 12.764-20.061 22.03-26.77 33.237-24.073 99.788-19.32 128.12 24.103 24.805 38.02 13.699 95.43-31.002 123.31-69.33 43.247-166.59-1.9717-207.83-70.536-63.005-104.74 12.374-196.83 31.187-274.57 11.359-46.933-6.8308-93.987-21.533-138.2-26.069-78.394-58.218-153-100.75-223.92 155.69 144.18 134.38 432.79 332.28 455.88zm215.25 494.8c21.864 44.982 116.35 66.917 159.03-60.349-1.2717 34.367-2.345 66.944-27.203 100.53-61.706 83.352-221.76 72.481-232.56-42.277-8.3862-89.209 57.507-181.32 210.88-193.96 39.373-2.1545 72.63 8.5635 104.94 30.363-40.213-1.4551-75.331 0.01-112.94 16.536-71.034 31.205-125.4 101.31-102.15 149.16zm-343.48-32.12c-8.2568-64.369-107.53-148.2-227.53-132.28 50.795-34.78 105.11-44.852 188.14-15.83 116.73 40.799 153.94 136.69 129.03 202.8-36.665 97.345-193.73 101.72-243.27-16.701-7.4524-26.383-8.8237-49.851-8.7222-76.993 9.6338 34.003 18.896 63.746 47.19 87.345 46.842 39.062 123.01 12.906 115.17-48.344zm-731.49-1797c5.5952 26.102 9.9076 51.42 21.456 75.786 44.353 93.586 152.21 124.86 238.79 165 451.46 209.25 254.29 904.42-63.029 656.95-20.946-16.917-37.691-37.954-53.943-59.22 27.53 19.642 54.746 37.944 87.984 46.653 50.408 13.213 99.788 8.8704 144.95-18.265 103.34-62.091 104.73-226.17 66.15-341.32-104.5-311.87-336.79-221.18-431.25-379.2-28.034-46.899-24.042-95.811-11.1-146.38zm389.2 1146.9c3.4475-0.5642 9.303-2.4346 12.531-1.3843 18.366 5.9666 34.071 34.374 42.138 50.525 16.478 32.992 27.365 72.931-5.6154 88.963-46.592 14.203-97.224-106.58-49.054-138.1zm-428.59-1024.9c17.355 15.304 21.934 103.79 183.27 167.65 76.965 30.474 174.84 51.179 243.25 195.36 52.547 110.74 70.987 309.84-34.422 358.04-37.316 17.062-87.838 13.844-125.67-0.5503-43.567-16.581-92.713-65.435-98.904-79.228 9.1613 2.9546 18.153 11.433 26.892 16.252 72.362 39.865 171.31 32.906 234.93-33.332 25.782-26.836 22.722-25.769 22.202-54.176-2.2728-125.15-100.78-252.73-211.94-304.68-28.398-13.274-58.282-18.717-87.403-29.502-96.468-35.728-151.13-139.89-152.21-235.83zm186.75 437.48c26.798 28.898 76.973 33.114 108.82 1.8809 19.541-19.163 21.841-41.392 22.371-67.194 23.171 26.721 50.471 57.756 67.45 102.88-26.105 13.763-52.656 26.341-82.493 29.107-42.165 3.9099-85.982-8.8-118.29-36.576-52.15-44.833-63.067-107.09-68.048-171.72 40.767-1.4824 74.946 1.8335 113.64 14.895-11.792 3.9441-24.1 7.5709-33.673 15.867-33.008 28.603-39.827 78.45-9.7823 110.86zm-162.5-233.83c25.423 23.904 52.883 39.136 83 56.212-21.188 8.5764-22.989 9.8446-30.036 31.4-47.612 145.72 115.97 347.78 330.12 231.58 7.2634 22.25 12.342 43.131 15.476 66.332 0 22.14-58.302 70.449-138.41 61.287-121.32-13.87-264.31-187.76-268.19-351.47-0.7527-31.778 4.1234-63.85 8.0368-95.335zm1759.1 531.02c-71.43 267.96-304.24 384.36-351.63 608.75-35.309 167.15 66.444 304.99-77.877 473.92-112.93 132.18-306.64 161.99-382.34 117.99-8.7458-5.0852-20.544-16.603-30.306-18.784-11.748-2.627-35.976 19.936-47.882 24.788-135.75 55.304-431.45-60.242-447.23-311.46-5.744-91.402 23.995-154.89 1.8875-270.23-48.507-253.13-353.03-424.7-375.52-744.44 10.103 34.162 18.872 68.902 32.626 101.86 48.236 115.58 157.26 205.84 256.65 244.8 11.993 4.6978 23.208 6.5383 30.549 16.411 18.889 24.188-11.914 66.668 15.931 140.33 25.569 67.649 84.22 71.934 96.55 34.196 16.411-50.222-20.926-131.66-47.76-175.12-10.397-16.84-24.995-32.748-33.653-50.256 5.4062 1.2698 10.41 7.1047 14.331 10.846 88.148 84.015 114.74 223.16 62.773 252.05-11.346 6.3113-28.939 7.1047-41.338 3.6099-64.91-18.309-97.741-122.2-75.783-196.99-78.316-31.288-149.65-76.563-208.1-137.5 21.287 56.394 66.518 107.54 104.12 154.05 59.91 74.088 164.6 222.71 189.14 321.62 9.6301 38.836 10.899 74.753 10.461 114.41 64.977-125.8 167.48-289.82 84.347-547.53-10.691-33.132-26.578-63.452-38.515-95.808 18.887 18.489 31.593 42.81 43.215 66.599 70.655 144.63 68.215 293.37 10.245 446.09-46.072 121.38-128.54 229.37-81.062 376.05 65.956 203.76 319.1 266.99 421.52 164.65 8.1985-8.188 14.388-18.69 20.429-28.516 24.296 39.474 54.564 58.448 99.356 68.936 195.81 45.85 393.61-151.69 354.09-345.65-11.552-56.692-43.614-111.21-67.953-163.42-65.903-141.39-90.952-295.54-41.709-446.67 17.035-52.288 39.686-110.11 77.988-150.61-73.528 145.26-99.136 327.07-47.76 483.53 22.361 68.088 60.133 131.22 89.983 196.35-0.439-37.802-1.864-76.192 3.4375-113.71 22.107-156.39 143.56-272.56 232.35-395.49 18.335-25.386 49.351-62.04 57.826-92.384-71.171 62.547-121.16 89.604-167.04 115.19-17.391 8.9333-12.634 1.8679-14.986 18.96-9.4395 68.784-55.741 195.26-119.84 190.35-39.73-3.0381-45.57-46.384-41.054-85.978 11.189-98.179 101.49-174.2 122.55-180.8-9.2808 17.635-56.809 53.283-87.768 125.87-16.653 39.044-30.426 108.33 3.1064 119.88 6.5439 2.2556 17.055 1.8708 23.171-1.6477 43.529-25.038 67.348-104.29 77.239-150.64 2.4612-11.528 3.0627-33.753 8.5093-42.962 5.3081-8.9753 37.275-23.572 47.2-29.316 241.19-139.64 226.23-250.69 252.6-347.9 2.5324 43.465-5.9093 89.861-17.086 131.72zm-350.62 410.75c-9.1914 10.397-16.33 16.809-30.698 17.839-49.426-10.718-14.702-114.22 33.798-135.85 6.4158-0.635 9.1946-0.7361 14.321 3.6335 13.77 11.731 15.322 77.358-17.42 114.38zm430.85-832.45c-12.028 163.81-158.98 349.87-302 338.42-32.44-2.5969-67.142-20.686-87.983-45.596-22.367-26.74-18.464-59.521-15.519-91.968l42.249 23.873 36.084 12.133c54.304 12.592 113.66 3.3159 160.72-26.774 56.327-36.006 82.969-93.177 105.05-153.75 16.58-45.515 28.77-89.243 39.339-136.49l-66.082 85.407-37.819-32.43c49.334-25.639 82.662-52.626 114.74-98.255 13.54 38.498 14.148 85.036 11.211 125.43zm-310.1 85.221c8.3662 41.493 50.056 64.119 90.766 55.743 30.048-6.1818 61.375-43.039 51.731-85.971-5.6123-24.981-21.132-37.178-41.807-50.205l42.506-17.36c15.211-3.8459 50.106 27.404 67.528 40.595-19.956 47.618-37.448 96.884-82.571 126.96-85.956 57.296-180.22 9.6625-194.03-15.553-2.5935-4.7344 1.4019-10.593 3.2012-15.219 17.123-29.708 37.678-52.113 62.479-75.537-0.503 11.579-2.0933 25.204 0.1923 36.543zm261.98-227.97c-73.599 82.934-148.39 89.6-201.14 111.63-134.41 56.154-195.3 171.24-189.75 267.65 4.6704 81.138 78.773 139.37 163.54 133.07 72.306-5.3782 126.36-47.694 136.58-51.326-10.349 18.847-70.554 78.518-129.23 95.602-87.766 25.556-154.8-16.343-177.79-99.228-16.952-61.139-10.377-194.92 50.414-300.27 65.23-113.06 150.64-132.36 229.61-161.94 75.594-28.317 135.02-76.614 165.82-153.03l14.486-51.569c4.4914 79.005-8.7115 148.73-62.536 209.41zm628.57-188.22c140.3 56.729 244.98 162.45 329.33 285.77 30.255 44.218 58.451 88.959 79.352 138.47-181.26-34.991-241.27-4.4226-391.46 12.251-197.31 21.896-411.74-46.216-506.2-228.02-6.6855-12.855-14.52-25.909-17.289-40.267 37.988 48.567 74.827 94.626 122.3 134.58 168.98 142.15 391.18 116.56 595.75 96.148-31.539-5.3319-62.536-14.307-93.636-21.756-99.599-23.834-180.53-35.642-234.41-111.57-44.643-62.857-62.998-157.37-181.19-218.97 14.858-5.6324 30.762-13.267 46.532-15.425 24.683 14.898 45.383 36.293 63.685 58.407 61.131 73.752 53.259 95.158 79.218 137.93 49.938 82.146 198.96 111.5 294.62 120.16-32.855-18.535-62.942-40.75-94.278-61.628-14.554-9.6678-31.673-18.022-44.707-29.509l151.65 48.678c25.832 8.8402 54.804 23.407 81.514 27.179-4.1528-5.3655-12.696-10.295-18.268-14.33-53.371-38.833-70.64-63.113-137.53-144.91 122.95 78.035 99.84 67.653 113.09 73.021-3.1934-12.624-52.998-102.85-140.88-163.16-87.285-59.891-214.21-89.745-304.71-81.824-133.67 11.707-318.41 123-336.05 126.26 4.4912-13.666 8.3408-26.831 10.772-41.024 11.927-7.6226 17.688-8.9521 213.07-84.306 94.106-31.138 186.36-56.049 319.74-2.1341zm-284.15 273.58c-21.732-12.446-81.752-53.449-81.244-78.373 0.2979-15.958 13.317-19.533 29.276-17.492 44.119 5.6688 110.62 96.256 139.39 133.52-18.267-54.919-52.71-108.1-95.02-147.12-43.897-30.1-96.405-34.854-146.99-46.133 118.36-2.1128 196.92-24.569 270.68 219.76-8.6443 2.8601-103.77-31.552-118.35-38.025-73.673-32.701-119.38-85.238-128.52-109.05 18.935 11.876 65.935 80.234 177.24 107.35-14.959-9.1886-31.234-15.719-46.463-24.428zm170.46-199.53c5.6389-0.0271 11.38 1.3165 16.816 2.6913 87.086 21.989 156.88 61.858 204.02 140.52-187.21-28.896-208.34-28.477-243.16-90.716 47.372 13.766 32.747 23.258 149.49 41.716-70.879-69.93-102.9-76.836-127.17-94.207zm148.71-626.66c11.562 32.56 84.258 128.76 117.37 166.21-15.702-2.6169-34.949-12.443-48.726-20.112-58.822-32.73-102.92-82.841-143.07-136.03 0.1353 13.311 5.6389 29.158 8.7122 42.161 11.312 47.72 23.333 92.512 47.949 135.23l-1.8232-0.1758c-7.7664-2.3973-19.247-11.285-25.9-16.36-63.009-48.108-99.916-138.15-137.36-206.19-2.2285 15.114 5.0315 40.476 7.5977 55.81 10.805 65.039 19.956 130.83 41.398 193.38-81.413-69.763-122.24-166.07-168.6-260.22 0.6074 19.835 9.1506 41.921 12.291 61.928 9.7588 62.476 2.8022 142.38-35.456 194.41 7.2937-106.54-29.445-205.57-70.067-302.46 6.9651 127.41 18.158 201.41-45.012 284.29l5.5037-23.472c12.371-59.618-1.3555-170.96-77.192-287.16 1.1917 12.851 36.624 157.06-13.945 257.18 7.2449-104.06-7.885-266.13-65.947-346.46-17.086-23.658-39.069-42.091-62.064-59.714 87.592 25.356 168.7 93.643 222.59 165.06-11.717-52.886-45.518-103.4-77.901-145.85 94.704 61.286 123.88 94.834 193.72 163.18-16.107-45.363-39.71-87.612-65.643-127.98 74.794 49.165 132.44 115.41 195.55 177.62-10.873-38.67-36.907-72.609-51.258-109.97 22.572 12.109 169.37 129.58 176.94 131.15-4.5862-20.229-42.935-68.148-62.469-89.831 59.141 22.03 113.05 61.413 168.67 87.204-4.2764-13.224-67.051-71.937-77.394-81.267 159.37 66.256 176.26 164.85 285.33 232.65-98.6-2.6577-184.2-71.529-253.79-134.21zm898.74-495.84c-44.878 308.87-301.41 536.88-603.15 601.47-68.75-18.444-115.89-77.742-157.56-130.94 206.37-7.8443 330.08-63.718 351.25-87.568-14.722 1.7964-31.572 10.839-45.788 15.715-98.929 29.404-34.874 14.214-308.97 68.919l-32.923-42.236c109.74-3.1265 218.57-11.032 323.89-44.474 386.76-122.85 444.11-395.87 482.4-468.44l-9.151 87.546z"/> <path d="m1560.4 806.37c33.328-8.8604 66.69-17.977 100.94-22.506 149.35-19.743 304.21 7.6655 442.35 65.843l64.293 30.414c14.777 7.881 39.146 26.243 54.841 29.127-14.172-21.256-43.077-41.604-62.368-58.822-88.871-79.306-193.23-150.56-305.01-193.21-29.637-11.306-60.507-18.66-90.712-28.182 263.91-82.244 543.49-46.25 734.3 147.12 15.126-19.852 71.997-70.756 138.68-107.15 147.8-80.67 325.7-98.823 489.62-66.47 29.006 5.7269 57.786 14.813 86.147 23.144-142.54 46.018-269.79 128.65-380.43 228.52-17.764 16.034-41.659 33.39-55.136 52.674 25.603-7.5649 177.84-124.14 448.89-126.89 146.13-1.4825 205.11 23.374 218.04 21.847-32.619-98.218-117.37-173.94-199.32-232.41-519.43-370.61-1442.6-267.45-1685.1 236.96zm1172.5-368.38c-123.59 31.782-171.76 67.154-232.7 107.88-77.364-50.732-151.63-88.98-242.52-108.35 255.24-20.471 228.56-20.685 475.22 0.4663zm-616.16 51.998c107.34-7.7227 232.5 24.636 325.41 78.235 20.406 11.771 39.268 26.696 58.039 40.861 101.17-96.966 337.9-161.94 557.24-90.425-43.939 0.2012-79.124-13.009-193.02 6.3077-142.97 27.701-242.74 86.893-345.46 163.61-22.785 18.384-12.138 21.567-41.473-0.807-147.3-112.31-316.84-180.92-503.99-178.44 42.429-15.236 98.519-16.748 143.25-19.342z"/> <path d="m671.94 869.46-80.231-29.516c-332.05-140.71-443.36-360.67-458.02-367.51 131.87 292.88 524.06 427.15 600.67 417.97-18-12.29-41.086-14.194-62.415-20.946z"/> <path d="m4818.4 537.25c-153.11 189.82-347.99 274.96-550.91 353.46 42.243 0.71 415.35-105.36 569.48-359.85 8.3735-13.855 19.551-30.549 22.489-46.561-14.79 11.838-28.6 37.549-41.061 52.956z"/> <path d="m3011.6 676.27c66.942-30.967 115.72-37.466 138.8-46.713-210.12-26.627-389.55-0.1409-558.88 130.51-32.41 25.004-64.367 51.829-92.13 81.946-40.231-38.262-80.687-74.007-126.93-104.87-137.32-91.652-299.92-132.02-422.76-120.95 198.8 43.273 413.34 143.42 527.11 320.02l21.263 35.911c30.161-43.532 57.752-85.397 94.726-123.91 102.45-106.73 262.28-188.67 407.73-215.18l58.62-7.9589c-20.418 12.457-53.909 16.583-77.289 23.981-170.49 53.967-356.16 199-484.01 442.61-109.73-202.84-267.56-379.24-494.87-446.9-54.47-16.212-102.76-21.29-159.45-17.934l96.5 30.714c122.1 49.08 226.46 121.89 316.21 218.31 25.856 27.776 49.188 58.464 72.883 88.095 101.55 127.02 136.81 204.08 168.55 291.39 78.513-212.75 289.05-474.99 513.94-579.06z"/> <path d="m2304.4 1106.3c-90.962-80.552-198.71-148.71-320.46-135.37-175.55 28.298-159.81 192.35-35.834 274.17 85.932 56.706 327.72 104.92 493.63 417.01 22.006 41.388 39.055 85.09 56.239 128.63 14.317-36.682 28.168-73.501 45.933-108.7 85.256-168.93 215.41-300.83 387.39-380.51 73.176-32.471 170.96-68.335 202.39-149.93 50.073-130.01-84.392-245.66-301.5-140.83-110.25 53.242-268.21 194.09-333.39 360.57-40.173-106.96-109.63-189.97-194.41-265.04zm194.6 451.18c28.331-120.71 87.345-255.15 170.8-347.85 82.858-92.039 214.07-170.98 339.71-177.73-24.458 8.8036-210.81 39.583-359.85 264.09-9.3364 14.065-22.842 30.527-26.446 46.386 22.414-18.38 39.414-46.25 60.068-67.305 64.245-65.488 159.09-118.87 249.01-136.82-96.901 40.737-174.34 92.806-242.55 174.26-13.169 15.727-33.239 36.831-38.565 55.081 19.781-11.298 38.306-34.888 56.82-49.523 59.092-46.707 136.98-86.502 210.89-102.23-35.415 15.86-70.097 32.069-102.9 52.977-134.39 85.65-251.29 226.59-318.02 371.22-31.873-70.351-77.705-136.68-126.3-196.35-129.79-159.37-210.12-189.85-274.92-224.89 25.159 1.2072 123.87 40.194 195.97 100.54 17.265 14.452 35.362 37.582 54.244 48.24-8.8511-19.853-26.704-38.892-41.142-55.861-66.997-78.738-142.05-133.31-239.78-167.66l5.666-1.1276c17.242-1.0804 41.314 8.5598 58.116 14.078 147.22 48.373 226.79 171.36 250.21 192.81-5.7253-22.858-59.187-90.444-73.676-108.69-108.89-137.1-193.07-173.2-311.99-206.7 15.479-1.9889 30.667 1.7899 45.815 4.6394 184.43 34.711 384.34 202.3 458.83 518.4z"/> <path d="m1557.9 1217.7c17.81-23.337 41.831-41.472 41.139-56.28-25.538-15.97-182.52 80.96-501.08 41.02 118.61 79.885 254.08 138.28 390.02 170.19 0.5066-36.249 8.9076-63.33 21.111-97.05-24.117 16.297-48.779 25.582-100.53 14.638 31.282-9.7788 54.183-22.837 78.718-44.211-40.379 5.5852-85.786 17.302-126.32 15.003 53.271-18.558 104.91-44.91 162.31-46.396l5.4364 6.3313c2.1547 19.69-4.8455 34.875-11.781 52.785 11.641-8.5574 28.258-39.364 40.979-56.033z"/> <path d="m1116.3 1527.5c65.396-30.092 88.047-84.291 167.3-119.74-202.63-46.272-390.19 22.425-527.13 207.57-7.371 9.9613-19.69 23.883-22.357 36.094 14.947-3.6213 68.909-59.706 108.44-75.706-3.35 10.88-12.24 23.067-18.147 32.933-23.6 39.434-49.404 72.137-80.396 105.96 27.005-1.4324 45.894-43.395 205.54-55.246-8.5343 6.0701 1.7591-0.8037-130.04 62.905 69.763 2.0803 127.84 0.0708 191.46-32.156 59.46-30.121 102.94-75.743 138.03-131.74 11.552-18.427 23.502-37.634 30.323-58.38-48.043 54.677-86.552 93.005-229.58 104.91-20.193 1.679-56.402 7.3104-67.821 5.2882 43.823-59.258 98.971-119.75 175.7-132.03 16.647-2.6642 34.945-2.4788 51.762-1.7964-46.862 22.381-89.287 54.054-130.77 85.039 44.698-8.3066 96.297-14.861 137.7-33.912z"/> </svg>