<?xml version='1.0' encoding='utf-8'?>
<svg xmlns="http://www.w3.org/2000/svg" enable-background="new 0 0 5000 3883.9717" version="1.1" viewBox="0 0 5e3 3884"> <path d="m1041.5 709.38c1.5977-23.743 11.68-48.316 19.817-70.54 133.97-365.94 541.14-423.49 643.81-638.84 36.878 152.92 146.21 337.93 124.41 588.88-10.658 122.61-30.116 174.35-48.472 236.97-11.038 37.628-48.049 115.33 70.612 187.88 90.552 55.354 186.86 29.974 232-21.93 10.365-11.913 18.224-27.25 26.611-40.698-29.966 128.35-101.6 146.93-241.47 172.65-34.486 6.3458-68.306 13.24-103.33 16.234 62.744 29.652 160.45 98.474 270.46 60.021 43.965-15.358 54.786-32.322 70.052-38.615-5.0903 14.344-22.292 29.341-33.315 40.005-91.439 88.497-206.66 97.074-326.74 95.25 61.77 33.025 114.5 68.063 220.24 59.806-124.07 68.533-224.13 74.179-375.22 69.13 64.652 31.89 126.61 40.893 197.29 49.647-18.647 11.196-58.262 15.534-79.642 17.996-123.1 14.171-140.01-26.472-233.16-100.37 100.69 6.0483 206.94 2.4506 305.55-19.495-59.276-25.725-110.77-93.828-186.81-134.91 39.065 3.8978 162.21 9.035 198.54 3.6171 19.293-2.8772 49.491-14.786 61.257-30.966-74.751-30.363-144.19-73.691-220.72-98.91 63.974-1.0043 189.37-23.525 218.04-42.69-123.74-53.744-124.43-72.928-205.41-118.84 0.5677-2.9087 54.346-52.794 61.723-62.577 122.88-162.93 89.466-476.16-4.3192-648.67l-86.4 7.5116c-200.25 34.435-365.78 178.46-486.34 334.34-99.359 137.79-72.9 106.04-89.059 128.11z"/> <path d="m347.28 209.51c13.442 288.76 44.122 395.62 68.415 504.53-65.408-126.9-118.9-437.69-124.1-607.39 25.401 18.414 52.322 37.122 81.004 49.954 123.93 55.442 330.45 38.702 517.56 180.83 27.159 20.635 51.131 45.18 74.716 69.694-48.277-1.1666-94.286 7.7551-140.97 19.268-5.7756 1.4211-51.625 15.96-53.512 15.334-2.9133-0.9707-100.75-179.79-423.12-232.22z"/> <path d="m482.79 503.03c-24.211-19.777-50.332-30.281-79.031-41.395 113.88-2.2792 162.6 27.067 195.01 44.526-49.548-66.452-81.849-91.858-169.22-122.62 123.9 9.7288 139.59 24.99 243.68 86.907-74.171-139.37-191.67-172.22-289.75-212.44 14.664 0.1472 29.701 2.3171 44.157 4.6327 125.96 20.174 235.31 87.205 310.34 190.04-77.574 29.09-158.98 78.33-220.35 134.44-19.285 17.624-36.259 38.372-53.449 58.009-25.572-80.431-34.642-85.05-71.078-105.01 44.318-4.1692 87.371 2.3958 129.14 17.107-10.768-21.425-22.836-36.975-39.439-54.196z"/> <path d="m1430.6 646.63 2.4003-2.3019c56.356-11.079 76.933-56.111 247.01-57.277-19.108 10.59-105.6 27.621-200.88 139.99 76.944-19.08 147.22-25.79 225.9-12.179-145.71 42.387-203.63 122.24-236.34 153.53 36.567-79.696 65.109-100.42 110.69-131.67-53.582 4.9091-104.68 14.218-155.43 32.758 26.975-52.861 57.118-88.281 103.28-124.88-9.2841-0.5795-20.82 3.9069-30.029 6.2753-48.915 12.562-87.555 34.246-130.38 59.786 19.986-51.561 42.936-95.661 80.934-136.6-44.643 25.939-88.91 55.057-124.95 92.341 15.303-51.119 32.743-105.99 62.835-150.56-109.97 86.722-131.17 146.71-151.15 162.29 2.6984-19.05 53.095-104.81 91.232-150.26 61.993-73.879 149.38-146.36 241.75-178.36 36.522-12.652 73.772-17.973 112.04-21.23-165.79 53.97-214.41 112.94-283.47 239.54 68.846-56.22 148.79-80.241 236.5-83.368-68.646 29.443-125.11 67.984-173.86 125.2-12.462 14.621-19.152 20.02-25.675 34.673l-2.4002 2.3019z"/> <path d="m1385.8 943.91 2.882-2.1218c30.901-1.4845 87.245-16.377 181.13-6.3615-27.445 22.568-51.214 42.639-85.155 55.315 84.532 5.9968 185.75 7.295 320.59 68.794-108.2 9.8684-202.88-15.204-352.14 37.452 22.143 3.2454 44.725 3.5663 66.618 8.2913 79.739 17.217 153.42 66.692 223.48 106.67-127.22-18.372-251.08-51.221-450.23 36.274 34.497-5.6177 68.811-12.249 103.82-13.588 82.363-3.1436 164.04 20.56 230.85 68.684l68.059 54.889c-72.593-11.596-141.09-7.4144-214-9.2897-101.55-2.6016-193.49-45.088-433.23 48.93-52.991 18.56-49.186 15.114-54.362 18.818 97.75-3.0645 226.53-59.533 359.5-24.487 81.415 21.452 157.93 84.12 241.54 143.99l0.0979 1.4955c-129.42 17.542-286.76 49.036-406.72-18.885 29.728 1.9574 95.911 11.964 119.2-7.8921-2.0127-10.625-8.7085-15.679-17.378-21.676-75.655-52.317-183.45-67.326-274.13-65.889-15.427 0.2445-137.04 15.238-244.23 0.916 151.12-25.413 212.78-29.922 334.58-120.5 91.032-67.695 137.94-122 271.75-246.97-211.88-9.0563-231.21-8.6387-260.17-17.111 53.612-8.0154 104.14-52.615 136.71-94.138l-256.33 50.23c50.935-27.924 96.22-63.399 128.7-112.11-25.006 6.7608-51.429 12.958-75.538 22.416-81.216 31.862-159.08 82.002-243.15 105.95 86.145-53.323 138.76-125.74 182.83-215.31-62.918 36.313-109.79 85.142-163.79 132.9-104.75 90.638-136.44 113.09-226.87 216.22 79.553-175.95 105.85-181.56 173.72-267.49 64.108-81.176 117.89-188.82 110.31-294.27-25.35 73.66-48.562 143.91-92.317 209.33-73.151 109.37-196.58 183.56-233.78 366.82-39.396-266.29-77.138-347.81 65.232-527.86-72.989 46.398-111.48 104.36-130.17 188.91-30.83 139.53 6.8253 239.06 9.9263 274.24l-0.6578-0.5521c-10.901-11.717-18.584-29.435-26.039-43.528-35.461-67.028-53.567-127.42-57.298-203.19-60.013 84.017-82.349 140.89-101.06 161.53 1.5543-25.123 54.386-265.85 245.04-413.66 133.03-103.13 302.23-158.49 406.31-165.32 57.432-3.7699 113.57 2.5994 170.36 9.9043-70.996 98.624-90.622 128.89-149.99 269.74-3.3284 7.8921-17.002 31.048-16.438 38.494 161.82-42.231 200.93-52.321 206.47-54.09-37.626 42.753-76.062 82.801-99.541 135.42 106.69-36.511 175.85-32.677 289.77-19.092-60.533 8.0253-129.73 34.532-178.11 71.28 84.348-1.3506 170.46 8.1152 252.35 29.368-21.365 8.9568-40.868 14.712-56.136 30.018l-2.882 2.1218z"/> <path d="m1234.5 678.14-2.9015 5.1479 2.9015-5.1479z"/> <path d="m1231.6 683.29-1.9187 2.7795 1.9187-2.7795z"/> <path d="m1041.5 709.38-2.1459 2.897 2.1459-2.897z"/> <path d="m4183.1 798.19c-4.5615 5.0292-154.28 139.04-195.31 224.55 44.795-41.183 91.471-83.944 141.08-119.2 294.31-209.22 632.19-191.98 767.79-94.956-220.34-67.222-584.7 1.4235-783.53 348.8-15.564 27.156-44.289 79.685-49.338 110.47l-2.3103 2.6151 2.3103-2.6151c31.309-23.64 55.851-52.086 85.989-75.93 236.76-187.13 482.5-140.52 510.06-146.87-119.01-34.72-278.56-43.235-391.41 9.3876-13.351 6.2051-10.295 3.7494-14.801-2.8734 1.9814-12.354-3.4937-6.2421 25.374-34.673 127.16-125.13 247.69-187.38 455.04-207.31-76.317 26.268-147.78 47.529-207.3 105.54 55.759 6.8939 109.29 15.424 162.46 34.548 240 86.311 402.85 374.84 253.35 659.18-4.7378 9.0784-10.181 22.804-17.621 29.744l18.756-72.309c16.172-87.197 14.958-183.25-37.395-258.75 42.557 229.58-86.741 428.19-243.16 490.15-38.491 15.244-77.922 21.598-118.65 27.446 74.516-29.345 140.18-65.4 186.47-133.27 95.706-140.33 60.385-312.76-65.549-396.13-158.79-105.15-434.3-68.048-592.91 117.43-33.401 39.042-59.754 81.286-87.908 124-16.094-89.992-31.795-176.63-31.404-268.4 0.1304-25.924-0.5881-49.01 3.0935-74.141-51.198 105.64-62.404 232.7-41.193 343.66 10.377 54.337 29.133 106.56 48.516 158.23l35.985-81.392c104.86-210.95 270.51-367.03 503.21-358.3-53.803 13-150.99 23.042-240.66 95.563-128.28 103.73-120.33 245.86-130 273.68-10.473 30.099-76.56 127.93-91.862 270.2-89.749-81.396-168.04-121.2-217.2-241.21-59.804-145.94-49.632-330.69 10.964-475.22 56.19-134 158.51-233.62 269.36-323.74 23.69-19.245 51.648-46.457 79.724-57.915z"/> <path d="m4186 795.68 2.6626-1.9965-2.6626 1.9965z"/> <path d="m4186 795.68-2.8584 2.5132 2.8584-2.5132z"/> <path d="m318.61 1009.7-2.181 2.6778 2.181-2.6778z"/> <path d="m7.8592 1586.3c13.106-25.91 94.549-110.9 207.36-147.77 36.327-11.873 73.833-22.224 112.31-21.707l18.556-38.948c-32.062-14.626-45.348-29.599-57.741-62.405-21.055-55.746-2.7606-143.14 22.085-196.94 10.404-22.533 21.137-34.391 41.8-47.783-29.058-12.475-42.556-10.73-69.833-6.5101 11.144-12.022 21.188-21.966 35.347-30.351 15.158-0.5676 31.036-2.5485 45.015 4.2358 38.632 18.759 64.315 51.193 78.839 91.585 13.803 38.396 30.249 86.488 11.175 125.57-52.408 107.41-140.97 143.6-87.465 248.63-26.901 5.6569-52.345 12.535-77.077 24.988-54.051 27.208-101.7 78.69-134.65 129-23.406 35.738-38.09 73.883-56.376 112.08 35.678-180.28 125.74-260.48 238.73-287.58l-10.94-41.179c-195.54 28.272-298.39 136.54-317.14 145.09zm437.47-330c2.0284-10.648 2.5413-23.751-0.6656-34.105-14.042 17.503-12.46 44.918-31.549 60.914-22.357 18.724-48.571 4.2385-63.458-16.814-27.829-39.378-26.145-85.533-18.349-130.87l2.7253-5.5786-2.7253 5.5786c-11.846 12.853-28.126 78.418-1.3078 129.77 16.884 32.332 42.051 44.217 75.181 54.45 17.421-11.733 32.896-44.006 40.148-63.352zm-47.916-138.21c-8.6616 3.5702-14.805 6.7098-18.74 15.659-3.5829 8.1544-3.9901 17.64-0.0587 25.732 3.7904 7.7982 9.7422 12.069 16.763 16.759 5.3919 0.4032 10.345 0.9944 15.659-0.3602 8.5676-4.361 14.374-7.3323 19.246-16.031-2.7841-17.996-10.67-29.952-23.651-42.314l-9.2176 0.5559zm-96.722 114.83c-8.4031 20.787-5.948 49.338 2.4708 69.862 12.84 31.295 33.326 44.323 60.952 61.849 17.405-19.674 11.144-12.776 27.465-30.355-80.271-34.954-75.315-74.328-90.887-101.36z"/> <path d="m905.38 1358c-160.76 22.836-161.8-80.242-285.17-32.019 79.297-132.1 143.35-261.36 298.09-270.71 29.423 1.4249 55.803 5.1948 83.69 14.896 65.918 22.931 132.74 73.705 204.73 68.856-46.451 22.459-64.778 37.672-141.34 23.911-3.9274 38.607-6.6371 70.05-25.425 104.79-30.112 55.683-76.889 73.198-134.57 90.278zm14.79-240.73c-13.29 3.3197-25.969 6.0718-33.358 18.932-8.1814 14.238-0.1235 53.931 47.137 50.387 13.055-5.4609 25.8-10.437 31.157-24.862 3.9117-10.527 4.3268-23.845 1.2021-34.528-12.388-12.039-27.012-10.342-46.139-9.9278zm80.107 24.283c-0.7165 56.235-7.1579 107.46-49.906 148.65-67.7 65.227-208.4 37.739-193.37-111.38-21.609 29.032-56.03 71.999-59.816 90.317 43.737 18.423 146.01 96.607 247.1 56.098 85.673-34.323 92.146-158.64 55.991-183.68z"/> <path d="m505.82 1098.4-2.1537-2.8773 2.1537 2.8773z"/> <path d="m2108.7 1158.6 2.2476-2.6228-2.2476 2.6228z"/> <path d="m2108.7 1158.6-2.6785 2.795 2.6785-2.795z"/> <path d="m1615.3 1813.6c-2.7448-9.0548-13.039-19.91-19.281-26.965-37.125-41.946-82.57-68.289-130.85-95.121 84.627 6.3599 146.93-15.277 204.95-66.441-13.92-3.7463-28.412-9.3523-42.904-9.8103-20.73-0.6538-40.206 5.8524-60.376 9.2819-20.413 3.474-70.734 4.448-85.723-1.2528-8.2581-3.1434-18.161-7.7823-21.994-15.804 14.124-25.591 75.726-21.116 100.73-17.73 13.419 1.8164 38.542 8.726 50.211 2.1061 10.208-5.7899 17.836-19.985 20.452-31.13 4.4601-18.994-0.1331-33.31-9.9341-49.455 28.299 12.75 47.858 56.936 65.89 81.846 69.818 96.473 99.098 126.96 209.93 197.7-102.9 15.942-161.07-24.756-189.46-29.118l-2.7292-2.2041 2.7292 2.2041c38.337 45.074 232.41 94.621 288.79 111.64-86.502 23.672-178.05 9.3601-261.45-19.734 82.945 106.08 96.979 148.02 193.3 216.46-113.48-11.745-185.19-20.672-261.72-113.59l-43.034-59.825c74.83 229.76 58.604 293.1 41.651 478.05-63.212-103.41-59.272-175.53-169.63-286.83 30.954 85.111 35.046 185.05 27.7 274.48-18.289 158.01-19.62 143.18-15.017 231.54-23.795-37.245-42.64-104.21-126.66-186.21-34.733 140.12-10.846 218.44 53.665 321.63-14.743-69.084-22.472-140.48-22.574-211.14 27.091 40.871 59.892 149.68 167.11 226.58-54.276-131.43-28.444-278.74 4.7379-412.67 16.114 71.707 78.222 141.51 137.84 182.31-29.113 24.236-47.662 58.087-51.186 96.142-3.4928 37.754-0.5796 80.84 24.598 111.33 58.952 71.384 180.08 49.036 183.98-48.249 1.7797-44.49-27.405-70.631-53.488-70.29-8.7281 0.1135-13.49 5.7666-18.928 11.85-8.1487 22.674 21.861 52.548-12.389 67.909-22.332 10.018-41.858-1.2866-47.877-15.714-8.0703-19.362-4.0332-49.854 4.5344-68.594 43.498-95.12 183.11-42.111 217.67 55.163 26.042 73.287-26.644 188.11-104.86 214.75-54.953 18.716-111.38-16.011-127.91-18.654l-2.8741-2.2981 2.8741 2.2981 0.4739 0.7085c24.097 26.307 72.699 46.773 106.88 52.246 37.963 6.0757 72.613-3.8992 103.2-26.319 45.023-32.997 86.345-97.234 93.746-152.59 25.733-192.57-194.34-296.81-293.91-216.56-5.9479-9.6616-10.208-19.648-13.956-30.335-30.844-87.968-25.515-177.14-15.992-268.27 1.2961-12.402 0.2075-36.497 5.0082-46.609 17.225 31.612 36.33 64.441 60.028 91.589 51.833 59.368 123.52 101.66 204.39 106.57 21.147 80.513 23.478 77.343 130.85 314.72 24.921 55.17 62.53 126.45 62.839 168.47 0.5598 75.817-27.03 151.65-42.889 225.16-19.814 91.832-32.03 182.88-62.299 272.32-20.894 61.739-53.692 118.7-73.048 181.23-28.44 91.852-29.622 220.82-101.16 291.74-32.25 31.968-71.598 42.878-114.86 51.726-64.613 13.193-132.64 19.143-198.57 18.047-138.18-2.3555-201.19-83.729-198.39-150.44 2.2853-54.188 51.32-105.44 101.64-126.64 33.714-14.206 64.687-20.094 92.567-45.869 20.632-19.077 30.734-43.748 40.602-69.479 29-75.633 38.213-156.42 41.573-236.85 3.2853-78.647 6.0067-162.97-7.4124-240.6-11.939-69.074-61.55-212.02-109.4-260.69l-2.0479-2.6895 2.0479 2.6895c-1.426 30.558 47.553 152.05 64.17 188.23-15.53-9.0667-30.891-29.149-44.901-41.641-48.77-43.477-99.404-84.253-145.82-130.34 23.303 68.418 27.367 72.286 80.393 130.45-110.25-38.47-193.22-132.09-277.62-209.21l-0.0822 2.3606c1.1864 8.2249 7.2126 19.421 10.612 27.438 24.438 57.629 59.734 95.825 103.23 139.06-38.303-13.306-70.839-33.683-103.93-56.615-180.12-124.84-243.12-274.19-256.35-294.24 4.9142 63.435 18.991 121.12 47.2 178.36-106.79-106.5-151.96-280.24-165.64-426.03-50.091 77.565-71.368 194.84-61.465 253.04-58.589-145.99-51.691-321.34 49.851-452.38-73.61 33.616-134.64 99.406-145.55 185.92-16.395-118.47 31.122-222.48 109.78-308.23 33.06-36.036 90.745-77.869 53.86-148.51-25.483-48.786-68.329-75.813-123.52-75.48-16.544 0.1017-32.876 4.1495-49.741 4.181-205.82 0.3851-260.32-136.43-262.96-137.42-10.868-4.0295-38.701 7.9739-54.749-28.041-4.8437-10.867-9.8832-29.086-5.2196-40.467 17.178 35.862 29.9 51.247 86.795 19.175-3.4458-17.209-0.1605-38.318-4.554-54.333-3.6056-13.151-34.104-32.576-49.796-90.317 9.8049-3.4802 23.749-2.5994 34.18-2.8773 106.6 1.658 115.56-0.4153 126.5 11.537-2.2643 39.515-78.166 73.455-82.046 84.061-3.4654 9.4893-0.8536 28.718 4.3973 37.178 4.6049 7.4186 13.055 12.335 20.217 16.963 80.208 51.786 171.33 55.213 182.1 12.331-3.6142-7.1639-12.233-9.1448-18.838-13.052l3.6181-3.9148c15.777-4.2085 28.936-3.2968 37.892 10.441 0.5756 10.773 1.1003 19.08-4.8007 28.707-10.161 16.575-28.976 27.372-47.678 31.69-61.437 14.183-125.64-14.054-176.63-46.202-13.634 9.3895-15.097 11.85-31.604 18.137 17.247 38.108 116.49 114.77 240.45 112.61 57.968-1.006 114.7-20.834 167.75 12.938 33.604 21.394 57.588 59.121 65.768 97.939 17.358 82.398-53.99 120.72-92.724 179.33 49.013-12.765 92.65-23.25 123.84-79.113-16.485 107.32-90.823 191.29-115.32 241.49 47.458-27.712 73.31-67.056 100.34-113.02-10.066 59.402-48.015 130.07-20.698 305.04 21.013-112.77 57.701-188.91 78.33-215.1-51.694 181.33-7.1014 271.3 87.058 409.13 5.9675 8.7339 13.979 24.702 22.727 30.038l2.1927 2.9048-2.1927-2.9048c-0.84-19.775-34.676-127.89-31.306-210.07 33.111 129.88 88.344 217.35 100.07 225.21l1.5116 0.7751 2.1458 2.6462-2.1458-2.6462c0.6167-16.774-13.021-114.34-1.2335-242.66 7.8635 34.24 10.871 101.77 50.595 180.32 20.021-108.93 21.421-78.405 39.145-144.76 21.791-81.587 13.924-160.58-14.95-239 33.761 23.96 80.152 107.01 76.125 220.09 26.118-39.821 41.565-89.28 47.078-136.46 12.331-105.53-39.635-200.83-102.41-281.07 77.948 66.411 104.8 89.056 170.69 214.18l0.7987-33.15c-2.3024-104.16-59.264-187.72-132.15-256.55 140.19 68.988 164.63 85.775 282.94 216.86-14.516-46.996-32.904-91.01-54.675-135.06-33.708-68.199-63.327-118.69-193.83-195.91 55.074 13.69 111.43 22.85 165.86 38.842 34.278 10.072 71.817 28.683 104.51 37.476l2.4434 2.3568-2.4434-2.3568zm99.326 1527.4c9.5773 32.949 19.115 59.902 54.346 78.009 33.734 17.338 73.713 13.181 108.67 1.5071 60.764-20.294 103.52-69.866 137.74-121.52 9.566-14.434 20.221-28.946 27.841-44.468l2.6823-2.6892-2.6823 2.6892c-10.189 4.7827-138.81 104.6-235.35 83.322-51.182-11.282-74.86-42.428-101.22-84.598l7.9762 87.745zm260.68 150.89c3.3176-3.363 2.1912-2.1541 4.9771-5.3042-2.7854 3.1494-1.6595 1.9409-4.9771 5.3042-24.19 8.2664-127.44 108.86-228.16 67.898-41.961-17.069-62.158-52.81-78.647-92.419l-1.9421 56.353 3.9078 17.663c16.932 64.435 102.85 92.082 166.42 75.296 47.384-12.515 78.263-46.284 107.6-83.329 10.565-13.341 22.308-26.738 30.82-41.461zm126.12-518.15c-111.43 113.52-256.97 178.83-373.1 63.301l-32.684-36.227 30.985 92.944c54.491 117.9 120.29 132.69 196.59 96.506 84.861-40.247 145.98-123.73 179.46-210.01 0.8967-2.3098 1.2805-4.5334 1.719-6.9604l-2.9723 0.4502zm-536.42 667.57c-52.38 8.1973-88.844 22.153-121.39 66.367-15.114 20.529-28.964 53.127-25.111 79.148 3.1157 21.064 20.938 36.009 38.46 47.541l13.65 4.2551c-0.2114-9.5833-6.7664-19.072-8.3247-28.801-10.028-62.709 21.694-121.28 70.96-147.19 10.494-5.5159 42.18-13.412 48.269-21.03-5.2901-0.1407-11.285-0.8141-16.508-0.2933zm71.532 20.349c-121.27 32.69-135.2 151.7-69.382 191.72l9.1511 3.8755c4.7896-15.272-52.132-100.83 76.65-194.52-5.3487-2.5761-10.698-1.5307-16.419-1.0727zm106.8 37.609c-52.438 15.356-92.811 43.66-102.18 97.869-5.455 29.389 8.5981 42.953 21.113 57.026l11.908 7.7903 3.0582-2.1921c-24.538-110.37 69.23-155.27 73.6-160.75l-7.4946 0.2546z"/> <path d="m1030.7 1581.4 0.2194-4.6116 105.94-9.8181c-25.754-17.656-52.028-36.344-80.581-49.22-90.073-40.623-199.49-33.072-296.33-32.81 116.19-38.964 255.26-34.029 378.02 24.655 97.788 46.742 85.492 57.092 249.96 87.679-89.047 12.437-176.6 9.1566-265.75-1.5541-28.15-3.3824-63.967-16.9-91.482-14.32z"/> <path d="m1618.1 1508.9 2.4944 2.3645-2.4944-2.3645z"/> <path d="m1030.7 1581.4c22.191 21.515 52.299 39.232 76.09 60.342 61.402 54.485 116.59 150.23 119.87 169.28-12.711-11.412-84.087-188.64-341.29-260.81-35.292-9.9043-71.446-13.635-107.02-21.97 148.8-14.555 207.65 33.407 252.36 53.162z"/> <path d="m799.98 1581.7c113.02-7.8196 213.16 53.168 271.28 147.79 6.6176 10.766 14.539 22.075 17.029 34.61-7.3617-5.9686-24.255-41.678-52.032-68.391-64.582-62.092-156.34-80.91-236.27-114.01z"/> <path d="m7.8592 1586.3-2.75 2.7402 2.75-2.7402z"/> <path d="m5.1092 1589.1-2.703 2.5212 2.703-2.5212z"/> <path d="m2.4062 1591.6-2.4062 2.333 2.4062-2.333z"/> <path d="m4199.5 1934c8.1055 51.553-21.771 93.821-44.091 137.76l-45.031 95.422c-20.44-22.557-38.06-47.008-60.027-68.3-75.274-73.033-254.1-182.21-293.7-501.49 13.274 23.118 26.735 79.072 56.249 128.8 45.676 77.024 122.08 143.39 266.89 282.26-5.4717-137.9 9.8884-219.39 70.326-338.34-11.172 148.31 40.482 207.35 49.377 263.9z"/> <path d="m1212.5 1614c7.4595-1.3779 19.637 4.1968 27.39 5.88 96.925 19.46 130.18 29.594 245.1 27.622l2.5021 3.0339c-87.351 38.039-190.29 6.0771-274.99-36.536z"/> <path d="m4925 1638.6-2.4668 5.3397 2.4668-5.3397z"/> <path d="m2664.4 1685.8 2.8391-2.204-2.8391 2.204z"/> <path d="m2664.4 1685.8c-10.402 13.627-14.172 16.419-115.89 108.45-12.938 10.86-30.041 21.331-40.872 34.113 69.771-19.111 175.68-77.426 235.85-87.033 25.752-4.1051 160.31-9.4767 266.45 6.745-74.242 18.705-159.16 33.432-223.82 77.262 72.229-3.3158 143.97-2.4349 215.21 11.083 138.98 26.372 340.57 129.46 370.51 160.2-85.456-13.741-177.34-21.789-263.37-9.7437 51.321 17.156 216.27 46.814 311.74 239.05l21.027 50.622c-51.527-49.882-111.04-72.599-178.43-93.477 86.286 62.832 176.56 157.02 200.38 264.28-25.572-33.239-41.317-63.115-142.34-81.121 64.323 37.55 113.41 95.398 132.11 168.17 8.1289 31.643 8.6106 64.766 10.287 97.223-22.672-44.041-49.918-81.548-90.966-110.22 21.693 84.598 47.208 165.75 126.42 213.31 109.24 65.595 294.19 46.951 393.87-61.321-38.178 76.674-107.76 139.84-184.26 177.07 12.214 5.8975 125.65 32.565 251.62-11.169 37.708-13.091 71.618-32.226 105.25-53.327-105.2 157.17-364.69 243.47-529.37 132.13-69.453-46.95-110.59-115.85-141.11-192.39 9.7971 107.62 40.461 196.61 107.73 282-89.495-50.545-77.076-62.423-114.28-105.38 12.503 65.615 23.11 128.63 59.836 186.18 63.891 100.12 212.13 123.14 74.719 325.38-110.71 162.93-138.49 317.94-195.73 372.75-83.916 80.379-505.27 91.146-523.85-22.846-13.144-80.662 46.929-134.63 118.64-173.85 26.13-14.293 57.917-23.727 80.013-44.025 58.508-53.75 39.196-206.55 37.908-279.29 31.321 23.306 103.43 94.755 218.59 77.7 113.23-16.777 160.42-144.22 149.69-252.64-62.406 122.14-182.02 162.84-316.15 162.81-100.68-0.03-178.36-10.876-316.55-82.816-331.81-172.72-403.83-469.09-314.88-636.75 172.14-324.4 600.94-245.14 666.77-9.0901 54.923 197.02-105.52 285.26-224.93 211.09-115.76-71.878 6.6516-223.9 103.37-157.83 13.059 8.9177 24.356 24.04 29.849 38.783l-2.467 30.597c15.126-20.482 28.906-40.666 24.775-67.369-13.83-89.441-112.99-119.65-166.75-109.7-138.54 25.644-204.92 254.61-46.111 359.02 56.527 37.171 125.27 51.972 191.74 37.762 68.896-14.731 143.6-64.081 181.83-124.34 73.34-115.61 30.48-315.52-123.03-409.01-98.308-59.88-238.4-77.88-349.52-50.629-104.13 25.542-185.5 89.185-393.9 55.221 330.38-134.9 324.09-169.67 382.46-200.09 53.87-28.073 184.52-41.094 313.92 13.208 144.37 60.589 183.8 140.66 211.2 156.91l2.9639 4.9443 2.3025 2.7012-2.3025-2.7012-2.9639-4.9443c-5.6641-23.277-51.662-79.676-79.348-104.94-104.78-95.626-243.99-150.92-382.14-177.02-308.11-42.771-602.3-69.714-858.74-216.16-19.356-11.055-39.075-21.743-55.822-36.611 299.56 51.189 327.68-2.2327 386.98-31.381l-0.2625 2.1766c-8.0388 34.912-83.31 80.859-114.19 98.432 289.85-81.847 207.19-57.866 374.04-108.09 135.54-50.817 119.17-47.49 134.3-50.034zm-30.311 893.12c-185.62 347.59 329.81 758.74 608.88 483.55 65.288-64.38 104.74-163.41 105.02-191.27l2.4788-3.2219-2.4788 3.2219c-56.348 84.368-132.32 145.37-232.08 162.75-63.18 11.004-141.59 3.0378-200.1-22.342-25.91-11.239-49.761-27.431-72.805-43.61-75.013-52.673-152.59-137.26-168.63-230.38-9.762-56.697-10.58-129.98 7.6238-184.8 9.7815-29.455 25.64-55.997 43.448-81.188-40.688 28.182-67.64 64.319-91.353 107.29zm221.48 1209.6 15.256 11.325 2.498-1.5229c-17.023-80.902 12.081-123.12 70.483-181.37l2.6902-2.0671-2.6902 2.0671c-25.236 5.3723-94.332 47.124-103.13 102.74-4.2327 26.785-1.0256 46.93 14.896 68.821zm219.83 28.621c4.6243 4.5139 10.416 7.4304 15.96 10.664l3.7864-2.0786-5.0786-31.342c-3.9001-57.821 20.15-98.796 57.055-140.83l2.8157-2.1372-2.8157 2.1372c-28.76 1.0352-130.33 75.536-71.724 163.58zm378.04-543.39c-38.809 77.762-83.385 149.09-170.26 178.55-89.254 30.263-149.13-2.457-206.96-55.754 7.0835 19.151 14.578 36.478 24.712 54.278 56.626 78.427 151.92 108.58 227.7 51.326 85.046-64.253 134.93-195.76 125.38-227.92l-0.5715-0.4815zm-412.51 360.16c-88.236 33.449-112.47 102.97-94.27 148.76 5.2075 13.091 15.306 23.598 25.667 32.821l14.637 6.2166 2.7412-1.2095c-16.478-28.833-18.289-65.502-9.4094-95.246 11.116-37.245 39.098-67.549 68.744-91.343h-8.1095z"/> <path d="m2270.5 1743.4 2.2476-2.4976-2.2476 2.4976z"/> <path d="m1090.9 1769.3-2.6078-5.2184 2.6078 5.2184z"/> <path d="m1093.5 1774.5-2.6117-5.2222 2.6117 5.2222z"/> <path d="m1095.8 1779.7-2.3378-5.2067 2.3378 5.2067z"/> <path d="m1229.2 1816.2-2.6079-5.2301 2.6079 5.2301z"/> <path d="m1231.8 1821.4-2.6117-5.1909 2.6117 5.1909z"/> <path d="m1234.6 1826.4-2.7958-5.0148 2.7958 5.0148z"/> <path d="m1236.5 1829.3-1.8912-2.8303 1.8912 2.8303z"/> <path d="m2063.1 2082.7c-44.566-2.2188-54.24-10.603-90.104-36.075-59.186-42.036-107.9-92.333-156.66-145.74 127.13 38.01 227.78 4.5685 237.44 6.1462 32.668 5.3502 13.872 35.969 299.11 98.515-97.291 42.88-178.31 82.692-289.79 77.152z"/> <path d="m4260.8 2233.3c-23.225 171.43-99.918 228.83-172.33 290.74-37.572-206.92-63.98-206.55-72.401-236.69-6.2649-22.306-6.1865-47.866-11.669-70.928-25.006-105.06-31.079-98.028-60.693-167.89 12.256 8.718 22.985 27.356 33.518 38.807l163.83 182.16c16.558-163.7 94.711-272.58 102.79-288.69 1.6001 80.938 30.294 105.72 16.955 252.49z"/> <path d="m939.14 2025.4 2.3455-2.9832-2.3455 2.9832z"/> <path d="m2098.2 2137.9c210-24.742 237.8-89.053 331.27-101.56l318.76 26.256c-132.05 53.503-273.23 269.34-650.03 75.308z"/> <path d="m3940.9 2043.5 2.78 5.0969-2.78-5.0969z"/> <path d="m1993.5 2310.2c-188.14-48.979-231.81-161.52-273.79-232.92 148.97 77.542 235.49 32.504 244.27 33.581 18.207 2.2366 47.262 46.714 158.24 99.294 75.231 35.657 131.29 42.597 190.36 53.707-90.544 36.525-186.52 80.845-319.08 46.338z"/> <path d="m1247.6 2119.5 2.7606 4.7878-2.7606-4.7878z"/> <path d="m4214.1 2623.7c-78.004 71.64-167.48 163.06-350.14 176.82 10.142-34.837 30.66-70.43 47.85-102.32 111.4-206.82 85.101-284.04 94.173-319.62 34.654 84.367 43.503 161.51 38.687 252.1 128.32-77.094 215.09-209.76 255.03-352.49 51.183 403.22-163.37 841.29-497.22 729.45 207.38-57.579 312.61-195.12 411.62-383.94z"/> <path d="m2264.5 2564.6c-73.592-34.296-165.51-129.99-216.09-192.12 17.679 0.7634 36.028 8.0291 54.362 9.4109 68.728 5.1714 139.96-5.144 205.59-25.316 16.074-2.6863 36.46 21.875 191.1 32.809-38.699 38.764-68.486 80.51-91.686 130.23-9.5781 20.529-16.274 57.946-30.907 73.484-37.724 5.1049-78.721-13.271-112.37-28.492z"/> <path d="m2125 2549.9 2.1887 2.3687-2.1887-2.3687z"/> <path d="m2291.2 3162.9c-25.569 0.3274-54.469-15.721-121.33-46.997 5.3853-117.34 75.553-179.86 48.32-300.08-7.3418-32.406-22.057-62.691-36.31-92.494 13.295 6.3398-4.4321-2.186 93.166 68.273-10.6-18.955-29.011-35.315-42.215-52.81-42.162-55.861-99.473-154.53-105.71-186.49 41.47 17.98 120.7 74.394 243.44 79.097-3.7786 28.057-6.9856 55.734-5.2549 84.124 15.586 255.62 277.22 427.02 293.9 455.03-58.618-17.965-135.23-68.425-217.12-117.97 48.232 88.328 94.934 120.96 102.34 136.36-13.838-2.1179-30.633-11.282-43.926-16.724-98.648-40.386-122.26-65.934-173.51-124.08-1.8323 37.472 21.325 82.026 39.173 114.02-3.4734 0.8809-16.83-7.1914-20.667-9.1292-48.688-24.592-87.931-58.349-134.18-85.772-8.816 33.147 54.075 69.9 79.892 95.629z"/> <path d="m1110.5 3713.5c6.203-62.477 35.155-102.22 84.853-142-45.562 9.3743-88.903 16.813-110.32 80.718-12.029 35.878-1.531 72.247 14.555 104.86-42.893-5.3438-83.714-4.7642-123.13-25.982-34.96-18.817-55.821-69.47-34.415-127.54 32.904-89.264 131.64-104.66 162.96-116.1 95.65-34.943 111.72-124.45 114.04-227.83 4.595-205.33-48.071-362.81-85.918-487.23 28.476 19.049 108.75 100.12 263.39 150.47l80.546 22.185c38.981 9.0195 93.671 12.735 122.41 42.776 53.16 55.587 1.0751 161.16-30.343 243.53-34.155 89.529-93.252 252.2-95.007 360.72-23.909 8.5537-48.664 21.985-68.071 38.318-42.81 36.035-51.288 79.7-55.47 132.77l-238.26-3.4919-1.8247-46.167zm141.11-432.97c50.133 132.99 185.41 84.35 268.47-38.024 8.035-11.834 17.538-23.931 22.132-37.586l2.3456-2.8501-2.3456 2.8501c-6.4099 2.8618-13.309 10.022-19.167 14.234-51.186 36.799-119.96 68.758-184.23 58.952-43.159-6.5847-69.836-38.686-95.739-70.755 1.0806 25.305 3.7003 48.339 8.5322 73.179zm-14.034-303.11c11.653 66.363 28.252 138.53 87.144 179.75 25.973 18.18 51.946 22.416 83.138 16.575 77.381-14.492 141.49-90.428 150.64-113.57-61.371 28.675-137.38 43.563-202.84 19.742-52.69-19.174-86.8-57.79-118.08-102.5zm-38.194 459.37-30.93 35.428c38.593 50.352 79.526 74.714 149.1 60.256l35.269-14.305c-112.56 4.2041-134.03-58.606-153.44-81.379zm-203.36 222.83c2.8936 27.094 13.908 48.465 32.857 67.921l8.5049 4.7561c-1.2256-9.8611-7.1578-19.793-9.339-29.799-8.4304-38.662-0.6891-81.611 23.847-112.99 28.43-36.358 53.714-39.673 57.052-49.792-78.29 0.377-121.66 38.106-112.92 119.9z"/> <path d="m3951.9 3080.4c-131.31 49.262-312.47 41.812-402.91-68.806-12.53-15.326-22.762-33.24-33.056-50.148 141.49 58.159 134.17 35.79 175.21 48.191 47.257 14.28 73.002 78.865 292.91 56.267-9.9846 6.0326-21.419 10.014-32.148 14.496z"/> <path d="m3492.6 3040.5c40.345 1.2444 51.27 30.66 140.03 70.974 24.724 11.228 59.718 17.695 81.035 33.185-18.032 0.5203-102.56-15.08-154.18-44.55-17.805-10.167-61.265-39.136-66.888-59.61z"/> <path d="m3716.4 3146.6-2.7292-1.9692 2.7292 1.9692z"/> <path d="m2294 3164.9-2.7683-2.0044 2.7683 2.0044z"/> <path d="m2661.9 3172.7-2.6431-2.2 2.6431 2.2z"/> <path d="m2546.9 3191-2.4199-2.0867 2.4199 2.0867z"/> <path d="m2515.5 3281c-24.755-16.982-47.043-41.273-67.283-63.368 48.374 21.194 109.72 36.955 161.9 45.599 46.781 7.7473 93.624 2.533 132.79-25.426 9.374 5.2693 73.521 32.79 75.451 37.319-82.829 57.526-209.97 69.594-302.86 5.8761z"/> <path d="m2751.8 3731.3c-127.03 16.845-264.32 25.751-391.8 9.2505-45.333-5.8674-101.53-11.396-116.37-50.309-12.471-32.7-2.0166-73.824 12.217-104.29 50.438-107.96 167.06-100.49 199.15-113.26 32.007-12.731 42.074-41.422 54.612-70.716 18.721 27.654 26.454 51.753 55.407 72.184 39.345 27.767 89.626 34.755 136.29 26.397 70.274-12.592 167.68-81.963 195.6-125.68l2.553-2.6504-2.553 2.6504c-32.943 25.18-65.181 52.591-104.06 68.304-115.83 46.83-219.46 3.5068-257.62-78.776-10.158-21.899-16.188-46.859-25.143-69.561 40.726 37.049 91.322 88.244 174.49 81.998 62.882-4.7212 116.34-51.749 155.97-96.886 58.101 19.985 112.02 29.639 172.87 36.72-63.7 234.05-211.72 243.31-261.62 414.62zm-335.09-206.89c-96.084 37.268-127.01 113.05-108.64 158.2 3.105 7.626 9.3936 16.101 14.97 22.052 5.47 3.7659 10.396 8.6868 17.1 8.8979-14.324-84.843 17.627-132.97 81.67-188.88l-5.1023-0.2625zm90.054 39.148c-74.987 24.524-137.27 92.78-90.042 156.58l7.7725 5.9976c10.132-15.519-23.795-78.105 87.598-162.52l-5.3291-0.0588z"/> </svg>