<?xml version='1.0' encoding='utf-8'?>
<svg xmlns="http://www.w3.org/2000/svg" enable-background="new 0 0 4875.9878 5000" version="1.1" viewBox="0 0 4876 5e3"> <path d="m4403.5 1698.7c-58.442-51.192-118.89-99.275-183.07-143.08-3.0791-189.77 6.854-180.21-70.994-243.78-145.74-115.22-185.25-144.88-232.41-188.14 34.648-51.886 61.135-99.555 73.807-161.15 23.72-115.29 11.108-251.5-36.286-359.32-14.95-34.003-34.498-64.633-54.939-95.443 25.826 85.307 29.163 167.75-24.01 263.5 1.1768-203.36-115.47-458.85-327.19-595.16 55.938 102.55 85.459 202.84 88.463 319.79 0.8745 34.253 0.8293 70.24-4.562 104.14-18.361-15.713-9.3103-318.39-410.37-509.6-110.71-52.78-218.43-81.043-268.34-86.678 132.14 84.544 212.63 200.22 265.87 346.86-155.14-175.31-449.24-324.43-833.46-330.63 147.93 58.727 241.93 149.61 267.45 195.74-38.319-8.0606 30.233 4.1884-152-37.325-301.4-47.947-412.9-57.715-675.69-178.41 75.911 159.15 167.66 231.39 169.59 251.15-172.21 37.996-344.96 78.614-522.19 81.019-168.64 2.2872-379.08-39.927-513.01-90.237 90.228 151.1 215.77 234.7 391.25 325.96-40.263-8.0826-74.706 1.2296-116.75 9.4291-333.25 64.985-654.32 285.15-842.25 512.72-42.952 52.011-80.828 108.47-117.37 165.07 239.71-138.94 471.58-180.41 607.68-167.4-79.568 58.422-156.51 117.66-228.77 185.19-327.2 305.76-588.58 737.83-653.98 1213.3 112.25-191.2 278.89-345.86 472.64-452.1 89.414-45.132 103.08-52.537 112.42-54.415-17.356 35.656-526.76 573.08-261.16 1440.4 17.49-239.18 102.66-428.59 329.8-510.98-71.788 374.08 45.62 754.89 255.64 1064.8 149.43 220.53 308.89 370.08 492.87 516.55 6.751 5.5811 14.106 13.575 22.096 17.128-9.5905-36.491-371.61-615.73-22.915-1060.5 30.794 24.917 221.28 533.79 1018 956.82 222.31 118.03 474.87 220.36 641.39 417.45 32.055 37.935 55.758 78.449 82.467 119.86 3.8376-156.31-26.878-320.3-94.748-461.2 264.33 182.54 497.58 401 598.08 519.91-8.5444-51.816-6.8406-107.06-2.9727-159.26 29.043-391.85 254.53-721.53 256.61-997.37 3.0312-402.34-378.03-714.46-186.2-948.03 40.409 22.05 88.998 33.483 134.46 38.92-9.2727 157.88 73.766 324.45 202 400.74-30.605-49.278-43.752-94.178-45.651-152.12 47.494 95.428 118.17 187.24 201.7 254.01-23.56-39.374-36.296-71.034-45.371-116.02 133.8 124.64 124.23 156.06 188.86 209.81-13.616-44.26-44.159-98.22-12.492-194.4 15.261 36.071 1.4302 44.272 82.441 130.86-15.005-48.194-23.045-90.551-8.2251-140.63 32.07-108.4 125.71-180.78 167.57-282.89 31.781-77.536 24.971-154.9 21.436-210.71-1.2974-19.272-4.7881-9.5945 17.004-45.446 154.77-252.38 171.81-283.76 178.55-447.79 1.2441-25.749-4.1094-12.582 17.089-38.495 22.92-28.037 47.989-55.144 62.569-88.657-67.356-134.96-387.35-431.98-472.45-513.85zm-2290.6-1514.8c453.58 100.94 559.76 47.826 745.49 304.76-1.499-112.21-34.208-228.39-117.19-308.09l-30.69-25.52c142.15 61.309 324.71 168.92 420.18 274.47 68.13 75.318 104.22 148 136.6 231.4 16.579-46.17 32.738-93.009 40.483-141.61 19.785-124.18-10.205-248.13-101.51-346.17 16.195 7.5603 31.325 18.466 46.26 28.282 236.96 155.75 339.88 409.67 308.57 632.44 85.024-63.324 147.08-144.57 162.44-251.6 6.5811-45.835-0.5093-85.044-12.212-129.04 48.398 80.338 136.42 340.86 88.902 531.83l-21.97 67.436-21.157-12.042c57.874-154.45-10.007-330.89-12.646-343.31-3.4324-16.184-3.5178-33.348-6.1509-49.753-26.53 122.66-130.28 229.32-203.28 253.64 3.6279-54.52 11.068-106.34 6.301-161.21-14.156-162.81-139.07-369.33-186.42-423.44l-61.445-62.902c60.821 99.446 97.532 188.41 68.845 307-19.763 81.708-65.433 168.36-82.737 191.4l-5.2661 2.108c-34.604-28.614-39.028-242.6-426.84-506-19.668-13.359-40.873-29.221-62.964-38.274 114.18 120.65 142.36 265.56 105.84 426.24l-28.362-4.1071c-4.3535-14.822 19.961-79.131-75.82-193.45-129.23-154.28-339.02-152.85-611.66-209.84 149.75 70.612 348.78 68.392 513.81 170.65 10.553 6.5396 30.31 16.32 37.585 26.287-33.448-9.8361-51.59-38.47-233.16-89.971-34.163-9.6898-69.065-20.069-104.29-25.065 52.311 26.051 110.33 44.37 164.72 65.845 34.238 13.521 162.68 73.133 166.77 81.11l-439.55-165.47c35.173 23.523 82.207 36.501 121.46 52.316 335.73 137.1 321.16 130.02 334.34 141.05-21.42-1.857-383.47-145.53-404.37-149.55 48.4 32.257 333.64 138 348.96 146.08-148.54-26.538-303.32-112.36-321.3-113.61 64.464 49.992 239.63 120.4 241.75 121.97-26.144-0.9999-60.411-15.27-84.86-24.149-236.57-85.944-302.48-196.02-471.73-302.59 25.404 1.6298 45.295 14.146 68.286 20.454zm1629 691.79c-16.02 32.116-19.35 42.373-59.187 89.187-4.7268 5.5569-7.405 11.902-14.505 13.971l-6.9802-4.9968c39.414-45.655 70.454-107.62 89.207-164.89l0.999 0.3746c15.754 29.821 2.8425 161.42-43.911 204.63 6.0635-28.048 37.485-80.374 37.546-142.54l-3.1679 4.2727zm2.2583-113.19c4.4167 30.608 9.9419 25.205-18.342 78.534-23.321 43.932-51.322 85.1-94.009 112.52l-3.5779 0.5594-3.0828-2.7433c4.3394-20.192 47.133-33.491 119.01-188.87zm-137.34 169.7-7.9695-0.4197-1.0098-4.1472c62.145-53.745 104.74-132.46 138.52-205.98l2.8379 17.353c7.264 44.362-93.362 170.93-132.38 193.19zm-121.7-260.14c-2.8997 26.942-15.052 139.64-41.329 169.18 5.0654-44.539 6.0967-17.431 25.773-156.66 5.4924-42.764 13.455-57.195-13.571-141.27-4.5718-14.235-8.5344-29.091-15.075-42.547 0.25 40.943 50.294 144.28-25.753 327.8-4.4224-44.765 41.946-135.54 23.545-259.19-6.99-46.98-9.1064-28.167-23.015-128.92 45.853 41.611 117.97 271.1 63.309 424.49-2.838-64.513 19.148-127.2 6.1164-192.88zm-114.32-306.45c11.487 9.8889 40.344 54.165 42.842 83.739 7.9136 104.82-66.562 313.99-82.206 323.06-0.21-10.803 6.7703-22.276 10.553-32.289 4.4172-11.702 7.7551-23.98 11.523-35.907 73.465-232.61 31.311-280.23 17.289-338.6zm48.663 161.03 2.3435 1.2491c8.6653 58.079 7.3379 116.99-24.649 210.21-6.7402 19.647-12.562 39.619-21.626 58.362l-3.9224-0.4692c44.38-170.72 40.167-138.95 47.854-269.35zm-316.68 151.09c-10.478-26.203-16.275-54.15-25.773-80.813-15.964-44.796-74.976-174.09-132.08-232.36 12.197 18.065 25.753 36.072 35.996 55.316 59.536 111.83 83.231 221.82 82.106 242.46-14.114-11.843 8.5063-14.459-70.899-191.59-14.043-31.342-29.17-70.528-53.391-94.939 16.514 47.027 79.123 164.2 83.616 276.78l-3.0979 0.2098c-10.215-57.126-44.117-173.97-70.525-217.14 13.961 66.646 43.367 140.59 36.547 209.52l-3.6531 0.0201c-5.4788-26.811-19.582-121-30.365-146.22l-3.063 142.58-3.4524 1.6639c-8.5129-20.998 5.1216-86.115-11.723-173.37-17.32-89.714-58.876-161.1-69.265-189.05 49.313 26.562 92.724 76.049 128.46 118.23l1.1238 0.9691-2.1582-10.778c10.803 5.8377 20.627 20.309 28.866 29.438 77.042 85.322 109.04 163.73 133.33 257.87l-1.7383 1.1998c-19.79-37.731-48.026-165.81-155.46-274.34 15.752 41.96 98.357 163.61 106.61 274.33zm-799.55 80.252c128-15.428 279.36 40.574 340.95 167.6 6.25 12.893 11.196 20.747 11.998 31.809-2.9941-1.9082-1.1917-0.1803-7.6799-7.4901-58.913-65.187-212.96-125.24-363.85-51.751-16.739 8.1498-33.998 16.764-47.729 29.536 32.894-7.5315 66.296-25.967 142.53 8.2945-143.26 35.85-176.19 95.531-190.51 183.4 15.65-25.608 28.612-61.865 61.255-69.205 59.642-13.417 120.37 23.889 172.24 47.194-42.677 14.965-81.152 31.455-126.14 38.96 22.875 56.463 52.066 104.79 90.446 151.76l-76.635-27.512c79.781 115.58 110.9 153.91 222.14 186.17-45.425 48.543-81.033 95.792-102.54 159.43-40.364-40.699-82.811-80.782-118.95-125.31-168-207.02-264.48-570.88-73.986-754.1 204.75-196.93 664.19-111.52 655.11 224.97-2.1223 78.857-49.138 197.03-65.677 227.2 33.763-388.1-317.7-508.86-522.97-420.95zm363.83 986.86c-50.598 87.952-79.152 195.5-118.58 324.23 51.976-34.668 114.87-59.632 175.54-74.362-118.35 66.808-103.97 294.64-96.522 429.66 11.627-18.603 22.99-38.06 36.721-55.179 43.877-54.694 133.11-133.25 163.99-139.75-3.8879 7.0603-11.648 13.601-16.395 20.426-57.378 82.482-26.013 275.25-8.9089 372.17 59.671-72.573 132.65-136.98 216.39-180.69-36.436 32.278-59.421 73.002-68.43 121.09-28.122 150.16 118.27 338.06 183.62 432.66-22.895-107.54-13.716-223.03 31.245-323.65-0.4497 108.3 25.778 221.81 81.462 315.4 0.5244-50.322 15.075-93.454 39.364-137.41-6.999 149.1 22.104 198.53 51.172 257.46 48.47-141.01 150.96-245.96 304.85-285.82-5.6987 8.5193-76.805 27.667-146.09 139.21-76.874 123.73-63.857 266.49-30.615 408.99-46.864-81.442-86.498-173.99-84.975-269.27-21.69 42.937-36.252 86.189-37.731 134.39-8.343-6.8733 5.8049 11.295-136.1-202.74l-36.711-64.633c0.3997 85.33 6.8003 170.92 38.505 251.06-38.628-46.767-94.682-137.75-202.82-305.71-0.3093 44.161 3.2031 79.099 17.868 121.09-81.427-114.11-132.68-253.59-133.98-394.24-39.02 67.436-63.977 122.83-37.231 199.27-33.893-52.041-68.131-104.1-92.695-161.38-40.794-95.118-59.061-200.09-19.817-298.78l-27.002 28.092c-49.543 63.804-66.487 158.52-57.188 236.99-32.689-58.952-52.556-128.45-70.015-193.43-25.048-93.214-48.299-205.56-19.668-300.37 6.6614-22.061 17.394-41.128 28.872-60.985-10.223 2.5735-19.943 7.77-28.951 13.202-56.073 33.815-84.118 97.008-99.631 160.41-2.2983-131.7 46.017-303.35 87.839-428.37-54.195 27.407-100.38 68.64-139.99 114.21 76.176-200.47 164.54-394.44 292.1-568.16 17.488-23.814 36.601-56.153 59.346-74.716-8.4424 23.015-20.452 35.2-31.649 55.219-70.599 138.57-27.088 44.701-200.28 440.42 43.737-25.823 83.761-42.922 133.1-56.009zm-1103.8 1589.2c-11.357-21.152-2.8639-13.137-23.794-22.855-54.59-26.412-18.69-7.9504-174.87-91.186-52.771 41.663-104.12 85.769-146.88 137.92-127.35 155.3-191.01 352.87-167.64 560.68-189.87-351.16-289.23-762.23-141.96-1128 23.4-58.117 53.046-110.8 83.331-165.46-291.14 48.265-499.19 187.41-618.55 361.65l-0.2242-3.2776c0.8187-17.878 5.597-37.101 8.1606-54.929 43.4-301.87 153.98-573.57 302.15-785.51 95.065-135.98 263.81-311.56 364.39-389.96-284.47-3.6168-552.12 58.602-792.1 223.95 89.116-137.46 325.78-705.68 1007.4-877.05 54.214-13.631 106.22-28.498 161.11-31.879-7.3607-13.48-358.12-220.44-821.77-83.086 118.37-86.065 368.48-210.25 666.68-281.43 234.61-55.999 303.99-46.164 477.9-35.097-234.65-157.17-386.8-185.34-528.83-272.63l111.83 22.117c411.09 66.998 641.44-56.705 799.57-41.62 43.895 4.1861 79.855 18.205 124.44 29.045-5.5217-8.5889-15.795-15.993-23.39-22.933-71.089-65.486-224.08-228.06-228.36-234.04 40.851 15.16 150.54 141.49 259.01 220.91 147.54 108.03 216.46 113.5 298.77 158.17-142.07 1.1143-103.51 12.909-127.28-3.8772-292.56-191.86-462.17-60.955-810.88-59.971 75.565 27.204 247.01 11.076 338.46 9.1741 175.73 4.8049 233.46 3.6733 248.94 13.911-144.67-6.0064-373.64 4.3255-396.07 7.6298 11.513 8.0997 81.807 7.1957 98.771 8.0202 179.58 8.7606 339.72 34.559 352.96 45.08l-425.53-34.672c45.969 18.861 333.79 42.388 374.96 58.127-8.2295 2.6001 9.9443 3.1769-266.08-22.47-94.767-13.123-92.522-13.432-103.08-12.607 184.83 60.701 356.9 67.048 375.41 75.091-17.364 5.7466-202.08-12.601-336.03-45.54-35.777-8.7953-71.985-24.8-107.06-32.339 19.68 13.346 35.473 17.462 58.581 26.498 189.26 74.038 333.93 79.33 357.03 90.457-232.83 1.7284-437.49-98.622-648.37-183.33-16.338-6.564-55.53-2.2434-94.314-5.7109 550.99 277.57 408.51 213.46 658.46 300.14-198.98 30.648-140.07 29.908-240.59-4.5369-82.064-28.114-202.37-43.626-290.14-43.172-190.18 0.9899-429.31 64.678-492.34 94.748 172.91-41.368 351.24-64.783 528.92-50.557 18.203 1.454 46.635 0.5394 62.449 9.0144-113.24-2.0441-143.55-4.9534-274.17 6.8755-19.023 1.7233-42.707 0.7643-60.176 8.0796 62.029 0.2165 299.84-3.8618 365.59 15.13-52.313 2.6862-383.41-14.536-472.55 9.7184 199.47 2.0076 111.51-2.9446 393.09 24.3 97.286 8.3586 94.716 7.4706 103.18 10.763-124.46 4.7045-411.67-31.963-451.99-17.359 65.121 8.4813 393.95 53.948 435.18 70.674-80.396-2.3809-468.05-68.887-521.58-55.799 79.65 2.7274 405.23 79.646 476 101.86-52.888-3.9357-42.232-4.7803-454.59-87.103-73.759-12.312-134.57-35.401-311.69 19.252 46.71 1.4447 94.129 1.7892 140.64 6.3162 153.98 14.98 312.46 58.517 442.43 144.37 34.933 23.075 64.858 51.202 97.517 77.064-273.5 44.941-748.77 73.464-1205.2 736.53 249.67-123.49 524.63-174.8 800.61-129.07-4.3894 39.294 12.878 16.837-69.215 84.29-248.06 198.6-456.87 456.15-578.31 751.43-39.294 95.544-67.151 194.17-96.023 293.14 45.616-54.575 93.61-103.61 151.58-145.3 128.6-92.49 299.91-145.38 456.51-159.48 63.939-5.7561 128.06-10.753 192.05-2.793-76.306-311.76-62.115-657.28 66.792-953.29 145.39-333.82 479.25-624.22 763.41-714.92-26.398 129.47-16.829 110.72-23.629 129.53-313.34 113.16-507.19 274.73-644.64 567.96-9.7141 20.717-28.306 53.096-30.246 75.401 155.69-263.75 350.31-435.44 687.61-462.26l4.812 28.836c-632.16 136.95-894.77 707.41-751.46 1362.6 50.642 231.53 181.45 493.6 203.56 512.58-2.3678-29.869-58.318-107.59-104.44-298.98-73.149-303.53-92.773-730.45 71.444-997.21 101.19-164.37 306.59-343.55 505.69-435.61 29.895-13.821 64.913-31.46 96.658-39.019-52.139 44.835-602.46 296.71-671.92 949.1-23.17 217.64-6.3011 432.47 55.319 642.66 11.802 40.254 22.215 81.157 39.824 119.35-7.6912-71.82-70.654-358.76 43.776-778.73 62.78-230.41 160.44-426.16 320.23-612.67l-54.704 99.5c-178.05 340.22-248.13 715.62-238.31 1091.9 9.9148 380.28 99.467 652.16 408.14 984.29 176.52 189.93 342.15 295.36 357.72 299.92-19.088-32.418-247.76-148.32-327-549.28-25.783-130.46-34.376-277.23-89.477-438.26-8.5846-25.083-21.986-50.522-27.817-76.235 2.8429 2.6331 4.4717 5.1165 6.6606 8.3396 140.8 207.09 160.63 459.75 189.57 567.94 78.358 293.01 354.15 555.58 606.47 724.06 90.676 60.551 190.93 115.46 263.41 198.54-368.84-263.45-961.42-391.17-1399.9-1201.5zm-533.5-1980.9c65.505-19.831 171.74-40.256 214.84-36.586-18.533 5.9608-39.479 7.4851-58.702 10.778-31.125 5.337-61.954 11.803-92.44 20.082-229.83 62.434-418.58 210.07-470.39 269.75 12.758-6.2919-6.7744 3.8821 125.76-89.656 162.41-103.13 390.39-154.78 497.03-151.96-23.155 10.797-249.39 30.562-456.86 151.17 127.02-43.382 256.33-87.763 392.47-85.335 17.734 0.3152 38.525-0.7141 55.424 4.7869-172.65 4.5637-392.97 71.272-447.45 94.534 34.338-1.0021 174.35-52.567 366.96-45.73 18.418 0.6497 40.688-0.3002 58.217 5.736-8.2719 1.5226-288.65-5.416-476.46 77.15-20.049 8.8146-41.444 17.67-57.978 31.554 40.034-16.045 80.018-32.828 121.58-44.566 134.39-37.959 281.52-40 369.15-23.12-105.1 0.8652-235.62-5.2961-423.6 58.622-18.148 6.1758-49.533 13.291-64.658 24.249 69.425-9.8821 185.88-72.798 470.77-28.132l1.2391 2.179c-95.388-5.0118-191.49-5.8412-286.4 6.6808-43.58 5.7474-195.9 35.299-233 59.142 41.954-2.2069 152.95-55.426 425.42-33.823 20.117 1.5945 49.298 2.4138 67.766 9.7937-31.346 7.9353-303-52.06-653.17 102.09 78.37-99.186 145.71-204.83 403.42-342.62 103.4-55.289 256.62-127.76 374.66-131.39-13.055 9.4059-75.204 1.1002-231.51 71.298-27.162 12.198-55.839 24.724-80.662 41.273 29.875-7.3999 59.066-19.008 88.582-27.947zm-289.47 1071.1c102.07-87.208 239.22-163.39 375.59-170.15-63.372 20.53-149.81 45.284-264.19 114.78-27.668 16.811-60.782 37.626-83.866 60.336 27.383-8.4148 54.075-30.091 80.308-42.842 83.011-40.339 181.53-65.518 273.85-65.842l-98.136 25.128c-143.05 43.217-285.12 112.34-390.85 219.58 14.121-6.7854 25.563-16.859 38.24-25.888 100.14-71.329 311.72-154.15 437.35-155.15-28.142 8.856-139.46 28.706-247.03 79.648 40.713-7.4055 199.99-36.925 244.7-28.771-232.2 26.984-416.63 96.227-581.98 247.72 41.687-158.71 231.74-511.23 481.55-649.39 22.865-12.647 50.427-29.236 76.231-33.733-65.678 41.459-90.844 47.882-171.73 128.61-11.093 11.063-24.819 22.451-32.634 36.092 12.257-4.2224 28.716-22.95 39.479-31.105 43.362-32.834 110.39-68.4 165.05-73.862l-2.7283 1.8193c-13.773 8.8872-13.886 2.1724-72.033 32.554-115.92 60.55-153.8 99.569-209.91 162.87 66.83-45.732 101.78-84.458 230.76-128.42 23.29-7.9351 51.551-17.284 76.026-18.578-107.28 40.614-207.6 89.856-294.43 166.5-23.867 21.065-117.3 119.96-124.84 147.97l3.4131-3.1875c21.955-20.819 148.08-166.93 343.79-231.93 30.041-9.9785 63.449-20.902 95.178-23.27-156.03 59.708-245.21 90.198-455.59 312.34-9.5709 10.406-19.449 19.167-24.234 30.595 4.6997-3.0866 88.641-80.68 92.695-84.405zm1176.5 1147.8c140.27 274.97 118.1 203.66 129.8 238.66 2.6488 2.7334 3.9825 3.7627 5.0819 7.4951-2.5034-1.8938-3.5728-4.7861-5.0819-7.4951-15.27-10.463-31.329-39.669-41.927-55.109-203.11-295.97-338.4-608.94-308.26-994.53 3.6824-47.085 6.3304-102.28 22.905-146.81l-0.0652 3.1931c-1.898 68.747-63.544 401.64 197.56 954.6zm1403.9 879.95c-217.54-289.46-387.68-305.22-543.36-404.75-155.71-99.537-201.42-172.47-228.68-193.73 10.201 34.413-20.278-46.315 135.66 241.42 193 331.88 150 259.83 198.71 335.97 6.7559 9.7788 19.462 23.45 22.91 34.447-23.604-11.562-101.47-82.188-120.09-100.63-214.94-212.87-242.8-389.4-343.8-622.31-109.9-235.68-93.988-186.73-102.93-216.19 28.311 26.909 127.87 215.56 457.48 428.69 264.38 161.8 207.33 125.83 287.2 178.92 12.596 9.2886 25.354 22.341 39.394 29.056-0.5249-1.6455-118.07-221.27-301.38-406.45-47.911-46.31-107.79-100.53-107.84-100.58 76.401 29.262 407.83 311.4 564.74 663.51 47.094 116.74 56.319 137.13 59.336 158.2-6.731-6.3113-12.097-17.819-17.363-25.578zm279.95-109.05c-3.1716 51.06-41.472 330.03-43.132 336.48-27.196-252.79-91.621-446.55-275.2-655.31-335.01-380.95-667.99-439.52-1066-801.34-198.41-180.37-302.83-329.48-385.23-516.21-60.121-136.26-96.417-284-93.814-433.53 3.5913-206.86 87.192-480.05 267.43-718.71 59.426-78.689 130.49-146.9 190.69-224.83-55.472 210.07-331.75 407.6-320.09 899.17 1.444 60.946 4.5024 125.43 16.27 185.31-0.9441-46.969-2.5386-94.828 1.2742-141.69 29.16-358.48 281.54-529.84 373.12-712.63-36.616 157.24-148.52 284.19-231.45 418.49-97.172 157.37-135.24 353.27-112.14 536.4 27.924 221.35 121.54 401.67 236.14 572.17 5.0117 7.0554 11.412 19.167 18.078 24.244-11.116-27.662-26.738-46.759-41.883-71.704-129.98-214.19-213.28-542.7-117.85-787.93 90.82-233.41 302.8-376.08 388.76-584.61-4.6321 31.045-14.206 60.485-24.599 90.041-65.778 187.04-177.72 280.47-189.33 311.52 116.51-68.662 103.92-68.799 123.15-74.582-157.8 171.93-517.39 449.26-73.437 1189.7 4.4717 7.1006 10.398 19.322 16.434 24.909l3.4775 2.5635c-5.9834-18.453-242.19-367.58-101.28-769.97 41.466-118.41 140.18-274.29 178.85-321.48-18.689 56.676-122.04 230.44-149.39 402.63-45.155 284.26 72.034 609.89 340.17 839.78 198.49 170.17 496.9 312.94 681.05 480.69 204.79 186.54 261 331.9 277.53 357.5l1.5093-1.978c-68.978-187.14-114.46-323.14-393.06-534.27-382.76-272.05-447.14-314.91-515.9-377.66-159.36-145.46-270.25-380.58-311.82-585.84-4.0076-19.817-9.5334-40.778-9.9182-60.96 9.3088 23.315 14.82 48.643 22.315 72.643 212.02 678.68 967.1 794.44 1168.1 1318.5 28.032 73.093 80.438 296.75 89.327 365.66 29.955-181.58-12.262-441.38-139.9-638.78-119.76-185.21-309.1-318.96-483.26-453.23-144.7-103.94-372.05-192.19-512.64-615.76-12.208-36.783-29.119-82.842-31.579-121.54 16.662 26.636 90.669 330.92 360.48 518.71 173.33 120.66 918.92 450.94 868.81 1257.5zm56.488-128.72c-7.1545-33.7 21.793-414.77-330.58-825.3-114.11-123.19-100.42-101.41-122.94-127.62 22.854 5.4805 181.77 147.44 271.17 266.58 133.43 177.84 172.19 314.73 185.71 451.99 7.8051 79.188 7.9196 155.45-3.3631 234.34zm56.778-133.41c-4.0696 18.167-28.047 123.68-40.863 137.21 3.1912-32.18 53.979-244.12 29.801-426.58-38.599-291.34-209.13-406.16-111.05-711.14l1.1497 8.45c-45.717 382.42 237.18 473.21 120.96 992.06zm819.44-1021c-1.3345-48.034-7.25-82.107-30.37-125.02 0.0352 65.342-16.004 103.6-62.305 150.2-9.3389 9.3982-23.12 25.563-35.297 30.945 26.053-53.79 47.524-109.67 42.877-170.39-3.6875 17.798-7.2559 35.552-14.876 52.191-35.277 77.061-135.72 147.37-155.47 153.2 14.926-24.411 58.278-57.242 74.872-171.04-61.835 102.11-116.52 133.23-229.3 173.53 68.938-52.512 106.74-73.744 112.61-182.27-21.88 47.722-55.245 97.444-103.02 119.87 28.451-53.54 31.744-93.125 24.114-153.4-9.3291 17.928-11.847 39.18-22.005 57.722-25.23 46.071-78.55 75.299-129.85 88.298 30.228-60.005 45.11-95.439 9.0137-166.43 2.0383 50.656-2.5925 70.172-47.384 117.25 6.3381-63.499-16.032-125.57-27.262-140.34-3.7678-4.9673-5.4065-5.7466-11.148-6.7959 19.651 47.832 2.4802 98.636-13.631 148.14-31.243-154.74-15.436-118.21-5.3213-127.38 4.022-3.6379 8.6091-12.652 11.807-17.349-48.94-10.768-96.276-30.133-133.1-64.108 28.657 7.0615 45.109 25.784 162.92 13.122-16.574-8.0752-45.955-18.943-51.956-37.516-2.6733-8.2744-3.5479-17.234-0.1599-25.138 43.435 35.701 45.676 30.542 93.01 28.512l-33.993-4.8721c-6.0061-6.291-7.9399-11.413-7.6951-20.227l0.6848-8.7092c1.4041-0.8696 2.6187-2.1682 4.2075-2.613 2.3235-0.6497 125.55 20.302 138.7 21.726 181.82 19.7 325.33-33.986 432.16-38.031 32.606 225.78 35.638 216.76 7.1705 306.94zm109.7-380.65c-17.266-26.956-7.6992-13.603-43.772-60.421 9.0142-37.88 25.498-74.871 38.3-111.72 20.169-58.08-10.933-19.51 124.05-151.53l4.0273 0.0403c-0.3579 42.025-75.115 227.19-122.61 323.63zm155.8-490.65c-16.149 18.683-45.505 20.157-68.715 21.786-66.297 4.6516-115.43-36.906-176.07-53.91-60.986-17.099-136.48-9.4741-186.39-53.351-48.551-42.693-59.811-62.688-130.84-96.098 17.882 33.403 77.277 155.1 122.37 198.44 30.66 29.486 82.081 32.924 117.83 54.855 35.372 21.692 104.99 112.28 130.37 155.03 20.26 34.099 25.638 4.376-43.891 197.55-136.07 65.292-282.12 123.79-435.24 120.55-24.205-0.5149-51.247 0.4844-74.282-7.51-109.33-37.92-194.24-113.75-200.83-126.84 19.022 1.9539 42.956 12.836 62.104 17.658 192.98 48.577 389.66 20.592 413.75 6.1313-31.637-0.2922-197.52 17.302-446.02-50.797-70.922-19.433-77.683-5.5681-126.22-129.77 27.064 3.5879 2.7295 1.8308 167.12 40.379 195.52 44.276 390.93 56.425 445.52 55.349l-617.26-137.21c1.2241-34.028 4.3572-68.146 15.97-100.32 37.859 1.365 58.417 8.8083 229.92 58.392 569.55 138.14 304.41 79.845 376.74 92.76-42.043-27.057-101.96-39.979-149.84-54.514-369.08-113.72-371.34-128.2-450.45-116.92 14.421-42.942 32.679-95.028 62.914-129.42 66.501 1.3743 137.04 36.55 250.29 79.833 360.31 139.99 244.74 100.06 309.5 128.45-37.371-39.682-223.81-118.88-313.7-160.49-83.9-37.27-122.03-53.55-238.92-60.841 35.15-58.718 126.94-135.94 191.79-177.21 18.074-11.503 37.426-20.477 55.684-31.639-125.25 32.124-215.32 118.81-309.05 201.42-43.337 38.196-90.282 73.537-119.89 124.27-71.536 122.56-57.09 332.75 80.283 436.79 13.381 10.133 36.221 20.736 46.725 32.389-14.056-2.1489-29.926-9.7285-42.792-15.855-115.83-55.143-162.19-204.13-265.68-333.28 14.425-4.342 45.91-9.3833 55.354-20.901-14.041-1.6289-29.736-4.312-43.862-3.6875-62.036 2.7412-120.27 32.854-217.69 20.197-88.334-11.47-172.75-53.522-199.25-88.058 26.503 13.146 52.621 27.447 80.403 37.775 78.509 29.186 173.1 35.142 253.16 8.2847 104.99-35.213 150.5-104.79 228.71-155.42-54.56 14.305-102.58 47.299-154.12 69.59-116.93 50.587-272.02 55.524-384.23-9.5989-175.43-101.83-248.46-392.98-191.14-494.15 25.322-44.676 75.337-50.194 116.48-24.169 84.665 53.544 86.749 166.47 92.824 197.37 27.392 139.38 141.07 198.58 266.92 171.6 72.869-15.619 127.91-67.946 192.09-87.808 39.299-12.162 85.225-9.4241 125.65-5.5211-109.76-50.587-219.81 6.7177-352.89-24.169-109.9-25.499-187.01-102.34-225.62-206.92-35.742-96.803-25.752-185.18-21.901-284.91-1.0308-120.03-37.359-258.41-59.491-284.79 10.15 66.555-1.6572 149.26-41.937 203.22-23.665 31.705-67.816 60.871-62.115 105.41 4.9395 38.624 70.49 36.248 86.129 7.8748 5.9365-10.758 6.541-23.805 7.7751-35.757 9.9133 18.528 23.155 39.009 17.208 60.915-10.197 37.518-75.502 60.904-116.5 46.925-41.658-14.214-65.997-54.694-38.975-119.49 25.662-61.533 71.089-119.62 90.561-217.08 1.4841-7.4257 5.1672-18.733 3.908-26.113-90.88 117-246.17 194.96-199.85 553.19 17.904 138.47 69.97 269.27 145.46 386.01 233.96 361.79 442.26 173.98 644.16 451.88-256.99-211.21-385.69-71.065-625.23-355.41-284.24-337.37-273.5-741.8-111.26-938.57 76.92-84.625 136.88-133.78 151.09-250.32 99.866 142.86 214.08 275.68 395.26 308.44 55.484 10.034 113.26 13.496 168.25-1.0636-37.186-4.9122-74.222-9.0194-110.74-17.919-98.726-24.059-198.04-79.663-260.54-161.06-77.857-112.25-91.044-138.81-172.18-219.34 73.657 9.4546 327.66 89.039 333.32 90.386-68.419-82.321-108.74-98.056-158.87-124.6 185.22 34.739 315.02 106.69 366.34 124.72-9.7837-24.863-19.942-46.13-36.841-66.971-122.69-151.31-571.98-203.44-575.03-205.57-2.926-2.0389 4.5989 5.4412-50.942-78.528 505.15 128.53 612.44 202.02 1031.5 532.18 217.06 173.27 210.38 137.91 209.3 297.95l-105.66 13.191c188.37 56.574 533.88 350.42 688.98 513.23 87.081 94.029 89.574 90.843 83.266 121.52z"/> <path d="m4212.7 1779.3c-3.6836-14.702-58.727-91.999-115.67-127.85-26.663-16.789-61.445-24.789-82.622-49.178-54.021-62.223-24.266-210.37-113.95-284.73-26.008-21.551-58.022-30.095-84.275-50.172-73.817-56.458-138.59-120.36-206.66-183.2 24.004 79.629 69.394 138.86 130.54 193.63-115-26.087-299.06-184.97-336.05-251.78l0.0103 2.7434c1.3293 11.262 11.612 26.267 16.988 36.316 60.125 112.32 135.27 169.09 154.42 187.14-105.98-15.884-339.87-179.41-372.9-201.19-5.4714-3.8579-12.522-11.713-18.338-13.971 129.26 213.24 212.96 279.5 443.97 287.95 146.8 5.3668 252.17 6.5132 291.37 171.25 16.24 68.27 21.721 151.16 103.38 170.8 19.497 4.6924 39.959 7.0604 59.006 13.316 69.952 22.99 113.23 87.509 130.78 98.916z"/> <path d="m3680.3 1859.1c-82.903-40.139-148.75-26.986-214.51-33.194-116.49-10.998-207.77-83.001-246.32-193.04-33.847-96.639-22.462-222.03-30.785-257.62-27.977 128.99-41.119 293.58 34.013 410.07 32.074 49.733 89.206 92.24 147.59 105.14 115.68 25.558 210.41-82.381 386.74 53.04 37.933 29.126 63.906 64.92 94.148 103.12-30.04-86.669-88.537-147.65-170.88-187.52z"/> <path d="m3933 1640.2c-18.903-48.184-1.0266-123.73-62.79-177.49-109.84-95.609-325.52 47.148-512.97-15.7-36.436-12.217-67.256-31.065-101.57-47.439 48.549 68.376 122.51 98.366 200.86 121.24 88.649 25.889 69.723 17.502 127.52 65.477 159.37 132.34 248.49 67.247 348.01 146.42 65.101 51.778 75.51 122.4 81.917 135.63l4.272-42.922c-6.7574-102.9-67.221-139.23-85.249-185.21zm-264.93-60.286c-18.51-17.162-26.953-32.253-49.798-46.44 10.118-2.0707 121.56 4.1443 131.54 8.9542-2.2935 5.481-4.7324 11.483-5.8069 17.363-2.843 15.605 7.1055 36.681 16.26 48.869 12.232 16.294 26.938 23.324 46.49 26.742l2.873 2.8386c-45.153 10.975-107.27-26.532-141.56-58.327zm146.01 25.698c-21.828-4.7341-43.251-23.126-36.247-49.652 8.6367-2.037 37.967 4.9319 45.485 16.434 7.4443 12.043 12.154 18.921 17.708 37.246l-26.947-4.0275zm51.386-20.691-14.356-23.495c-57.309-65.923-155.31-48.521-185.62-57.062l53.065-6.1464c73.89-5.274 145.76 11.481 149.08 85.225l-2.1731 1.4792z"/> <path d="m3474.8 1783.3c-6.6414-21.521-110.94-73.126-165.9-250.57-5.3118-17.158-8.73-36.521-15.675-52.901 6.5151 103.18 33.713 192.95 113.26 263.95 16.664 14.876 45.76 36.746 68.316 39.525z"/> <path d="m3585.3 1643.6c0.1089-0.0723 0.2593-0.1482 0.3645-0.2198 1.9338 3.5623 18.673 18.944 19.916 20.077 47.617 43.438 52.618 54.332 117.66 82.771 52.151 22.805 109.38 37.451 164.16 52.891-58.662-34.522-126.46-48.838-185.12-82.866-56.783-32.942-139.46-101.79-138.27-100.84-8.416-6.7294-8.5105-8.2894-10.916-7.511 8.0371 10.458 20.343 23.311 32.202 35.697z"/> <path d="m3865.3 1828.9c-141.5-51.584-172.57-62.356-302.02-181.85-22.552-20.818-85.896-95.354-90.858-99.905 32.005 72.976 136.04 202.14 275.54 257.02 50.453 19.842 104.7 29.63 157.09 43.197-11.792-8.899-26.058-13.341-39.759-18.463z"/> <path d="m3451.4 2133.6c-153.37 39.338-334.67 0.769-379.91-170.41-15.373-58.12-28.343-207.56-87.863-204.84-13.561 3.1925-24.559 9.0839-32.034 21.246-41.858 68.113 34.841 329.27 193.57 418.67 79.364 44.701 176.57 41.554 262.08 17.409 116.97-33.024 158.24-132.12 360.41-109.37-129.46-72.508-210.04 0.0625-316.25 27.302z"/> <path d="m4392.4 2024.8c-89.657-81.192-175.27-104.17-265.7-97.067l-11.968 3.0277 0.7695 2.8336c119.05 10.748 212.01 59.526 308.32 127.6l7.4951 2.6479c-11.232-14.61-25.313-26.713-38.924-39.039z"/> <path d="m1254.2 2574.5-163.59-2.9531c-196.72 215.91-209.68 625.18-141.73 924.8l41.748 160.56c21.767-207.06 216.92-407.57 385-535.42 3.0929 0.1697 138.86 117.23 162.97 129.97-144.33-205.82-243.67-481.9-284.4-676.96zm-152.07 665.38c82.974-102.67 209.49-172.66 232.22-178.48-13.878 19.457-35.146 22.159-100.23 87.883-126.73 127.98-166.55 203.63-237.98 368.7-33.825-218.32-48.167-436.85 29.136-652.54 15.494-43.233 55.683-145.82 84.335-180.53 14.416-17.464 42.152-38.79 62.285-48.304-22.101 27.857-68.041 57.225-86.749 141.99 25.719-31.4 68.051-75.831 109.19-84.605-23.149 19.989-89.121 51.956-136.97 168.65-6.8806 16.784-14.72 35.017-16.604 53.165 30.475-62.934 72.378-104.39 131.85-141.19 11.893-7.3545 40.91-26.271 54.57-28.027-18.173 18.206-181.53 113.8-212.52 291.57 57.872-105.09 136.43-184.57 249.17-229.19-25.169 18.488-51.452 35.921-75.546 55.794-85.14 70.234-168.27 169.46-186.61 281.27-0.6647 4.0527-1.1138 7.96-1.2241 12.062 53.765-134.8 176.03-238.42 221.42-256.87-36.919 38.92-221.99 190.16-219.73 385.33 13.506-41.538 23.55-80.598 41.873-120.81 60.766-133.38 197.78-247.18 250.26-261.52-59.996 52.311-120.12 108.64-166.49 173.83-66.576 93.599-110.28 221.92-113.86 287.69 17.839-52.971 36.387-106.86 62.425-156.4 51.195-97.421 135.6-184.73 247.45-230.46-104.55 71.759-181.78 156.76-239.67 270.17-8.2891 16.238-24.676 40.672-26.788 56.779 17.853-18.478 28.362-45.611 44.791-65.943z"/> <path d="m2191.6 3133.7c-0.8848-3.113-3.0227-5.0261-5.0571-7.4851 1.4943 2.7082 2.5385 5.6169 5.0571 7.4851z"/> </svg>