<?xml version='1.0' encoding='utf-8'?>
<svg xmlns="http://www.w3.org/2000/svg" enable-background="new 0 0 4892.5938 5000" version="1.1" viewBox="0 0 4892.6 5e3"> <path d="m4851.5 1160.2c17.139-42.3 29.15-86.255 41.113-130.22-63.994 91.007-113.06 125.67-258.4 186.13-27.585 11.479-49.626 24.564-78.76 31.245 16.33-18.644 274.26-147.17 254.43-469.1-30.895 88.574-91.695 146.55-176.8 186.94 95.618-202.63 71.762-339.88 25.347-528.68-18.464 89.027-35.407 144.31-136.66 255.69-0.0684-32.202-0.0488-63.642-5.1758-95.546-22.573-140.46-99.663-277.43-216.13-360.96 16.258 40.466 63.446 75.968 38.374 224.24-54.921-187.32-218.55-351.38-363.28-411.93-55.185-23.088-112.22-35.868-170.51-48.043h-12.71c221.4 120.35 325.63 204.93 329.38 458.94-60.23-74.842-146.83-111.92-240.71-122.43 58.64 47.499 111.4 99.789 127.38 249.52 31.127 291.46-147.32 459.27-183.04 554.03-32.514 86.279-34.668 178.75-41.386 269.41-49.473-38.316-99.043-75.025-152.1-108.28-74.372-46.609-277.02-153.17-334.7-238.11 72.177 9.6482 163.2 24.525 259.3-49.428 66.977-51.542 102.34-135.81 105.07-156.05l0.1267-5.171c-17.968 18.745-33.32 39.185-52.69 56.753-204.14 185.16-508.7-56.578-741.3 77.519-29.38 16.938-54.453 40.435-79.868 62.613 8.4087-19.888 41.118-46.636 57.7-59.99 190.94-153.74 421.94 6.5818 570.78-84.053 54.59-33.242 81.616-81.616 96.25-142.38-6.2253 1.777-22.909 24.854-28.384 30.708-138.33 147.94-457.32 3.5024-635 135.37-89.771 66.634-101.58 143.81-106.26 148.15-4.1846 3.8724-24.727 8.9362-31.392 11.802-69.639 29.94-129.8 98.258-140.71 198.72 48.906-26.509 98.037-44.932 154.27-45.391 274.28-2.2493 507 339.05 313.75 531.92-13.804-9.37-27.402-31.172-38.774-44.009-391.57-409.33-659.92-364.52-1026.8-694.88-172.85-155.63-278.89-327.21-222.49-553.02 15.824-63.288 26.129-71.524 31.319-96.231-35.214 25.135-155.9 175.98-176.79 326.64-2.837 21.128-1.4015 42.642-1.3381 63.902-101.94-134.82-249.56-286.11-201.47-550.52-23.447 28.776-46.782 58.974-65.083 91.337-89.522 158.31-97.15 380.54 27.168 544.7-180.14-98.636-235.91-180.18-330.44-321.82-2.6367-4.1651-5.2006-10.737-9.473-13.178 33.701 186.19 99.404 539.67 264.17 652.18l28.106 16.982c-25.684-0.8395-52.031-0.7076-77.564-3.5107-169.66-18.624-229.51-124.13-248.26-137.7 5.6176 32.383 21.023 60.598 35.313 92.373 143.86 319.8 307.77 358.12 330.82 377.08-312.69-33.254-471.33-167.54-512.39-177.02 18.342 19.933-3.2273-2.6511 184.94 164.83 218.83 222.6 227.56 233.96 268.75 267.17 66.133 53.34 156.46 97.685 241.89 104.79-185.17 52.232-316.54-12.039-500.2-78.062l232.5 167.38c105.65 74.24 196.22 160.44 432.02 167.99-48.78 38.273-211.29 113.93-335.63 117.45 203.35 74.139 428.86 83.275 564.16 56.133-107.83 83.742-194.64 126.23-388.74 97.769 45.337 26.733 93.78 43.599 144.16 58.076 274.54 78.882 458.36 7.5115 483.9 4.678-12.55 21.984-131.29 127.39-270.92 145.01-21.114 2.6663-43.345 1.689-64.629 1.6941 170.22 49.873 357.49 42.002 523.38-21.382 25.889-9.8923 50.796-22.744 75.684-34.898-46.255 60.557-115.77 115.62-192.39 128.7 57.831 9.8054 320.23-0.6609 435.7-44.297 56.773-21.445 103.88-52.173 152.17-88.076-22.773 30.84-55.84 58.237-83.842 84.394-175.48 168.29-86.344 74.668-404.39 428.52-482.25 507.09-840.71 359.03-898.74 158.43-49.93-172.55 112.75-301.28 307.56-189.73-3.1151-10.082-20.372-26.616-28.418-33.945-115.72-105.43-284.41-69.394-386.83 45.903-115.18 129.64-103.59 358.23 43.369 485.35 102.34 88.526 250.64 129.44 384.37 119.77 51.245-3.7056 98.511-17.177 146.82-33.94 187.02-64.912 339.79-192.51 469.95-338.46 193.17-216.56 191.66-292.77 319.89-454.84 82.345-104.08 224.24-225.02 364.28-297.6 122.33-63.408 262.7-90.009 409.85-262.88 184.79-217.06 158.72-514.98-28.814-723.61-24.585-27.353-52.408-50.873-80.278-74.746 10.629 33.35 134.7 225.46 57.47 386.78-22.017 45.991-60.327 82.281-108.68 99.199-15.322 5.3612-32.046 7.2607-48.145 8.5254 10.88-10.4 23.033-19.326 33.155-30.498 146.85-162.09 65.82-436.56-97.725-618.02 204.73 102.84 363.73 211.93 436.41 429.36 60.796 181.88 46.401 397.38-39.961 568.74-142 281.74-447.11 386.55-611.41 659.16-117.82 195.48-69.923 330.92-17.084 539.79 33.104 153.05 49.515 218.28 46.88 268.23-42.354-151.84-167.9-407.01-140.06-644.75 41.151-351.14 447.04-545.75 540.39-669.41-259.53 188.55-469.45 170.24-695.69 403.41-98.088 101.12-109.12 186.82-163.51 302.69-160.27 308.84-175.76 342.98-440.38 651.29-275 291.88-617.5 522.31-1034.5 665.89-240.65 71.415-229.49 72.212-357.42 91.743l-6.1035 1.6162 1.2207-1.6748c145.16-15.233 542.12-149.99 823.25-323.64 257.66-159.15 440.17-342.99 636.82-568.26 13.896-15.932 79.338-86.226 86.387-106.1-37.395 32.371-325.5 373.2-669.99 581.2-89.249 51.068-96.903 56.304-108.23 58.14 24.59-18.706 53.33-33.066 79.087-50.406 170.33-125.89 203.58-141.93 475.26-409.99 147.16-145.2 294.62-288.33 403.09-466.02 12.065-19.76 27.193-40.546 35.889-61.933-64.805 57-185.96 304.86-606.5 544.8-205.39 117.17-423.9 195.31-750.49 174.37-48.527-3.113-162.85-17.191-195.69-27.905 10.196 0.3035 292.56 59.163 587.07-20.518 225.67-61.056 413.62-184.59 593.21-328.17 29.385-23.492 65.205-48.047 89.111-76.705-26.467 9.4116-66.4 65.589-264.59 159.54-261.58 123.98-537.66 205.95-829.67 190-280.2-15.313-639.19-148.42-543.92-410.51-40.642 17.038-96.594 116.69-35.146 262.32 73.794 174.92 247.91 315.75 420.89 384.66 212.5 84.646 409.47 52.798 613.1-0.5225-244.28 149.89-626.69 410.95-1187.5 493.04-291.56 42.675-327.48-2.748-372.61-9.1353l2.0973 2.4805c15.145 14.443 41.272 24.599 60.343 32.49 90.389 37.393 192.45 55.757 288.84 70.498 360.78 55.175 714.75 43.968 1052.1-104.22 253.19-111.23 335.17-224.97 368.62-255.01-15.933 79.637-292.84 483.96-529.02 640.95-14.395 9.5698-38.257 19.873-49.121 32.471 65.615-10.498 135.59-37.891 198.38-59.912 287.51-100.92 527.51-275.26 665.27-436.12 123.32-143.98 252.22-380.97 301.53-516.46 170.87-532.36 96.58-376.92 274.01-781.58-28.502 184.71-63.669 339.62-152.85 540.51-167.32 366.99-338.48 906.85-537.05 1100.6 52.106-23.197 331.41-214.32 493.18-426.78 185.77-244 249.68-517.41 249.24-822.92-4.0125-147.47-3.9187-158.64-7.0461-181.41-4.5679 21.96-10.908 236.96-46.191 394.46-43.161 192.64-116.52 310.61-215.57 451.42-8.2812 11.333-16.054 23.408-26.812 32.529 4.6018-13.473 103.05-144.06 167.39-329.89 36.253-104.74 68.663-277.46 68.877-310.8-51.355 170.23-152 338.01-184.98 371.96 4.1204-17.062 96.972-164.55 154.37-390.68 48.154-230.96 67.8-452.1 128.38-541.04-0.772 22.22-0.8057-0.8872-14.912 95.087-51.383 412.61 263.92 676.68 114.76 978.46-54.496 110.25-145.6 181.48-250.88 211.11 109.93 13.648 209.39-6.1426 298.15-74.814 151.74-117.39 253.01-364.26 179.39-689.14-61.654-272.08-169.88-428.21 73.628-717.94 65.728 24.463 138.55 10.537 203.33-10.859-20.684 25.547-47.958 59.238-44.521 94.033 2.1042 21.285 7.6953 35.982 25.391 49.21 62.238 46.508 267.74 63.609 337.1 64.555l-118.44 86.065c-32.075 21.46-67.378 39.668-97.779 63.335-156.34 121.69-102.69 378.87 110.97 324.65-106.72-39.176-147.67-99.231-102.6-216.99l1.0154-1.8752c0.415 30.684 0.6543 56.421 24.024 79.594 23.296 23.101 47.163 26.724 78.633 26.91-31.743-32.896-51.929-64.229-51.29-111.69 1.1016-81.476 86.381-127.51 191.46-204.6 66.518-48.373 52.357-41.319 81.396-40.537 74.952 1.9812 130.44 73.567 129.5 147.48 17.728 0 28.456-31.786 25.562-58.911-2.8416-26.636-17.578-49.111-21.48-74.077 8.2043 6.4661 10.328 13.24 16.822 24.532 54.036 91.496 59.313 88.926 70.625 113.96 28.467 63.047-12.862 96.586-62.968 144.18 17.426-2.783 33.056-5.5566 49.092-13.403 44.678-21.85 86.445-72.622 100.81-120.3 9.2573-30.726-13.188-42.148-25.562-69.595-12.48-27.7-17.783-58.486-33.554-84.775-27.647-46.089-86.792-43.901-133.42-52.021-22.236-3.8726-44.219-10.39-66.016-16.201 35.723-32.983 75.2-46.177 123.13-48.837 50.576-2.8081 87.349 2.3093 125.65 37.749 28.398 26.274 34.15 56.367 35.732 93.184l3.3306 1.323c10.112-9.4773 15.996-22.685 19.619-35.903 12.026-43.911-17.544-73.003-36.827-108.58 13.164 9.9314 21.406 22.544 32.363 34.57 90.964 99.882 117.01 116.62 77.344 233.11 34.214-23.824 57.534-56.167 68.852-96.411 24.67-87.713 4.333-78.257-23.843-115.76-26.124-34.789-28.221-83.81-94.731-106.76-54.748-18.893-234.66 3.7058-285.68 9.7021-27.406 3.2661-13.635 7.5068-53.862-3.8962-36.616-10.367-145.98-39.878-162.88-70.181 1.3994-8.3672-1.7771-3.2791 46.919-55.087 100.16-108.13 86.74-224.22 93.247-234.44 10.477-16.45 254.8-218.68 266.21-585.94 1.5674-50.478-2.6711-102.66-7.2168-152.94 38.12 10.205 74.873 17.944 114.29 21.079 100.13 7.9591 207.38-19.766 293.06-71.529 48.627-29.38 91.05-65.288 134.12-102.02-3.8667-1.3475-32.187 8.9204-39.516 10.166-63.925 10.892-144.83-10.598-173.84-33.93 161.53 1.2462 307.26-67.591 427.17-272.99-10.815 5.8887-20.352 14.497-30.743 21.191-113.15 72.884-256.1 94.586-310.96 82.085 15.568-13.272 274.2-16.842 398.31-323.09zm-2363 1885.7c-133.8 243.95-364.66 476.55-636.1 526.07-116 21.163-244.77-1.5769-342.55-69.482-90.591-62.915-130.66-143.69-149.43-249.92l-4.5708-64.14c10.828 15.945-5.1011 129.82 136.01 229.89 108.01 76.596 252.94 103.09 382.3 80.874 185.2-31.802 327.11-142.16 452.85-275.26 86.567-91.636 53.516-51.9 190.79-239.38l0.8098 2.7441c-7.9243 20.23-19.648 39.566-30.092 58.604zm415.62-1977.7c7.7969-17.38 32.117-27.757 50.684-19.542 7.9194 3.5057 34.175-4.9023 45.547-3.7795 12.182 1.2012 24.243 7.0071 35.459 11.67-12.504 1.6379-44.676-7.7312-64.253 8.1687l-1.1912 17.06 0.0337 0.5225c-2.0264 9.8975-7.4314 18.906-16.098 24.468-28.954 18.563-62.195-11.787-50.181-38.568zm-66.66 102.26c-9.7412-5.1854-20.279-8.2329-30.117-13.325l4.8728-0.2393c13.176 0.8308 76.648 26.372 102.31 54.004-8.1387-1.2577-9.6648-2.7079-77.065-40.44zm186.98-75.591c-28.241 33.332-53.66 74.986-121.89 60.249-33.409-7.0045-33.358-17.294-78.34-21.314 13.219-14.053 73.18 6.6249 75.342 7.1729 29.136 7.3833 65.483 1.3965 86.938-21.143 18.384-19.316 35.435-44.419 62.466-52.866-7.4221 10.068-16.461 18.393-24.512 27.9zm-1663.3-314.33c-46.449-101.9-35.996-260.55-8.3352-344.71 74.271 274.08 216.62 293.63 268.87 464.44l-152.17-113.87c14.4 32.321 80.841 125.48 105.62 152.45 16.392 17.836 34.346 32.329 52.485 48.085-93.631-34.9-201.31-63.445-266.47-206.39zm-193.06 61.113c147.59 103.05 203.53 84.992 416.66 266.04 19.658 16.699 47.104 35.103 61.831 55.625l-219.44-92.363c-30.489-13.506-70.453-37.991-79.355-40.454 22.232 21.364 18.697 16.04 219.84 154.51-260.98-13.332-342.39-119.15-399.54-343.36zm871.47 674.17c134.29 91.879 208.78 90.723 225.01 105.18l-2.842 3.0179c-48.661 18.728-175.73-8.4224-263.65-44.312-176.59-72.07-290.61-213.66-362.82-385.81 166.44 137.5 379.65 150.61 397.77 157.03 26.252 9.2949 59.27 47.102 141.88 83.984-100.58 9.6143-207.04-16.587-301.66-49.189l166.32 130.11zm299.08 292.29c-76.944 31.181-166.99 35.932-248.38 23.985-120.6-25.772-201.19-96.758-277.82-189.37 150.91 32.795 343.07 20.522 446.7-13.178 2.7146-0.3271 4.79 0.088 7.4707 0.5125l14.507 36.274c-68.57 41.812-139.08 63.999-219.34 67.925 133.43 46.341 135.11 55.501 276.86 73.853zm-109.24 214.83c78.013 17.212 156.03 24.16 235.65 15.933-302.36 144.89-449.85-21.364-591.83-166.31 103.45 34.74 173.13 51.008 326.96 44.902 60.874-2.4169 119.91-9.0868 178.04-28.018-82.386 59.703-154.35 96.403-283.91 79.61 44.512 21.684 86.753 41.797 135.08 53.887zm13.032-550.78c1.032 0.5016 89.332 43.226 91.89 45.073 22.617 16.328 82.606 102.86 200.35 146.77 73.883 27.559 80.188 12.853 108.34 21.035l-5.3074 3.701c-138.87 31.287-306.81-30.489-395.27-216.58zm-480.39 145.57c-39.127-4.0248-105.23-65.063-118.88-82.163 27.85 3.9211 104.45 58.322 118.88 82.163zm-638.45-411.25c113.72 69.407 277.96 56.415 484 193.38-6.2145-0.0159-134.82-19.2-226.44-44.2 59.132 33.038 104.13 63.367 242.34 94.228-34.262 13.051-127.93 27.024-219.24 4.9758-135.99-32.842-211.5-135.22-280.65-248.39zm62.061 358.32c169.7 63.115 358.81 79.853 538.48 74.062-54.653 52.656-150.9 60.527-221.89 68.584 83.476 13.344 165.41 2.778 248.99 5.8008-57.477 26.579-86.016 45.289-199.54 56.016l199.93 24.374c-13.992 10.315-91.914 36.315-147.06 35.796-187.59-1.7626-299.39-141.95-418.91-264.63zm207.63 412.51c141.55 2.6511 270.33-44.262 398.83-98.755l2.5834 0.1118 1.1228 2.3296c-23.42 22.176-37.551 37.018-64.082 51.763 22.737-0.187 32.096-14.331 89.727-10.171-44.35 59.35-90.747 93.715-164.51 106.32 76.435 16.963 152.11 15.371 228.63 0.1608-156.05 82.947-325.87 77.337-492.3-51.762zm203.72 276.09 320.51-169.77 2.4609 1.9094c-1.2963 17.702-33.894 99.818-147.52 141.83l319.33-37.686c-12.861 13.247-74.328 56.099-155.35 72.837-114.01 22.502-285.04 8.3802-339.43-9.1261zm393.63 203.4c-82.531 8.4956-155.88-3.1792-168.54-8.7012 240.64-120.55 110.71-102.87 325.57-212.43-7.7131 52.28-22.68 61.511-26.255 78.34 89.43-51.31 107.6-64.415 133.79-68.163-13.341 12.64-113.65 85.629-193.76 129.38 118.67-13.942 132.96-7.5571 247.92-60.092-44.853 55.782-154.37 124.74-318.73 141.66zm120.03 148.39c65.129-54.872 69-35.725 229.22-258.12 2.9639 7.7905 12.699 89.229-30.278 143.44-7.7883 9.824-18.643 16.924-26.968 26.411 4.0085-0.8201 2.2756-0.2341 6.2986-2.1091 75.273-35.055 74.146-3.2639 246.26-105.07-132.39 160.29-258.9 174.92-424.53 195.44zm704.79-95.18c-120.98 107.14-265.44 126.88-415.42 155.28 75.284-63.876 174.09-195.68 236.04-231.66 0.6687 43.418-7.9836 87.93-38.491 121.07-7.1238 7.7393-16.655 13.018-25.64 18.296 201.5-19.051 260.91-93.356 281.74-99.888-9.966 14.14-25.239 25.405-38.218 36.899zm130.83-93.115c-259.6 31.851-416.18-83.965-528.58-142.98-86.867-44.587-167.64-82.202-293.47-180.88 214.25 73.478 307.76 78.082 516.79 84.844-70.601 36.787-140.47 45.126-218.64 48.262 8.2029 6.8459 24.008 10.313 34.233 13.608 94.082 30.318 197.81 26.309 295.73 25.942-50.597 21.665-70.586 31.399-187.23 40.23 121.52 38.748 228.46 60.947 374.06 15.248-65.761 42.781-107.75 45.848-167.07 57.148 122.86 13.794 173.61 25.402 357.09-13.843-60.547 24.351-117.71 44.424-182.92 52.422zm444.03-213.05c-50.879 45.996-123.7 78.765-190.65 91.567-186.04 35.567-378.19-40.595-530.25-143.36-165.54-111.88-221.94-187.59-295.11-323.91-43.105-80.298-86.318-169.41-103.75-259.47 33.828 32.234 154.1 256.62 428.23 247.35 33.579-1.1328 66.357-6.7924 99.56-11.44-43.462 29.487-86.973 47.998-138.9 57.022-124.12 21.564-191.01-12.12-275.6-72.134 23.653 34.501 107.19 89.339 147.64 108.61 85.156 40.571 181.34 60.322 274.7 40.151 31.045-6.7037 61.309-18.705 91.211-29.296-60.933 80.537-149.91 110.45-249.66 108.17-18.486-0.42-36.529-3.7845-54.912-5.3123 10.922 9.7065 25.664 15.605 38.804 21.792 92.686 43.615 212.13 41.631 272.48 18.467 46.676-17.916 44.305-29.784 103.65-39.702-63.389 150.19-251.77 103.52-263.7 104.38 20.402 18.215 175.22 89.975 326.19 28.681 26.002-10.562 67.227-39.136 94.834-35.64 1.6892 9.0625-3.7695 17.388-8.2227 25.332-30.259 53.974-93.003 79.038-149.55 94.253 19.898 7.2917 105.02 20.34 165.03 15.903 99.813-7.3691 204.61-60.009 275.94-121.22 9.8975-8.4961 18.174-18.457 28.897-25.957-26.099 38.076-52.383 74.594-86.84 105.75zm-89.761-150.9c99.117 9.0264 199.6-84.898 221.42-187.83 4.3359-20.474 5.4832-41.694 7.3098-62.52 10.083 30.742 10.288 64.39 10.566 96.382-6.2676 66.763-25.903 122.8-79.326 165.95-58.069 46.906-145.49 60.891-217.72 40.953-173.19-47.77-270.7-165.71-585.93-445.92-85.673-83.121-72.458-73.038-82.798-80-8.2585-5.5602 11.807 3.6418-210.46-77.432-236.86-95.62-525.97-281.04-653.47-506.02-95.126-167.86-53.039-275.17-31.562-352.04 6.4274 406.3 614.86 687.23 942.5 857.29 496.43 281.88 522.67 536.88 679.47 551.18zm-19.556-290.73c-0.8833 78.501-24.013 146.22-80.713 201.64-23.104-23.323 3.1292 6.5393-148.69-172.99 140.22-78.9 137.52-187.13 76.728-344.85-17.759-46.06-35.362-85.644-61.333-127.87 31.896 31.012 50.263 54.649 80.669 94.434 79.121 103.51 134.83 216.67 133.34 349.64zm-898.46 2536.9c0.864-3.0122 2.9731-4.8677 4.9563-7.2412-1.5283 3.2324-2.071 5.0102-4.9563 7.2412zm188.91-1023.6c-81.808 195.38-44.679 93.23-166.4 464.78-77.954 211.95-240.91 480.66-443.96 678.12-120.79 109.71-164.79 151.64-176.47 154.22 5.9717-9.7124 21.026-20.04 29.878-27.881 283.11-259.19 393.23-454.19 531.72-804.31 31.684-77.27 70.43-159.78 86.074-241.87-34.033 46.431-184.64 443.07-515.79 707.33-27.658 22.068-50.878 44.002-80.757 56.446 13.7-19.104-3.972 5.5859 119.58-119.8 180.05-195.75 258-379.63 574.56-846.12l63.662-106.99c13.96-25.757 27.08-61.494 45.649-83.804-16.885 58.926-42.681 114.13-67.749 169.86zm413.57 679.58c-3.2522 57.1-31.737 134.57-47.983 153.47 50.27-171.72 15.487-252.36-48.506-429.21-138.48-382.69-194.5-719.24 139.29-949.08 19.121-13.168 40.518-29.634 62.51-37.398-29.744 35.385-164.55 145.03-227.71 298.16-135.61 328.8 136.59 714.52 122.4 964.05zm1754.2-3001.1c-45.27 106.91-57.093 114.07-175.25 223.24-14.282 13.199-31.484 35.62-48.223 44.873l-1.7632 0.6543c15.351-25.463 50.969-42.28 68.931-109.91-28.945 37.939-53.652 66.254-96.558 88.677 40.376-41.699 81.655-81.02 108.42-133.42 4.5898-8.9845 18.486-45.601 26.201-48.541 42.535-14.297 84.795-35.346 118.24-65.566zm-96.777-343.62c3.3584 47.978 11.455 70.038-0.1509 167.35-13.321 111.71-85.19 221.56-172.86 290.29l86.806-192.34 22.295-96.411c-11.314 13.55-19.624 29.478-30.776 43.277l-103.51 120.13c68.651-187.41 121.94-196.06 198.19-332.3zm-254.84-217.47c105.98 178.18 98.841 271.58 36.792 476.52-10.046-91.071 13.52-77.586-14.473-256.28-6.1724 5.5046-8.7554 15.765-55.957 152.27-10.264-176.63 28.682-240.78 33.638-372.51zm-271.69-188.57c18.716 18.432 38.516 36.091 55.591 56.086 156.62 183.39 129.4 333.88 134.16 435.88-15.158-34.794-25.416-114.56-94.438-281.92 3.6494 47.148 13.91 218.16 3.8423 262.33-5.1704-32.202-10.712-63.057-21.514-93.931-6.1421-17.563-27.353-50.85-26.982-67.92 2.2602-102.95-4.4722-217.02-50.654-310.53zm97.06 725.69-2.9888 0.8056-2.4414-6.9236c-18.918-27.243-13.613-12.715 4.6641-64.033l22.973-72.681c1.1777 48.086-5.3809 97.505-22.207 142.83zm-367.7 300c21.032-83.188 52.082-119.13 145.81-293.66 61.274-123.02 94.346-270.85 58.311-406.14-8.7271-32.768-25.766-61.482-35.762-93.221 12.71 6.1387 24.067 17.234 34.634 26.621 125.54 111.52 171.72 303.28 65.176 522.23-47.897 98.42-183.54 284.85-210.9 314.06 30.005-16.611 56.89-37.451 86.055-55.283 106.49-65.1 193.9-110.29 199.74-257-26.108 45.111-43.881 99.84-128.38 142.04 90.927-97.803 92.559-129.98 124.62-202.13 9.2285 43.29 27.192 83.832 36.89 127.01 31.465 140.09 27.188 313.79-52.978 437.21-65.385 100.67-181.95 139.28-192.71 132.84-4.1257-2.4709-5.9617-5.8599-8.6135-9.7512 4.4338-7.0756 20.069-10.469 28.106-13.462 57.232-24.455 68.036-28.524 74.004-33.912-54.411 5.2035-76.029 6.7963-127.41-9.502-2.9299-0.9275-10.718-2.4169-12.993-4.17-8.7747-6.7478-18.135-21.894-25.473-30.757 50.859 6.0256 106.12 6.4702 155.6-8.1588 34.961-10.337 82.715-36.607 100.71-69.556-11.728 5.3807-23.13 12.358-35.513 16.03-66.518 19.707-135.86 6.3528-203.29 0.6888-63.819-5.3655-65.777 4.9502-73.452 2.6511l0.1025-3.6621c1.7141-1.7626 2.9883-4.0865 5.1321-5.2834 21.329-11.878 317 13.253 360.91-176.5-16.279 14.883-32.559 31.206-50.82 43.613-96.125 65.299-218.05 47.174-276.29 76.064-28.467 14.112-38.037 34.19-47.891 62.984l-26.196-25.777c13.569-68.364 15.625-137.94 32.861-206.11zm-144.35 1707.6c37.63 10.518 74.413 23.677 112.73 24.97l-0.9763 1.885c-112.73 73.16-89.312 61.551-128.23 66.646-104.82 15.359-257.81-6.7969-270.37-22.779-1.0933-21.122 9.8831-46.308 18.516-65.395 24.579-54.348 98.317-176.27 105.18-185.54l3.0518-0.0879c5.1272 4.9368 2.197 25.396 2.2266 33.765 0.4 110.38 11.845 104.35 157.87 146.53zm278.89-875.76c-4.3184 37.285-13.25 87.498-29.107 121.49-6.8848-69.238-25.557-130.3-59.79-190.84 31.866 210.98 10.95 295.57-63.315 433.99 8.2273-71.738 7.9246-140.5-4.6782-211.72-22.219 102.94-42.099 217.24-99.76 306.13-47.478 73.188-132.79 136.97-148.91 142.29 24.542-28.646 50.195-47.605 72.471-74.19 78.068-93.18 116.38-229.15 114.96-311.64-37.367 122-75.988 220.7-201.27 319.76-30.215 23.89-59.766 48.256-91.148 62.446 117.06-110.66 184.23-197.47 228.53-383 29.578-123.88 24.97-172.02 24.096-251.91 79.632 115.08 71.248 147.2 88.887 188.34 7.7349-45.874 14.346-91.328 11.602-137.98-4.4021-74.794-36.269-172.93-104.96-268.62 85.577 43.071 161.52 91.484 208.53 178.26-71.562-260.81-197.26-264.78-293.48-375.63 75.337 23.887 144.01 44.912 208.52 92.598-68.047-113.86-137.72-141.22-207.76-172.13-117.01-48.04-70.658-23.338-109.28-59.585-58.703-50.867-110.32-98.352-221.83-160.57 49.525 11.256 200.74 71.756 336.9 161.51-22.444-34.696-105.52-122.65-212.38-196.54 331.31 127.89 591.44 457.31 553.18 787.54zm35.547-359.14c-4.1794-9.3851-10.054-19.698-12.198-29.717 132.43-40.232 172.05-53.331 263.52-130.7-72.716 24.25-69.844 22.555-119.49 23.35 10.435-8.6234 21.113-17.871 33.193-24.067 27.549-14.127 101.29-25.433 158.46-101.68-41.236 12.739-77.559 21.963-120.86 23.632l84.766-48.296c68.17-52.273 77.942-86.725 98.56-158.03-43.255 63.862-69.668 77.111-145.06 103.29 0.7769-5.6344 7.8467-20.014 11.763-24.126 8.7744-9.2136 30.078-15.474 41.606-22.71 102.02-64.062 94.812-146.54 95.977-181.26-4.9482 5.9431-36.376 96.784-134.45 123.29 34.022-43.42 155.61-89.622 80.552-301.53 1.479 88.124-8.5151 150.99-85.488 194.21 12.44-36.377 109.33-145.22 17.427-312.26-0.6021 42.897 9.3652 59.664-34.814 163.17-22.57-52.49-10.49-6.0731-1.7246-96.294 2.2075-22.763-1.4937-46.65-2.8657-69.438-7.4429-123.95 1.3896-39.47 6.7139-155.19 48.247 116.95 136.02 187.01 175.14 368.8 58.973 274.15-55.825 543.47-334.93 637-24.644 8.2567-50.406 13.198-75.801 18.525zm456.94 19.492c-101.14 60.669-226.59 107.12-345.71 76.792-23.657-6.0256-61.045-16.938-78.55-33.858 12.329 1.7136 24.214 8.5348 36.923 10.844l1.3628-2.4703c-14.87-12.36-23.146-13.229-38.658-27.852 40.347 9.5803 78.228 14.009 119.65 17.042l-61.744-32.256c78.166 19.415 120.21 58.82 246.44 8.472-58.97-3.1937-118.87-23.52-172.53-47.72l118.02 6.1425c-18.862-16.645-40.996-27.681-62.607-40.161 80.4 18.745 153.94 59.521 237.4 65.024zm182.74-229.45 4.356 0.1859c-59.832 91.316-232.61 126.66-336.75 83.564 5.1274-3.6671 22.573-3.9208 29.478-4.8539l97.045-19.604-70.703-8.3007c23.344-8.9744 154.25-8.3406 276.58-50.991zm-221.61-85.629c52.864-32.976 57.586-20.946 176.18-97.788 6.7139-4.351 24.825-13.882 28.55-20.655-28.784 6.8313-58.232 10.132-86.748 17.983-19.956 5.4932-44.424 18.609-64.126 21.274 17.217-20.464 142.79-60.932 296.04-135.95-68.886 142.69-206.88 220.96-349.9 215.13z"/> <path d="m3933.5 1252.1c77.741-113.11 155.77-253.59 160.58-390.25l-1.8064-1.2207c-23.438 119.45-42.384 157.47-94.834 252.86-109.66 197.01-106.35 182.15-104.42 186.6 16.988-8.8375 29.795-32.412 40.488-47.978z"/> <path d="m4076.1 1311.5c88.714-59.636 140.48-163.94 136.25-189.71-22.392 24.052-41.25 50.107-68.32 69.516-113.1 81.064-206.88 59.971-283.35 214.42 51.856-32.825 143.38-45.815 215.41-94.229z"/> <path d="m2199.4 3506c3.2227-0.7517 4.8049-2.915 7.1924-5.1021-2.739 1.5279-5.6054 2.334-7.1924 5.1021z"/> <path d="m2270.1 3586.3c2.5142-1.7583 3.6226-4.4534 5.1948-7.041-2.0507 2.29-4.2334 4.0815-5.1948 7.041z"/> <polygon points="1189.3 5e3 1191.7 5e3 1191.1 4997.6"/> </svg>