<?xml version='1.0' encoding='utf-8'?>
<svg xmlns="http://www.w3.org/2000/svg" enable-background="new 0 0 4694.8955 5000" version="1.1" viewBox="0 0 4694.9 5e3"> <path d="m4467.2 950.43c-25.226-22.07-59.461-38.063-81.62-62.077-7.8677-8.5276-13.044-20.252-18.316-30.517 108.52-28.929 228.58-20.828 327.65 33.307-22.908-52.914-46.084-96.411-92.873-132.72-52.814-40.986-119.28-56.676-185.04-48.63 116.04-93.397 33.939-187.75 27.777-259.19-6.9639-80.741 52.328-130.39 99.161-185.96-66.475 15.447-142.17 23.894-204.18 146.45-62.143-91.961-81.551-236.73-21.558-339.24-118.53 41.146-204.87 138.05-204.12 262.52-79.495-98.52-154.11-203.07-156.14-334.38-59.822 70.071-91.493 173.52-72.68 281.27 3.832 21.933 10.965 43.697 17.304 65.007-41.036-12.254-85.581-36.222-119.74-62.009-73.206-55.264-104.45-125.25-116.87-213.79-77.362 122.7-54.379 237.33 26.477 359.83-146.34-2.8371-263.77-46.245-340.19-180.09-46.189 247.93 107.07 463.99 278.07 459.2 52.73-1.4842 113.49-25.147 163.62-41.795-17.636 12.682-35.883 24.05-52.382 38.291-48.964 42.256-246.1 262.69-334.49 395.99-223.71 337.42-199.34 632.65-204.27 651.11-2.1089 7.9036-0.2585 4.4781-129.6 164.11-148.19 168.4-295.23 287.72-539.53 373.14-66.003 23.086-132.41 42.808-202.46 47.369-49.817-74.963-84.329-163.4-101.8-251.51-59.138-298.23 102.58-523.64 151.86-641.21 89.787-214.22 95.188-420.9 62.147-550.87-14.087 27.641-17.191 304.55-347.29 617.11 25.426-153.5 162.43-452.62-104.79-844.23-111.89-163.97-270.63-264.62-465.53-300.77l-131.79-12.658c165.23 55.391 346.72 108.66 454 323.84 68.887 138.17 88.117 333.33 74.178 452.88-4.4869 38.504-14.201 75.702-23.235 113.31-64.405-299.5-370.64-610.28-739.77-644.38-330.1-30.474-730.28 191.53-886.88 408.1 95.59-52.224 211.36-96.744 319.62-112.34 206.44-29.75 466.71 31.292 639.91 172.05 133.04 108.13 225.18 259.34 312.16 397.83 10.358 16.973 24.377 34.011 28.378 48.864-2.6257-2.1699 4.1042 3.9604-55.256-50.924-185.53-161.27-444.4-263.54-691.09-242.55-478.15 40.69-827.89 506.43-765.2 990.16 14.411-39.959 25.474-80.612 41.375-120.16 175.19-435.69 516.05-556.39 746.16-472.41 95.056 34.692 184.9 108.47 253.04 182.5 10.062 10.936 23.206 22.843 31.033 35.377-205.98-94.582-400.24-91.622-590.06-21.528-349.32 129-461.63 535.12-372.7 832.11 6.1032 20.381 11.386 44.987 20.364 63.894l2.3606 3.7471c-17.741-568.31 319.52-776.45 636.56-567.53-137.87 34.136-253.07 122.32-326.21 243.8-115.07 191.12-141.62 585.45-502.73 538.01 67.019 47.925 144.45 67.199 226.09 53.941 101.12-16.42 254.11-101.78 355-242.49 127.92-186.7 231.96-364.48 504.38-351.22-157.52 45.954-299.62 178.29-378.31 320.52-96.439 174.31-66.502 337.02-76.239 463.03-10.335 133.83-83.036 277.46-210.95 314.48-97.32 28.17-190.4-2.6306-278.8-42.376 83.969 84.663 176.73 142.47 299.32 142.81 101.51 0.293 191.65-39.65 262.93-111.33 94.466-94.987 130.64-216.54 183.21-335.29 132.7-299.73 306.09-420.17 521.97-467.3 141.29-30.834 204.93-23.648 263.07-20.49-159.64 27.226-305.66 93.935-401.01 228.81-345.27 488.37 89.61 1058.3 666.59 1124.4 52.695 6.031 104.61 4.9834 157.4 6.9146-214.7-69.538-424.77-186.69-530.64-395.86-109.55-216.44-23.642-466.03 139.77-624.53 15.536-15.071 38.811-37.068 59.486-43.384 1.7919-2.8145 4.7852-3.6179 7.6941-5.157-2.6013 2.2686-4.254 4.3982-7.6941 5.157-13.512 11.506-28.338 21.593-40.495 34.593-54.944 58.746-78.229 142.71-84.493 220.88-20.129 251.3 177.08 538.28 536.56 639.54 25.171 7.0881 53.946 16.008 79.892 18.242l2.3281-0.1143c-32.751-23.821-71.34-40.579-104.61-64.678-415.75-301.12-359.4-792.98 35.144-781.29l0.4614 0.6504c-262.47 34.221-270.84 300.61-76.388 443.15 64.499 47.28 144.17 72.263 220.17 93.726l2.2139-157.18c45.096 40.648 88.722 73.107 140.93 104.32-136.01 102.49-124.1 294.75-40.162 439.79 30.986 49.082 27.165 41.5 27.286 42.55 0.561 5.1821-10.975 28.552-13.213 35.794-17.468 56.473-34.285 111.22-60.221 164.73-57.68 118.98-120.68 118.08-154.73 137.89 29.644 3.9766 56.994 11.78 84.488 23.568-41.121 45.305-39.534 46.034-111.06 73.583-74.613 28.714-118.41 58.912-177.39 110.35 93.742-33.046 193.56-61.444 319.13-1.1216 104.99 50.44 187.44 150.52 202.5 294.56 54.408-130.54 36.837-186.85-10.94-260.59 30.359 1.2285 153.79 74.203 223.53 258.15-12.596-154.64-88.21-338.98-242.48-355.94 33.993-13.315 174.2 13.712 244.43 87.621 11.566 12.171 20.56 26.73 29.504 40.857l-0.1187-2.457c-10.226-63.437-52.572-127.38-105.44-162.91-77.062-51.787-173.8-53.315-261.79-36.389l160.74-322.75c132.05-24.699 218.4-294.15 247.91-331.22-39.181 147.84-57.508 214.46 44.832 365.54 54.827 80.942 142.06 105.18 214.37 88.146 68.455-16.116 129.06-89.059 169.44-146.62 112.98-161.1 149.91-313.51 158.22-322.34 9.0854-9.6816 23.8 3.5449 168.86-48.198 483.63-172.46 858.97-594.53 940.43-1046.3 59.137-327.95-61.829-711.55-215.28-912.83-194.85-232.1-201.48-218.8-258.33-300.49 54.77 44.778 112.09 92.368 200.95 132.22-5.1777-19.284-65.178-48.027-131.86-189.57 22.193-4.8297 40.628-11.441 60.557-22.416l-16.723-18.957 65.438-69.81c40.062 49.782 83.54 103.62 146.73 124.24 176.8 57.675 307.15-222.39 82.597-418.86zm-28.676-202.32c68.246-4.9272 136.31 19.77 179.34 73.305-180.85-31.153-258.63 0.4831-364.31 59.704 33.325-79.009 61.03-119.25 184.98-133.01zm-37.998-239.6c19.383 47.756 42.013 87.446 28.487 140.59-1.5483 4.1997-0.4365 2.0549-3.6582 6.2545-1.499-66.748-42.832-125.01-40.425-192.4 5.8174 15.045 9.4859 30.498 15.596 45.553zm-190.53-277.59c3.4868 157.41 73.156 190.96 106.66 248.79 15.963 27.559 27.053 62.231 37.109 92.421l-14.574-20.496c-58.47-81.231-228.37-83.992-129.2-320.71zm-32.359 237.25c-191.75-46.086-226.61-126.04-227.5-241.68 48.565 95.426 134.1 187.98 227.5 241.68zm-499.74-189.22c106.77 138.58 315.51 153.87 353.71 170.24l-5.8274 2.0951c-80.319 2.1091-153.27 19.11-229.38-19.369-65.606-33.172-96.55-85.173-118.51-152.97zm-67.175 247.45c-61.313-10.052-147.27-53.14-171.7-86.995 20.95 2.7089 39.453 28.744 120.32 46.64 95.791 21.2 197.79 2.3925 294.93 2.6657l-24.263 12.708c-63.71 29.082-150.63 36.24-219.29 24.982zm-39.392 1575.2c-176.79-269.95-202.31-268.37-81.495-458 21.086 54.934 53.341 106.74 70.505 162.69 18.589 60.603 8.9651 125.44 7.9468 187.75l3.0432 107.56zm-181.84-626.21c13.576-29.996 36.241-57.486 55.386-84.25l3.2209 0.4667c13.793 224.17 35.152 103.46-40.047 342.03l-2.6604-6.8201c-21.863-109.04-46.089-184.71-15.899-251.43zm-69.919 461.76-2.229 3.629-2.0447 0.0938c-32.418-229.18-60.722-280.19 20.426-373.52l3.2761 1.3801c51.708 233.01 55.577 193.38-19.428 368.42zm364.94-332.17c-3.4841 10.374-6.5469 25.96-13.64 34.314-37.809-94.42-95.932-135.52 1.5588-243.85 32.904 108.69 45.656 109.61 12.081 209.54zm8.3642-334.93c2.1243-36.945 20.262-64.673 45.94-89.879 2.5662-0.4813 4.8401-0.1781 7.4312 0 2.8789 24.184-34.662 67.234-49.062 86.866l-4.3089 3.0131zm10.866 122.02c-4.9492-49.444 16.356-97.588 47.617-134.97l5.281 0.2584c18.758 33.868 19.865 91.383 12.345 128.8-4.199 20.908-12.072 40.35-20.078 60.037-2.7998 6.875-4.8054 16.38-11.025 20.49-16.143-21.622-31.477-48.007-34.141-74.62zm34.672-452.62c-10.43 26.649 12.999 34.374-104.4 72.119 48.643-61.492 109.28-105.51 122.32-108.06l2.3777-0.1685c-7.7087 11.67-15.174 23.022-20.297 36.106zm-103.64 152.37c18.843-40.812 51.802-60.29 92.416-75.464l5.4495-0.3875c3.1375 9.1877-1.5383 24.382-3.4841 33.893-1.9902 9.7533-3.7622 28.11-8.22 35.952-3.8455 6.766-44.111 50.891-97.221 85.561l-5.9265 1.34c-4.0604-21.21 7.8573-61.124 16.986-80.894zm12.375 104.25c9.7385-11.114 23.657-20.163 35.417-29.112-1.9565 21.538-10.265 43.369-13.7 65.031-10.608 66.918 7.0547 73.432-80.379 184.78-7.5659-94.891 25.095-182.4 58.662-220.7zm-59.71-33.842c-9.5254 32.651-70.62 86.534-95.265 113.38-2.1089 0.2131-0.8489 0.3076-3.6282-1.137 12.884-88.346 8.5852-144.63 121.99-208.48l4.2935 1.3546c-15.279 31.55-17.835 62.112-27.395 94.878zm-82.2 160.58c17.611-30.458 43.795-56.314 67.02-82.508-28.35 129.4-10.031 159.48-13.412 182.19-1.8818 12.588-22.179 35.6-29.986 47.335-11.436 17.19-21.895 34.474-31.342 52.835l-2.8643-3.38c-9.6745-63.476-27.752-130.17 10.583-196.47zm79.108 166.05c2.1787 16.758 4.4224 35.059 10.126 50.959 17.318 48.288 47.95 91.571 54.378 143.46 4.0503 32.701-9.208 67.736-20.362 97.885-3.8716 10.464-7.2817 23.39-14.176 32.23l-4.3835-5.3112c-72.035-125.92-111.63-200.77-25.583-319.22zm33.173 391.89c66.304 125.74 110.23 133.47 163.36 207.29 46.396 64.454 31.788 143.03 20.019 216.42l-4.0107 3.2908c-85.787-170.44-112.83-166.43-157.82-229.41-43.626-61.069-32.309-128.37-21.547-197.59zm88.618 57.143c-47.335-74.849-30.879-165.96-12.374-247.3 22.292 39.909 53.242 70.798 82.309 105.49 89.949 107.37 71.304 113.54 59.293 317.27l-3.1719-3.043c-31.183-67.731-87.298-111.13-126.06-172.42zm134.3-114.33-2.0349-0.5114c-75.731-128.25-148.3-142.14-52.815-306.17 55.747 134.11 91.293 167.25 54.85 306.68zm-18.758-306.9c-23.062-66.601 5.4146-95.169 36.956-159.48 56.73 112.32 26.898 204.43 20.992 272.2-4.8694-2.8789-6.6018-10.047-8.949-15.184-17.354-32.006-37.035-62.956-48.998-97.538zm60.554 371.35c32.637 53.594 73.752 96.938 115.34 143.41 88.78 99.193 82.285 154.02 90.37 372.31l-4.437-4.9639c-98.965-182.89-169.34-207.78-212.62-241.88-7.17-102.26 0.0229-138.83 11.347-268.87zm198.4 194.85 0.0945 4.4922-2.8242 0.1294c-48.083-98.607-168.38-158.73-182.24-317.62-2.5815-29.629-0.6206-60.136 0.1882-89.84 46.004 99.812 175.91 149.79 193.44 266.35 6.8642 49.996-1.0777 83.62-8.6572 136.49zm-36.498-268.94c-23.719-38.854-95.114-108.63-113.81-188.8-6.0903-26.124-6.4026-51.841-6.1594-78.542 22.109 26.134 50.834 43.92 73.766 68.624 54.354 58.568 48.656 124.48 46.204 198.72zm-117.59-422.41c44.379 69.373 59.651 51.076 113.79 232.55-134.3-122.98-116.93-100.28-113.79-232.55zm-147.03-300.64c-7.9915-73.682 19.522-130.64 64.654-186.2 1.05 0.5035 0.3022 0.1953 3.4944 1.3552-14.946 40.695-23.777 54.506-22.298 117.71 2.6958 115.24 61.159 198.88 115.91 295.78-88.782-59.87-150.14-121.59-161.76-228.64zm19.136-317.39c-64.135 53.149-174.64 145.28-178.49 147.09 7.9285-18.88 102.42-115.55 178.49-147.09zm-148.09 158.49 3.6934 0.293 1.052 3.4299c-5.8867 15.05-15.318 28.953-24.129 42.435-38.525 58.932-43.218 52.43-104.24 89.278l-4.5017 0.5363c11.631-68.582 66.578-108.85 128.13-135.97zm-145.34 103.44c-22.105 51.086-18.392 53.914-66.276 96.148 4.4729-32.558 44.446-73.28 66.276-96.148zm-128.59 200.51c24.084-41.204 66.703-73.633 105.5-100.43l1.2461 4.9637c-11.169 34.519-19.359 66.793-22.928 102.92-9.1516 92.787 15.321 9.6375-65.601 140.51 4.5762-44.55 15.67-88.336 28.08-131.25l27.494-65.502c-9.0337 6.5004-69.555 60.299-87.893 82.547 4.229-11.267 8.0163-23.344 14.107-33.763zm-96.793 210.96c20.325-56.558 79.55-113.43 86.89-116.48-22.787 119.98-14.098 121.94-26.218 157.52-16.178 47.469-56.582 78.988-83.55 120.48 3.3806-53.748 4.4868-110.35 22.878-161.52zm-75.112 563.32c17.641-56.12 30.086-114.76 43.915-171.96 21.09 248.99-92.653 587.82-334.72 685.91-126.47 51.246-256.41 49.906-381.67-3.1421-15.1-5.9614-30.78-13.263-44.396-22.128 149.15 28.859 307.89-3.1375 437.29-82.072 141.25-86.161 231.37-253.27 279.58-406.61zm-573.19 404.93c152.44-45.997 250.3-116.4 359.23-243.5 43.845-51.156 84.161-105.66 116.2-165l1.0674 2.7902c-19.638 78.52-128.12 261.51-243.76 348.24-122.62 91.969-277.55 109.05-425.55 88.762-1.3152-0.1487-5.0627-2.5461-6.2986-3.2158 67.815-4.5074 133.53-8.2801 199.11-28.071zm-300.03 56.742c148.01 135.24 462.07 258.47 686.34 137.32 164.83-89.04 275.74-281.79 323.26-457.7 44.886-196.97 35.92-173.43 44.664-202.59 22.492 56.649 31.809 208.42-8.6514 338.88-97.857 315.54-399.66 553.56-742.48 444.8-122.43-38.842-224.07-140.72-300.42-240.23-12.846-16.748-29.743-33.799-39.408-52.447 12.335 4.5563 26.467 22.62 36.697 31.962zm40.316 392.62c187.95 167.44 517.45 256.75 716.37 244.14 275.21-17.438 508.7-172.5 553.4-451.75 16.202-101.21 8.4338-202.71 1.7971-304.32-5.9565 12.4-4.8049 33.059-5.9661 47.002-53.487 643.19-950.7 794.56-1350.6 219.39-18.803-27.042-38.22-50.601-48.858-79.713 18.872 18.362 89.589 122.78 208.05 199.95 243.81 158.82 678.81 175.64 921.63-23.965 115.24-94.729 183.04-250.01 208.97-393.91 7.8281-43.453 10.325-87.501 14.672-131.38 174.33 135.85 223.29 363.38 159.24 572.21-193.41 630.6-1202.8 582.22-1499.4 19.453-42.637-82.158-77.227-190.27-74.288-206.41 43.656 110.79 105.35 209.4 195.03 289.29zm-270.22-1157c36.681-76.699 12.963 3.5555 44.52-175.53 3.0732 26.706 6.5251 46.843 5.5396 72.873 13.328-14.833 36.941-81.878 66.306-128.6l-16.361 55.659c39.5-50.096 106.06-160.5 135.19-184.22 0.9082-3.0775 3.0679-4.9441 5.1182-7.3563-1.5837 3.3806-2.0649 5.0729-5.1182 7.3563-10.086 23.15-53.565 71.856-76.492 119.92 31.736-19.207 83.106-74.097 108.67-82.647-26.378 32.85-152.38 118.5-200.29 225.37 33.019-25.91 65.914-43.314 105.13-57.971-145.82 110.49-124.52 87.296-145.35 137.23-15.978 38.291-31.113 77.032-41.606 117.2 32.404-32.632 74.928-64.315 117.17-83.128-36.429 36.102-67.478 75.603-99.519 115.47-34.461 42.894-37.287 26.424-37.769 133.79-0.1736 40.023-1.241 87.01 8.7856 125.83 28.305-59.849 82.406-124.03 94.972-132.72-4.7449 19.184-84.98 189.02-86.435 197.07-2.3625 13.025 50.11 122.83 60.091 145.46 3.4988-32.222 29.238-94.89 31.222-98.512-0.5757 53.698-7.3262 109.71 3.043 162.85 3.1472 16.127 10.072 30.87 14.246 46.69-14.459-13.114-25.36-34.742-37.988-50.148-37.719-46.034-82.94-88.708-113.34-140.22 28.298 21.906 50.978 49.102 81.505 68.361-53.612-138.1-42.244-117.69-52.293-137.82-23.972-47.995-74.59-75.521-112.65-253.44l88.534 151.76c1.1099-119.28-0.0557-84.664 4.6913-155.46 0.4116-5.0781 2.1938-13.804 0.1831-18.376-40.233-91.428-44.756-86.113-38.806-229.62l50.899 172.71c7.1869-41.816 19.914-81.56 38.21-119.83zm-739.68-631.65c94.575 2.6907 171.83 25.727 253.71 72.992-105.6-164.96-245.18-269.37-442.76-252.68-31.902 2.6957-62.777 12.524-94.302 16.192 3.569-3.1177 2.6057-3.0085 6.1351-4.1997 74.442-25.161 140.8-39.02 219.46-39.616-32.865-19.319-65.413-39.725-100.36-55.128-144.76-63.794-314.08-71.563-467.96-40.484-39.07 7.8874-75.583 21.458-113.86 31.217 14.435-13.05 51.46-21.622 70.312-27.599 156.9-49.751 323.01-58.781 479.79-3.6979 51.737 18.172 99.265 42.743 147.73 68.019-111.23-140.1-148.46-133.46-186.47-163.03 25.852 5.47 54.309 19.687 77.52 31.942 178.38 94.17 208.77 196.49 233.32 224.87 25.559 29.557 95.742 55.613 172.09 169.07-65.831-259.57-101.87-251.83-113.1-284.32 14.028 11.01 25.003 26.909 35.844 40.986 108.19 140.57 145.44 300.22 233 526.63 6.3887 16.956 9.5504 36.086 16.787 52.343 21.176-65.09 28.452-131.12 22.352-199.46 31.234 83.467 10.386 273.86 11.952 363.13 0.9237 52.338 9.4213 104.54 15.204 156.48l58.344-308.35-5.2964 141.31c106.71-275.08 83.068-203.31 80.761-247.39-4.6034-133.9-8.2377-115.92-7.694-156.85l27.534 114.17c35.83-235.09 33.977-183.69 34.95-371.75-0.526-19.696-3.2614-40.917-1.8014-60.444 42.784 193.7-3.8728 372.6-7.7438 421.92 37.282-40.4 68.674-75.459 95.036-124.01-23.688 118.02-96.537 175.22-121.11 220.56-13.253 24.452-16.023 35.357-63.055 168.31 96.157-110.01 75.068-84.478 104.39-123.67 3.2167-4.6862 7.0288-12.459 11.203-15.939-1.3647 19.041-8.5724 39.561-15.164 57.47-51.698 140.47-164.57 187.15-179.75 401.71-2.9536 41.731 6.6465 80.349 8.8749 121.38 2.09 2.646 1.9656 6.6171 2.512 9.918-2.224-3.3258-2.0651-6.0209-2.512-9.918-13.144-33.769-15.08-77.008-22.426-112.93-12.885-63.012-52.362-175.8-97.27-255.97-13.249-23.648-35.804-49.663-44.114-74.948 26.596 23.956 132.36 202.61 138.49 211.04-20.482-81.971-3.8307-144.72-99.687-304.36-61.885-103.06-77.959-102.77-125.33-157.65 13.45 3.7849 8.2389 2.4414 141.6 108.91l0.2184-1.4797c-2.457-15.05-10.246-32.592-15.036-47.31-80.334-246.72-365.05-281.09-372.33-287.38zm-378.41 517.85c64.157-42.292 129.38-43.359 203.34-39.72-11.313-12.236-30.165-22.72-44.183-31.967-235.69-155.44-547.08-141.09-763.42 10.543-37.89 26.556-69.432 58.33-104.7 87.789 14.749-33.508 192.71-191.73 415.48-224.42 161.13-23.642 336.2 2.7296 469.38 101.77-48.041-106.86-83.081-135.19-92.649-148.73 76.363 50.278 116.85 130.96 181.76 192.18 32.93 31.054 74.184 55.714 109.58 84.364 50.929 41.219 97.18 87.154 144.73 132.13-31.636-52.36-99.486-205.04-103.9-233.3 171.97 262.52 224.66 395.58 366.59 500.94-44.624-70.59-74.923-154.98-83.888-238.32 20.742 44.109 22.484 81.571 108.01 220.08 269.53 409.1 259.6 378.84 266.76 400.29 2.6702 2.6953 4.0354 3.6877 5.1321 7.4106-2.5164-1.876-3.5981-4.7153-5.1321-7.4106-14.928-10.551-39.312-56.772-110.2-128.53-96.386-97.573-211.92-168.7-328.86-238.47 23.336 1.1528 149.69 53.179 187.07 71.682-114.83-100.08-112.44-158.99-484.95-338.6 145.32 25.466 141.57 39.937 200.64 58.031-8.9055-14.301-23.419-26.75-35.268-38.743-145.54-147.35-290.51-219.11-501.34-199.02zm943.86 846.01c-2.9882-2.2488-3.5389-3.9661-5.1426-7.2573 2.06 2.3728 4.2393 4.1946 5.1426 7.2573zm-230.97-171.12c-3.0232-0.9333-4.9095-3.1025-7.2867-5.1272 2.6555 1.5383 5.4349 2.6358 7.2867 5.1272zm-916.9-282.98c-61.901 18.694-64.11 27.043-85.213 32.413 28.094-30.286 99.862-68.559 175.61-78.557-17.299-6.8801-34.865-14.231-53.167-18.014-152.84-31.591-397.1 47.93-525.35 217.63-44.158 62.375-40.356 60.042-46.55 64.846 3.6175-14.574 15.196-29.842 23.36-42.341 116.14-177.82 317.09-266.85 494.04-261.82 25.072 0.715 48.104 5.2369 72.724 8.7913-17.289-16.827-99.238-58.326-148.97-68.525 117.97-9.0286 196.99 67.264 274.54 89.84 39.755 11.576 82.404 8.8551 123.01 16.395 29.738 5.5198 55.356 18.862 83.992 26.72-44.114-45.663-108.18-75.623-161.84-107.83 39.73-1.499 644.86 340.75 680.8 395.86-10.885-3.6482-21.388-13.437-30.874-19.999-160.93-111.3-452.08-230.66-646.52-203.42l1.052-1.1113c17.633-11.168 87.65-30.708 179.73-21.235-18.649-8.2595-38.806-13.089-57.972-20.068-110.26-40.193-195.91-56.812-352.4-9.5702zm384.69 573.8c-102.61 70.412-137.56 159.9-155.07 182.88 2.6339-16.018 10.408-29.688 17.666-44.898 45.684-95.746 83.723-125.49 109.83-163.02-99.549 43.999-184.07 109.52-251.16 195.4-46.599 59.662-34.707 27.213-47.682 239.32-3.991 52.159-9.5554 108.25-21.652 159.03l-11.099-231.23c-48 139.7-32.93 299.09-105.64 431.59-5.9265 10.807-11.417 23.216-20.217 31.952 5.6417-26.809 28.568-39.195 54.314-148.09 22.466-95.026 27.221-193.34 47.285-288.66 7.738-36.762 21.622-70.555 32.081-106.36-22.084 22.514-94.579 128.16-129.64 200.81-32.204 72.319-25.766 64.173-31.257 71.453-1.2289-21.661 33.36-171.58 144.49-287.14 15.65-16.272 34.801-28.691 50.08-44.982 19.756-21.062 94.545-132.9 242.48-215.23-204.1 40.121-279.85 150.28-299.54 154.36 64.468-64.094 166.46-180.92 372.02-191.72 30.92-1.6233 62.529 1.1765 93.433 3.0876-14.69 13.089-32.706 11.649-90.718 51.45zm470.72-20.247c29.617-31.493 73.317-32.305 105.12-54.79-114.96-5.8835-253.87 51.556-297.9 81.689-5.6041 3.8372-12.266 10.111-18.386 12.444l1.0073-2.8342c6.4156-11.737 46.605-53.958 92.47-74.064-144.63-9.4336-232.91 57.391-283.74 91.492l0.5612-1.3604c9.2177-13.094 26.352-26.238 38.97-36.23 55.137-43.691 106.27-61.943 173.34-79.793-20.774-6.0559-43.835-8.6221-65.239-12.032-139.94-22.308-134.83-10.114-166.05-19.706 16.654-3.5732 162.94-6.4387 324.51 19.131 135.78 22.848 44.764 21.802 253-7.1382-129.96-55.598-277.64-127.71-478.16-114.72-31.912 2.0652-62.658 7.8479-94.282 11.601 8.3606-7.1963 97.019-42.349 236.12-49.429-58.732-23.836-123.58-53.153-185.77-66.475-61.485-13.174-188.02-4.3638-268.24 32.354-29.609 13.552-55.455 30.83-82.597 48.516 18.988-43.018 95.644-80.795 139.97-103.86-316.85 25.821-390.6 137.18-417.8 326.51-21.528-101.74 6.0558-131.83 11.943-150.39-55.719 39.773-121.34 176.49-148.62 239.01-22.127 50.711-51.862 141.44-136.39 223.52-9.272 9.0044-26.961 28.254-39.73 31.277-2.8489 2.6951-3.5537 4.0554-7.4457 5.0427 1.8544-2.5015 4.7544-3.5491 7.4457-5.0427 5.808-11.512 55.921-47.184 90.961-106.32 49.072-82.816 75.102-177.1 120.38-262.06 22.739-42.669 53.802-80.423 82.553-118.99-46.252 32.964-148.66 165.3-177.01 186.96 4.1273-14.345 96.279-138.35 162.36-200.59 88.299-83.177 139.57-95.255 201.11-124.04 31.976-14.956 103.04-80.482 269.23-73.052-47.642-25.385-99.415-32.458-148.89-51.529 172.55 10.859 249.19 62.713 312.44 84.707 35.873 12.474 74.541 18.033 111.41 27.072 20.562 5.0427 38.686 12.876 59.709 17.472-19.103-18.25-98.881-60.088-120.71-70.252-19.031-8.8652-39.66-15.904-57.744-26.383 237.93 49.496 495.98 248.28 538.31 255.42-12.159-17.591-33.066-23.233-95.513-99.544-9.3914-11.481-20.391-22.774-25.737-36.752 50.046 41.394 57.616 70.651 385.19 312.69l-60.737-92.62c-14.598-20.619-35.237-41.254-46.54-63.596 30.181 24.552 100.95 131.16 206.59 260.63 8.4333 9.4756 23.151 22.188 27.043 33.932-9.1321-5.7026-122.34-135.32-370.07-129.73l1.2313-2.5464c113.34-5.2498 149.84 8.2178 197.07 13.342-14.658-14.658-117.16-76.384-204.58-89.328-51.296-7.5997-102.24-2.1692-152.16 10.364zm114.57 272.12c-56.644 37.831-63.687 58.756-77.782 67.443 9.0719-22.994 60.816-74.546 85.159-92.976 13.804-10.454 29.232-18.451 43.309-28.537-78.479 19.823-197.91 71.802-240.15 141.89-53.614 88.976-71.29 187.34-70.118 289.83-12.475-42.264-15.126-172.1 2.0753-236.89-79.356 96.281-132.17 217.8-130.06 247.37 3.2856 45.92 37.711 130.48 74.164 231.28 6.2391 15.552 19.686 34.895 22.203 51.117-32.892-33.126-93.62-147.99-113.87-191.27-2.9039 250.16 91.668 391.15 300.02 544.34 7.0134 4.8547 17.145 10.216 22.337 16.832-33-11.697-236.46-150.26-307.9-342.97-26.547-71.613-35.67-146.14-35.472-222.04-40.606 105.57-28.81 185.43-35.119 198.26l-4.0056-61.084c2.1564-165.71 96.603-407.54 201.56-510.04-171.92 75.205-225.07 171.3-251.05 200.55 3.1147-30.544 119.67-167.03 248.23-223.45 20.223-8.8755 40.713-15.358 61.849-21.593 11.372-3.3601 25.266-6.0112 35.73-11.297 29.364-14.836 47.978-52.857 163.51-92.877-232.69 8.3708-307.13 80.906-372.68 103.76 23.634-22.587 240.79-149.72 500.16-143.36 65.857 1.6147 202.53 26.837 236.38 45.275-125.52-25.217-246.97-34.037-358.48 40.435zm229.76 896.89c-5.8275-2.114-5.8473-3.1763-9.6199-7.7532 4.9836 2.6905 6.5922 2.7601 9.6199 7.7532zm54.532-792.06c-36.156 12.174-49.873 21.178-65.681 33.624 9.3981-41.36 120.14-53.044 152.85-58.046-61.562-9.7117-117.87-11.87-124.34-10.201-13.314 3.4204-91.313 81.199-120.66 160.61-1.1317-37.68 36.082-95.89 61.154-122.48l23.549-21.89c-210.18 68.982-265.93 289.08-144.47 441.14 3.7126 4.6458 14.549 14.802 15.378 19.646-67.158-53.782-58.012-55.382-85.779-89.457 37.472 268.96 199.75 396.1 216.01 423.91-17.535-7.3494-88.968-94.273-104.71-115.49-181.06-243.98-148.58-511.21-33.014-628.58 14.067-14.285 30.909-25.931 47.061-37.724l-67.854 14.985c11.719-10.369 29.46-16.584 43.805-23.032 55.45-24.923 105.17-44.371 167.34-40.737 84.289 4.916 203.15 40.278 209.57 46.232-68.197-10.345-124.01-14.807-190.21 7.4908zm74.725 226.76c-68.309 57.002-67.178 88.032-80.894 117.11 7.1221-95.321 129.86-173.52 155.09-174.83-25.032 21.007-73.931 43.19-85.322 146.09-7.3218 66.191 14.976 125.72 36.176 186.98-102.61-139.07-25.966-249.7-25.047-275.35zm72.838 289.4c-17.572-20.808-38.167-38.912-35.124-68.054 2.8738-27.559 24.282-155.67 41.711-170.01-2.52 10.792-34.519 91.549-12.604 195.42 3.8569 18.252 15.383 37.616 17.82 54.914-4.7999-3.2956-8.0757-7.8527-11.804-12.27zm109.62 69.572c-7.115-7.1636-18.55-19.224-26.8-21.409-24.024-6.3848-43.412-119.55-38.246-141.41l4.9294 3.7874 1.7375-0.9282c-11.938-53.96-35.319-77.204-29.401-169.27 0.5859-9.1775 3.0129-13.993 7.2866-21.84 3.8936 5.6233-1.6606 21.304-2.3076 31.51-2.8386 44.795 13.16 90.886 25.424 134.78 3.3455 12.98 4.76 27.047 8.9648 39.71 15.874 47.786 37.472 94.024 50.546 142.71l-2.1344 2.3631zm367.98 157.25 43.741-0.104c-71.861 32.563-129.97 72.044-161.34 147.6-16.112 38.792-17.046 87.408-0.1538 126.13 16.43 37.675 50.074 61.556 87.278 75.911l3.8372 0.5962 1.1611 2.7397c-202.5-18.069-158.08-326.66 25.48-352.87zm26.204 234.03c-23.848 40.478-53.271 60.503-92.331 35.069-22.554-23.096-32.605-54.267-17.577-99.861 18.222-55.267 79.569-76.924 126.66-101.76l5.8274-1.0322c4.5906 11.562 4.1443 24.413 5.1375 38.26 3.2913 45.93-4.0898 89.214-27.712 129.32zm152.88-395.74c-173.03-67.562-319.27-178.89-445.19-313.57-20.431-21.851-53.877-51.727-65.76-78.621 10.041 6.4341-3.7505-2.6147 71.657 69.731 127.84 114.93 362.89 237.61 563.25 247.71 136.07 6.8547 269.8-27.211 399.45-64.172-49.721 125.45-243.16 248.34-523.41 138.92zm204.49 582.17c-51.737-22.971-58.98-89.945-34.22-137.64 19.309-37.203 58.562-51.678 96.004-64.241 6.4778 21.711 19.205 41.15 25.241 62.489 11.627 41.136-15.852 84.888-41.894 89.993-63.778 12.525-47.267-81.627-9.9275-81.987l1.2058 5.4949c-2.9282 9.908-4.7456 27.063-13.615 32.111-5.3162-1.6533-6.6362-2.1641-12.295-1.0872-16.208 52.846 82.056 41.039 57.202-46.486-4.2041-7.5598-10.29-19.701-18.162-23.842-11.86-6.239-55.671 9.6919-72 46.724-19.009 43.095 6.3311 91.003 36.935 100.96 76.223 24.78 167.13-82.864 74.606-261.48-47.717 10.906-99.733 34.478-134.22 69.954-46.431 47.757-54.145 99.469-53.183 163.31-13.229-49.275-16.546-65.062 2.1052-131.35 27.192-72.804 89.268-105.52 156.12-136.2l7.5701-1.3845c189.87 113.56 56.352 369.66-67.467 314.65zm6.1299-501.96-5.6736 0.2131c15.657-9.1101 89.774 8.6392 202.89-55.063 68.55-38.614 139.67-93.28 161.2-172.65 4.3274-15.938 86.983-5.407 268.54-164.57 5.623 9.7761-14.143 186.39-173.61 302.09-129.65 94.069-298.41 114.4-453.35 89.984zm579.38-50.8c-29.166 14.906-60.761 26.253-91.16 38.489-3.678 0.7246-4.7051 1.6731-8.1753-0.03 102.94-93.714 162.04-173.04 179.84-318.92 7.5095-61.546-2.4146-77.334 1.1025-90.405 0.7839-2.9236 69.696-75.628 79.117-87.05 46.883-56.835 84.667-118.2 122.6-181.18l2.9536 0.1787c7.3667 23.116 6.051 55.465 6.2993 79.787 2.6207 254.9-58.642 439.57-292.58 559.13zm227.4-64.132c-16.296 10.942-37.773 28.222-48.973 29.45 18.633-28.346 41.615-52.672 58.538-83.217 71.498-129.06 96.644-293.11 85.556-439.08l-8.0171-85.402c-1.4343-11.332-8.8699-36.196-6.7007-46.5 6.9995-33.279-8.1558 48.78 81.867-227.36 14.241 22.934 66.761 136.82 84.633 201.99 61.206 223.24-37.536 509.55-246.9 650.12zm373.52-336.02c-37.748 69.143-91.088 115.02-132.09 153.85 65.746-118.01 95.908-361.21 3.0474-578.5-26.252-61.421-71.354-129.37-72.992-136.95-3.1169-14.425 4.939-42.475 6.5227-58.384l3.4446-64.455 60.385 47.305c203.75 179.19 218.16 478.73 131.68 637.13zm228.2-735.84c27.031 156.84-39.049 463.84-155.02 634.7 9.624-32.919 11.228-65.328 14.345-99.25 22.337-242.89-80.205-375.31-194.51-613.4 100.54 42.262 182.43 145.3 216.58 235.78 25.971 68.782 24.232 89.074 33.912 116.94l3.2812 0.8235c13.69-21.27 19.354-50.65 26.934-74.809 20.684-65.953 42.058-132.71 54.473-200.79zm-170.52-604.2c183.15 249.46 110.14 491.91 83.521 667.32-61.655-178.17-117.02-219.49-265.92-297.68-4.4277-22.064 0.189-52.452 4.8496-74.094l66.743-180.02c108.74 126.97 136.95 255.02 157.28 435.75 10.528-29.192 14.177-60.633 17.666-91.324 29.61-260.35-126.56-493.25-149.21-553.27 31.624 28.517 59.863 58.979 85.074 93.324zm-3.2066 149.3 25.782 130.99c-8.3052-19.001-14.132-38.872-22.739-57.774-84.435-185.49-199.5-148.17-205.91-325.31 74.727 74.74 155.64 58.861 202.86 252.09zm-179.68-405.41c42.574 51.549 52.949 125.31 66.137 188.71-28.904-26.07-60.394-48.804-86.354-78.115-54.878-61.966-50.416-104.53-44.962-188.82 19.031 29.51 43.101 51.489 65.179 78.224zm-50.968-186.3c-148.44-8.7562-173.16-204.18-93.88-342.28-13.184 75.258-44.019 193.89 124.89 340.7l-31.014 1.578zm81.282-30.2-4.02 4.2737c-17.976 1.9233-34.782-10.622-44.853-24.138-11.69-15.696-17.071-35.079-21.166-53.942-11.873-54.676-7.0588-103.45 0.9927-158.05 9.2898 81.591 10.294 160.93 83.277 211.27l-14.231 20.585zm46.963-62.003-5.5552 5.8224-3.8364-2.0051c-18.411-51.043-23.94-97.067-22.248-151.03 7.8677 27.99 10.28 56.319 19.88 84.26 5.5942 16.281 16.743 29.927 21.975 45.731l-10.215 17.219zm-104.09-283.25c-183.73 15.15-262.41-190.27-155.82-310.27 108.43-122.08 363.37-68.682 382.6 96.397-3.2905-2.2142-16.208-30.732-27.965-47.842-41.194-59.929-140.85-103.16-233.97-73.434-223.11 71.233-95.866 365.62 91.979 294.87 65.688-24.743 117.53-104.61 91.423-165.25-34.12-79.233-110.15-95.4-138.6-73.058-15.92 12.505-23.18 36.579-16.94 55.713 7.4258 22.772 34.101 37.824 57.049 30.962 22.949-6.8615 36.936-35.681 26.834-57.399 21.859 28.031 21.988 70.918 0.2969 99.08-38.936 50.55-121.93 35.732-137.26-27.273-20.117-82.768 86.568-164.61 170.51-101.97 121.06 90.345 43.432 266.81-110.14 279.47zm426.08 325.34c-42.577 40.972-133.13 43.748-201.61-28.418-71.914-75.778-77.052-160.19-66.321-262.79l4.4526 39.144c11.148 84.529 54.07 177.4 123.8 229.11 108.04 80.128 181.45-23.15 157.27-128.18-21.285-92.445-91.924-157.27-168.79-206 15.878-0.4222 67.139 30.544 98.427 60.354 116.16 110.7 110.63 241.11 52.775 296.78z"/> <path d="m1994.2 2588.5c-8.1702-12.012-20.044-22.114-30.517-32.156-42.643-40.889-63.733-76.019-197.73-53.936l-6.2047 3.3157c130.8 24.297 186.89 80.199 234.45 82.776z"/> <path d="m2682 3763.9c-34.046 14.618-74.064 29.857-89.204 67.011-7.8926 19.369-10.34 45.815-1.5986 65.298 2.7451 6.1257 6.9543 11.476 11.129 16.683 56.064 36.036 105.09-70.657 83.188-148.25l-3.515-0.7397zm-56.046 122.78c-3.1067-1.3699-5.2861-3.8665-7.7878-6.1299-0.7046-6.1353-1.6877-12.752-0.293-18.847 4.3682-19.126 14.281-37.294 30.756-48.164 2.6357 0.0049 4.6165 0.8042 7.1079 1.5984 8.2031 31.277-8.5461 65.391-29.783 71.542z"/> <path d="m3481.5 4635.7c-15.298-3.5591-40.956-3.7324-53.917-10.702 120.1-4.3877 166.44 24.995 222.78 53.078-137.06-148.3-263.3-152.61-428.55-43.755-141.18-206.6-135.84-249.27-97.857-410.56 2.3479-8.6318 7.4412-18.892 7.9321-27.648-92.101 29.729-143.35 13.675-210.54-27.535 144.57 408.22 111.63 315.68 157.16 442.39-46.54 0.3086-76.919 4.3193-117.76 29.178 56.194 6.373 110.91 19.815 153.97 58.379-69.016 38.374-131.15 89.719-178.74 153.18 138.92-57.821 274.87-87.834 438.7-20.187 91.537 37.794 165.26 91.258 227.02 168.5-90.462-251.33-232.27-261.43-245.3-274.38 256.42-15.238 354.88 135.77 375.09 148.82-24.761-93.04-142.18-213.64-249.99-238.75z"/> </svg>