<?xml version='1.0' encoding='utf-8'?>
<svg xmlns="http://www.w3.org/2000/svg" enable-background="new 0 0 3920.2673 5000" version="1.1" viewBox="0 0 3920.3 5e3"> <path d="m2419 2285.4c2.521-2.8784 152.95 8.9761 457.13-196.98 306.65-225.93 268.12-183.69 336.72-425.12 130.13-428.8 314.62-277.46 567.47-916.92 60.823-153.82 108.46-312.4 139.95-474.9-10.343 14.452-17.424 31.377-25.619 47.116-276.52 504.84-384.24 459.75-493.5 616.9-56.597 81.402-80.905 180.82-129.18 267.13-31.863 56.972-71.73 110.35-107.28 165.16l-151.66 255.5c-44.607 81.863-83.612 172.38-153.36 236.39-105.9 97.193-247.77 139.35-374.52 200.86-36.742 17.834-70.667 40.069-105.28 61.605l5.2109-67.424c82.333-36.886 282.59-177.52 395.3-299.21 65.498-70.733 67.711-81.821 75.723-140.69 13.297-97.686 6.7871-257.98 30.499-337 14.524-48.352 118.36-195.77 160.97-325.49 43.235-131.61 20.465-490.61-35.55-678.7-28.122-94.431-71.443-186.07-116.09-273.62 0.1428 1.273 68.937 342.89 28.809 501.48-22.173 87.586-118.87 200.63-141.35 310.27-5.3401 26.044-4.4739 51.553-4.4058 192.75 4.1707 101.34 30.338 250.31-127.75 530.01-81.97 145.05-122.66 158.83-317.77 319.24-28.158-69.726-42.554-89.915-66.662-128.42-10.961-17.223-11.615-7.6259-2.3809-41.422 21.084-77.348 52.086-134.29 87.561-206.24 18.006-35.309 42.288-39.672 0.9597-243.1-65.248-321.17-246.69-425.35-371.4-562.79 18.069 88.142 93.67 108.25 185.61 302.28 99.71 210.39 55.692 340.04 59.202 400.85 0.9106 15.812 23.558 17.066 29.924 28.2 13.534 23.672-52.315 158.92-70.591 236.07l-35.935-33.92 0.4207-133.53-49.287 104.67c2.3318-64.247 20.809-141.88-65.348-245.36 22.34 63.624 36.162 124.19 24.509 191.7-25.541-25.304-56.511-57.639-95.291-57.659-45.604-0.0248-85.048 50.673-88.346 51.162-1.6454 0.2449-3.0295-1.3688-4.5447-2.0513-25.336-58.674 17.13-162.97 17.294-175.84-11.524 10.211-16.721 20.31-26.706 37.557-38.687 66.81-36.519 127.24-37.25 201.4l-42.598-102.57-5.6228 135.35-33.358 27.575c-8.2683-36.85-19.56-72.229-32.373-107.72-43.28-119.91-37.805-114.93-6.3002-143.08 8.8016-7.9156 8.1392-2.077 3.5973-29.834-57.153-349.23 198.77-588.68 231.64-677.67-1.2469 0.7644-147.81 129.3-202.71 199.7-131.82 169.04-201.38 483.43-178.71 559.32 17.416 58.296 55.282 110.03 78.21 166.71 19.403 47.967 28.272 107.04 27.882 108.85-2.599 12.057 6.4674-24.858-68.254 141.49-32.463-32.613-68.822-60.854-103.18-91.383-224.32-199.3-358.29-377.74-343.71-741.53 2.65-66.124 15.097-137.8 3.9775-203.48-13.128-77.528-63.257-125.61-101.78-189.93-105.65-176.34-58.758-419.71-26.42-615.97-19.939 32.562-34.378 70.408-49.336 105.56-88.32 207.56-129.91 437.44-117.72 662.53 17.467 322.21 132.93 328.92 179.95 503.36 36.195 134.28 17.682 290.19 34.15 361.23 6.8195 29.426 27.98 51.367 46.731 73.957 117.41 141.43 276.63 244.14 430.68 340.54-0.2531 21.467 1.1923 41.107 5.1536 62.21-95.132-62.578-201.57-108.59-303.92-157.93-265.88-128.17-169.58-75.301-543.38-676.12-76.413-124.44-42.142-68.342-91.114-179.76-94.164-214.25-165.72-256.53-265.47-354.32-237.58-232.92-308.36-431.06-351.21-486.39 8.3662 61.708 29.642 125.96 46.749 185.92 108.75 381.16 233.97 589.51 377.39 770.45 48.57 61.271 146.48 124.48 225.23 267.28 98.653 178.9 76.084 305 159.57 400.63 87.528 100.26 364.98 334.33 619.13 382.41 27.604 5.2222 55.939 6.615 83.927 8.4458l13.5 98.881-726.06-154.21c-67.046 48.482-129.94 119.7-168.89 192.96-28.973 54.493-32.53 93.116-108.76 199.21-92.47 128.7-206.55 184.3-259.59 349-108.03 335.45-78.951 676.64-35.181 1009.5 2.6632 20.216 3.1111 41.381 12.557 59.849 8.7118-148.16 63.176-498.18 138.24-662.51 62.262-136.32 103.95-157.4 110.91-192.8 10.17-48.594-16.242-88.502-3.7856-160.56 30.835-178.41 123.4-291.51 272.41-396.24 21.957-15.432 202.64-135.07 206.98-135.43 20.752-1.7295 277.87 182.56 585.21-10.026 36.968-23.168 25.688-25.318 42.419-10.873 25.513 22.018 53.416 39.853 87.332 45.381 79.133 12.878 91.504-31.675 141.81-67.702l4.0673 1.5649c8.7141 10.382 12.834 25.863 17.464 38.546-106.74 30.684-183.79 121.75-227.56 219.61-6.8842 15.391-13.41 49.401-24.394 60.706-9.5143-4.343-24.815 0.3022-34.84 2.7456-135.72 33.052-255.28 244.09-377.14 432.64-108.6 161.03-184.4 244.77-184.91 378.19-0.2338 61.453 74.614 316.29 89.484 403.21 17.886 104.5 1.3761 212.69 26.881 315.98 72.856 295.11 421.58 664.38 474.33 696.42-77.575-125.34-216.43-435.97-226.23-587.54-6.501-100.47 10.918-191.61 7.0975-206.29-6.9011-26.394-40.831-53.238-55.424-77.467-122.45-203.28-147.64-570.36 8.1095-787.46 38.911-54.24 57.501-66.379 185.41-212.02 0.5404 142.45 4.9901 256.34 105.33 463.92 98.687 204.14 206.53 334.44 359.47 489.81l244.41-294.36c115.27-161.84 198.64-342.95 215.32-542.59 3.5168-42.091 7.0881-85.448-0.6497-126.07 16.615 20.894-4.8633-1.5627 85.111 115.94 73.656 88.557 120.99 91.066 170.21 255.55 57.792 193.12 33.538 422.49-27.318 556.26-23.925 52.584-64.772 100.43-78.422 156.77-25.31 104.48 77.993 216.78-236.75 798.41 92.023-61.644 393.95-425.17 478.71-719.02 55.297-191.9-32.041-114.97 86.667-559.82 15.525-58.177 43.115-102.26 12.752-243.24-5.7124-26.545-30.776-53.831-44.688-77.781l-151.57-249.14c-210.85-294.5-264.03-384.52-389.49-386.79-13.463-44.691-30.087-88.596-54.514-128.54-41.86-68.449-112.61-124.86-191.28-143.6l14.48-47.857c34.464 29.671 75.641 71.837 123.85 75.342 52.289 3.8076 95.439-25.908 132.82-58.492 141.21 101.51 237.91 132.07 435.18 87.244 60.799-13.822 120.02-32.535 176.16-59.861 130.97 89.183 249 162.26 324.84 239.58 88.962 90.697 152.34 210.86 144.32 340.32-2.0828 33.618-20.242 83.673-7.6895 115.57 26.46 67.29 199.6 151.38 261.92 848.77 15.022-44.564 61.648-427.68 43.334-683.93-7.9612-111.42-44.121-352.31-102.85-460.41-45.757-84.229-162.33-174.94-230.72-269.25-77.345-106.65-90.403-263.06-263.54-381.19l-75.674 23.542c-139.92 37.953-512.5 69.938-657.9 123.62 9.6716-78.957 11.587-97.226 13.732-99.67zm1291.2-1538.6 1.0127 3.9142-217.72 346.02c-33.63-29.944-21.971-19.634-51.378-45.467 211.97-234.3 227.38-247.01 268.09-304.47zm-494.85 647.2c52.605-112.89 79.291-178.6 190.57-238.62l5.5457 0.4818c-0.7966 27.036-72.779 133.44-90.607 163.93-97.994 167.65-118.56 251.13-147.82 324.95-14.133 35.64-32.512 70.112-49.12 104.67-22.675 47.195-16.129 51.268-59.292 46.925l-6.6965-2.439-2.0588-5.2256c46.948-133.59 99.694-266.36 159.48-394.68zm-672.21 759.78c420.36-243.99 399.64-335.33 445.27-294.9 53.627 84.369-82.741 130.82-453.97 307.58-12.528 5.4014-26.869 13.43-39.944 16.564 13.728-12.07 32.663-20.356 48.646-29.242zm363.87-1315.1c36.85-91.241 50.255-245.85 63.375-329.4 7.1631 15.32 4.3538 30.334-11.527 324-0.6699 24.698 2.4536 49.712 4.7571 74.284-32.208-36.814-43.218-30.678-61.027-21.756-9.02 6.7165-16.685 14.79-24.607 22.737 7.4967-25.221 19.335-45.85 29.029-69.863zm-105.96 479.96c34.054-154.14 15.188-124.01 23.247-163.39 2.8689-14.019 29.19-93.155 71.799-173.54l2.8176-0.9966 2.989 3.5546c2.8003 131.76-2.0342 120.65-18.122 176.34-62.624 228.82-91.222 393.92-106.5 445.72-31.755-12.509-22.621-8.4961-41.169-17.814l64.939-269.86zm-90.856 332.86c9.96-8.7516 21.017-20.936 33.088-26.223 10.066 1.2385 15.121 4.2372 22.978 10.521 14.038 26.369 31.197 46.171-167.46 148.41-142.04 71.937-141.25 72.698-157.75 77.229 37.911-41.475 67.087-37.481 269.14-209.94zm-423.34-466.86c30.565 99.363 46.726 135.16 26.285 152.9l-11.487 4.1393c-8.2163 1.7607-12.593 2.3779-19.27-2.4719-3.687-12.294-0.2288-24.498 1.2009-36.948 6.3074-54.892-11.616-113.3-16.396-168.45 9.8577 12.711 14.684 35.33 19.666 50.831zm-635.49 154.57c-8.7478 9.2533-19.076 8.245-32.276 5.1072-6.3981-3.9878-8.8237-7.5262-12.503-14.043-2.9152-40.317 31.478-151.78 47.911-193.35-12.279 69.965-11.136 132.07-3.1318 202.29zm-674.73-428.71c-16.896-47.803-24.08-263.56-20.355-401.22l2.5109 0.748c18.897 225.03 56.778 291.15 98.134 393.67-37.12-27.879-24.522-19.023-55.662-39.469l-24.627 46.263zm113.27 427.08c-29.749-131.21-69.9-231.36-67.798-368.06 17.558 19.898 29.143 43.608 40.009 67.628 52.263 115.6 42.197 179.82 65.842 300.81 58.899 257.22 57.642 240.82 50.475 252.5-51.689 21.896-54.018-100.66-88.529-252.89zm408.69 531.42c-23.098-7.7161-3.8926-2.6899-150.41-81.372-207.16-105.75-154.24-74.78-173.43-86.922-14.595-9.2345-19.735-32.16-5.8273-51.84 24.216-18.074 35.492-0.4634 84.637 34.697 250.2 186.99 234.02 173.81 245.03 185.44 2.797 1.5813 5.7573 2.7087 7.7137 5.3036-3.8385-1.132-4.9131-2.5662-7.7137-5.3036zm-1020.9-805.11c-3.3524-0.4215-7.0151-0.0817-10.409-0.0449-10.849 8.2897-18.158 24.331-25.178 36.09-20.095-53.055-203.02-286.41-219.72-356.59 13.101 10.607 25.199 37.005 35.663 51.13 75.102 101.38 170.14 182.76 250.4 279.1l-30.757-9.679zm352.56 729.22c-6.9847-8.5554 9.9205 27.503-150.03-339.45-54.452-111.03-131.43-215.01-157.22-287.6 123.09 57.792 157.1 163.46 291.31 467.44l57.589 164.93-41.655-5.3117zm528.15 352.32c-383.85-186.4-421.01-183.97-426.2-245.92-0.9716-11.571-0.8657-19.404 6.9423-28.568 47.062-31.804 82.091 52.991 362.79 233.1 115.26 66.634 97.434 51.792 112.54 63.763-17.588-1.9284-39.646-14.966-56.078-22.378zm-1067 1181.3c-1.7232 6.6025-3.3443 12.658-6.4311 18.766 11.777-86.876 39.225-322.27 100.93-379.6l7.5873-1.1848c69.05 34.545-42.333 150.14-102.08 362.02zm469.16-850.46c-176.94 169.48-203.77 284.02-380.14 416.2-4.7822 2.6145-7.1747 4.2246-12.81 3.8406-8.2641-9.9509-5.8987-24.786-2.3477-37.181 7.5197-26.223 34.16-48.12 174.92-196.7 66.369-74.962 196.29-248.85 260.76-286.43 10.188-2.8391 13.896 1.5981 21.03 7.6653 18.241 38.618-12.988 50.091-61.411 92.605zm632.34-33.684c-450.77-53.228-447.56-72.328-495.45-10.198-14.504-86.161-29.206-94.817-65.38-123.86 150.74-4.821 285.33 58.831 426.83 98.824 151.88 37.013 129.27 27.412 158.81 35.873l-24.811-0.6414zm-232.34 1668.4c-27.466-5.5332-24.873-77.706-45.743-180.23-23.508-115.5-27.528-73.404-47.449-244.78-4.0225-46.61-8.5626-98.051 20.095-137.9l3.4708 0.2451c10.222 13.905 5.6289 40.097 8.0035 59.06 49.928 312.58 121.64 473.03 61.623 503.6zm57.984 80.326c10.895-2.5732 24.546-4.4121 34.566 1.8799 20.805 12.993 4.7528 40.654 0.0773 58.386-21.732 82.418 20.016 187.17 23.297 204.17l-2.23-2.4917c-12.09-17.08-84.357-183.02-77.034-233.63 1.9763-13.647 10.923-20.796 21.323-28.315zm41.655-949.87c-30.925 71.004-38.192 122.16-58.128 151.9-13.348 19.922-59.279 67.832-84.906 69.193-9.4615 0.5029-15.48-5.7256-20.67-8.5723-20.472-37.49-9.6691-41.458 55.975-134.6 66.564-107.87 138.23-234.46 270.75-344.53 17.111-14.211 31.102-27.137 49.724-35.587-18.557 22.729-126.42 103.98-212.74 302.2zm1475.2 1039.1c-16.648 36.888-15.258 21.934-79.537 156.77-3.6995 8.0903-9.3555 25.332-15.852 31.174 2.6545-16.221 9.2732-31.052 14.027-46.701 37.133-122.27 11.289-157.26 42.558-284.9 23.786 49.228 45.073 129.76 38.804 143.66zm70.583-305.4c-12.979 85.824-11.51 83.599-15.978 88.646-6.2849 7.1091-14.484 11.072-23.721 12.298-63.398-5.6838-30.361-55.6 11.989-234.6l57.711-296.01c76.591 122.97 10.163 187.51-30 429.67zm13.642-590.43c32.83 57.437 38.273 55.241 26.195 76.964-5.3696 3.8369-10.18 6.1323-16.995 5.5322-21.495-1.896-71.223-42.664-84.315-60.151-16.376-21.875-6.1711-25.772-53.599-118.32-147.18-287.25-180.54-294.88-224.19-346.77 44.207 11.861 215.89 202.99 352.91 442.75zm819.83-39.67c-9.7478-14.264-4.7517-47.376-79.06-212.65-18.787-41.785-43.909-85.965-53.391-130.92 2.8955-13.279 7.0437-27.403 18.6-35.591 65.994 0.9818 111.51 312.33 113.85 379.16zm-539.6-971.6c29.72-6.6772 54.86 24.63 84.082 53.777 76.304 76.119 141.26 162.39 212.87 242.72 115.38 129.43 192.86 183.11 160.99 229.54-23.159-4.6553-88.833-68.696-111.55-94.161-96.686-108.37-120.4-170.45-290.33-351.86-16.767-16.47-48.711-40.029-59.235-60.743-6.1343-12.112 0.9011-16.678 3.1731-19.281zm-504.63 66.104c159.93-34.264 267.31-103.67 393.07-120.09l0.1721-0.0457c19.003-1.3357 54.154-5.7361 69.451 4.7358 4.0835 10.321 0.106 10.374-6.6238 18.697-32.582 40.292-21.56 51.341-29.188 76.564-4.2261 3.4111-7.9551 7.0393-13.504 7.9343-4.3035 0.6943-19.56-20.192-25.472-24.404-15.191-10.824-37.204-17.569-55.837-17.512-25.908 0.0784-288.99 70.576-407.36 70.7 24.232-8.1836 50.288-11.227 75.286-16.58zm-642.59-855.58c81.001-6.2556 222.1 49.988 323.48 189.7 58.765 80.977 113.7 224.71 98.317 322.15-6.0574-21.588-15.072-182.4-124.26-318.98-206.38-258.12-566.92-186.06-671.1 213.62-9.0657 34.77-13.818 70.913-19.364 106.39-23.056-125.11 82.778-467.67 392.92-512.88zm-230.44 878.42c-12.033 5.0337-23.28 4.0938-36.04 3.6201-11.009-4.0452-21.568-7.0483-31.52-13.532-44.489-28.985-65.351-81.945-93.665-124.46-13.774-20.686-31.864-39.342-48.495-57.798 7.4402-37.373 20.528-70.173 46.38-98.537 5.2064 101.9 58.776 240.79 164.51 288.11l-1.1681 2.5983zm266.93 832.41c-5.158 337.73-3.5389 552.47-26.069 692.52-13.761-91.869-22.892-601.05-24.072-693.45-82.422 61.898-153.36 224.55-153.59 225.82-0.3789 2.1113-7.418-21.022 82.893 252.88 10.29 28.386 27.042 59.178 31.133 88.123-16.42-26.5-27.534-56.977-42.41-84.543-120.88-223.97-216.5-485.05-156.58-741.87 36.936-158.28 159.18-250.95 259.16-268.03l2.9398-2.689c11.434 9.1658 23.275 1.0339 67.663 23.62 106.95 54.435 175.94 144.67 199.74 262.41 49.671 245.76-29.984 482.29-142.34 698.5-58.387 113.16-52.751 109.39-60.21 115.41 1.1967-16.887 14.769-39.571 20.76-55.943 97.215-284.82 94.774-275.13 95.684-290.04-40.871-84.776-83.192-159.73-154.71-222.7zm99.811-772.29c118.68 88.687 163.7 156.55 206 266.47 79.845 207.47 97.254 448.71 32.247 657.89-74.067 238.3-295.01 497.31-302.35 500.86-1.6578 2.7205-2.8589 5.5396-5.4558 7.4482 1.2128-3.7634 2.6705-4.7683 5.4558-7.4482 6.9901-20.855 282.64-379.4 288.48-756.7 3.3728-217.63-54.523-439.66-209.42-599.48-29.176 38.488-55.04 80.421-96.12 107.77-14.989 9.9771-34.582 10.779-45.436 26.525-8.5802-13.04-24.29-9.1614-55.846-35.832-34.378-29.058-54.946-65.279-84.314-98.039-64 63.204-113.86 149.13-143.69 233.82-190.44 540.72 138.37 948.15 208.15 1101.2-11.76-9.835-20.495-23.808-29.548-36.078-153.08-212.46-381.89-501.4-256.41-992.44 39.957-156.38 103.36-288.3 239.24-376.61 32.194 53.213 73.461 104.51 123.8 141.21 50.222-39.342 88.676-88.67 125.22-140.62zm-9.3099-104.56c-70.463 27.123-83.937 51.807-113.83 119.07-11.156-20.159-20.193-41.794-33.893-60.417-33.154-45.066-80.243-55.983-129.25-74.946-324.92-125.74-194.14-634.46 121.24-694.71l3.8105 0.2655 1.2657 1.949c-175.52 105.25-258.06 283.05-245.77 430.53 10.551 126.62 90.439 217.47 143.66 208.72 31.68-5.2041 71.099-54.661 62.673-96.503-12.039-59.828-68.088-91.62-115.1-122.62 13.843-63.052 29.474-116.33 62.758-172.38 4.2876 182.58 63.026 181.41 120.43 239.69-16.774 58.133-34.382 116.15-67.23 167.58 3.8441 5.0325 1.4055 2.2498 74.119 42.383l77.283-40.45-68.557-169.43c78.757-66.664 120.74-85.265 120.98-237.67 7.2932 6.5164 13.198 19.657 17.75 28.335 23.259 44.302 35.138 93.463 46.266 141.93-30.863 20.274-62.828 39.595-87.488 67.558-45.869 52.025-36.548 102.88 10.111 139.82 43.206 34.206 84.901-9.5771 117.55-53.858 48.927-80.892 69.121-162.35 35.697-278.35-26.685-92.608-89.276-186.95-164.03-248.09-24.284-19.865-52.105-35.877-79.534-50.966 288.09 24.93 471.78 518.78 176.45 676.69-28 14.97-57.858 24.523-87.364 35.877zm324.04-126.87c-58.13 70.968-29.503 35.246-57.768 86.917-22.904 41.88-52.929 75.408-99.342 88.94-15.521 1.7651-28.413-1.1724-43.244-5.1853 12.316-5.0085 25.816-10.365 36.946-17.642 120.43-78.715 134.9-257.93 137.51-269.85l3.0869 1.4387c17.398 11.738 42.202 75.182 35.73 96.996-1.9474 6.5578-8.6366 13.128-12.924 18.382z"/> <path d="m1312.6 2867.5c118.94-59.256 274.87-156.74 275.72-157.95 23.063-32.63-9.425-45.48 100.02-160.56-32.79-2.5535-65.809-9.209-94.952-25.425-178.78 80.666-136.95 65.52-169.33 79.636-102.38 44.657-73.53 2.1384-445.22 209.59-136.76 76.327-189.16 90.609-257.97 251.64-30.538 71.47-21.365 159.36-63.702 289.82-32.076 98.867-63.689 154.03-113.18 252.89-32.237 71.085-29.25 88.467-39.761 144.16-8.7296 46.258-16.724 39.261 11.805 160.8 60.29 256.85 167.13 494.55 384.66 758.5 19.813 23.534 40.651 54.178 65.143 72.606-248.19-589.77-179.44-737.26-200.26-879.41-9.12-62.334-45.341-102.12-48.152-124.09-31.994-250.02 203.09-460.15 206.81-470.61 5.7051-16.058-12.652-138.71 46.049-208.73 70.21-83.763 227.13-135.48 342.32-192.86zm-596.25 1331.8c-21.364-43.045-135.16-329.47-122.48-373.38 3.7201-12.883 15.382-23.939 26.767-30.047l12.748-1.6099c8.0404 0.3472 11.119 4.9438 16.032 10.329 8.6949 29.248-19.446 90.31 38.279 300.08 3.7972 13.769 31.038 86.946 28.658 94.628zm131.08-1058.5c-8.1674 27.376-3.985 3.7793-77.397 160.64-29.306 77.715-143.54 405.29-196.64 433.22-5.7206 1.6716-9.4901 1.4592-15.317 0.9604-46.06-35.205 68.327-180.63 102.89-265.1 18.556-45.344 28.719-91.968 43.546-138.34 22.757-71.176 90.59-223.14 120.66-268.99 23.838 75.415 24.083 71.533 22.267 77.61zm78.815-185.81c-45.156 37.621-30.552 52.153-43.967 63.146-9.5484-13.624-22.502-32.715-26.253-48.85-20.779-89.374 382.02-233.92 564.45-256.18l6.5709-0.0942c-4.3372 5.25-41.974 12.838-50.9 15.51-103.7 31.03-139.77 54.992-310.66 142.27-47.082 25.148-98.105 49.924-139.24 84.204z"/> <path d="m3293.1 3414.1c-53.251-161.68-51.421-398.02-196.81-517.12-65.955-54.026-283.56-171.81-492.13-259.27-182.78-72.712-131.02-50.148-234.81-101.03-26.745-13.809-26.168-15.176-34.75-13.847-32.921 11.62-61.746 22.869-96.835 25.127 107.82 84.874 93.724 151.97 102.97 161.51 3.0913 3.1907 13.218 7.0969 17.457 9.385 146.17 82.345 32.195 39 272.99 147.49 82.996 39.208 275.94 139.39 329.67 212.89 43.384 59.327 15.3 125.12 47.932 192.96 23.594 49.042 65.894 76.617 98.623 117.65 62.913 78.872 101.04 168.88 112.09 269.03 15.128 137.03-42.035 125.82-55.554 198.99-4.1641 22.527-2.8562 24.067-6.8159 176.6-21.799 418.49-200.04 688.92-205.09 710.85 59.877-46.259 347.64-373.21 462.95-835.97 19.708-85.094 27.034-111.72 25.922-129.48-7.5033-119.5-109.98-250.9-147.8-365.76zm-227.45-434.03c-29.448 29.993-32.855 1.3738-64.086-21.986-74.676-55.821-263.69-164.53-526.02-265.38 24.892-4.0156 572.23 164.6 599 238.61 6.3745 17.622-0.9104 33.471-8.8933 48.756zm162.41 1187.1c1.0298-14.463 5.7744-30.031 8.4897-44.453 57.599-295.63 42.789-326.6 62.673-352.39l4.1731 1.6099c74.986 86.883-22.907 292.01-75.335 395.24zm153.42-414.42c-40.682-9.6069-113.04-149.93-129-192.03-25.097-66.177-38.944-135.54-65.556-201.72-45.734-113.71-113.16-197.87-88.782-320.31 20.348 25.757 32.459 59.178 45.698 89.017 103.05 232.22 94.442 270.3 136.39 369.72 26.52 62.847 137.44 209.88 101.25 255.32z"/> <path d="m1892.3 3037.6c3.9651-2.5615 41.226-21.336 42.211-23.138 1.2056-2.2041 0.2883 9.311 0.7148-158.39l-4.4431-2.55c-157.51 54.896-216.3 237.7-205.26 405.46 1.226 18.641 0.512 34.922 6.8357 49.082 21.225-24.42 11.629-174.49 159.94-270.47z"/> <path d="m2041.4 3041.4c138.85 95.505 143.4 258.37 155.85 267.95 20.624-104.14 1.9277-237.58-57.332-335.07-36.278-59.694-85.05-98.419-149.82-123.06l0.9303 162.35c16.906 8.67 34.714 17.058 50.374 27.828z"/> <path d="m2166.7 3446.8 2.1602-7.1704c10.329-58.985 14.796-44.615-1.021-96.567-29.747-97.666-84.551-203.94-178.49-244.8l0.948 107.71c130.57 85.307 163.82 234.51 176.4 240.83z"/> <path d="m1927.5 3103.8c-78.871 36.838-122.17 117.02-150.71 195.93-30.4 84.066-29.31 81.537-11.115 145.09 69.914-189.35 164.35-229.57 171.18-238.89 2.0697-2.8271-0.1272-89.119-0.2986-102.22-4.4999-1.4017-4.7124-0.9031-9.0532 0.0898z"/> </svg>