<?xml version='1.0' encoding='utf-8'?>
<svg xmlns="http://www.w3.org/2000/svg" enable-background="new 0 0 4944.5967 5000" version="1.1" viewBox="0 0 4944.6 5e3"> <path d="m4938.7 114.18c-46.78 34.544-163.76 150-252.21 219.65-123.84 97.507-467.11 322.14-776.25 465.57-222.35 103.16-441.01 174.21-740.6 279.07-462.73 175.11-512.39 235.83-614.34 293.67 52.206-54.959 528.32-445.29 808.49-653.86 107.67-67.978 213.06-136.73 317.46-187.55l-751.89 600.95c163.76-57.693 351.6-252.43 655.9-408.29-66.59 84.407-131.38 168.48-218.6 232.95 312.32-99.589 384.82-107 438.61-151.86 72.994-60.884 108.65-174.77 116.85-266.33-22.221 22.6-42.432 39.904-71.507 53.301 14.617-43.82 167.16-223.74 186.7-480.28 2.8098-36.858 1.3999-74.244 0.5437-111.15-15.684 23.484-28.056 49.579-43.242 73.543-135.42 213.67-401.42 344.02-590.02 462.03-739.17 462.53-1040.3 944.6-1101.9 1008.5-18.18 18.831-40.165 33.961-67.236 33.987-51.343 0.051-82.997-53.296-109.39-90.364-165.82-232.9-158.16-343.97-234.78-509.01-69.713-150.19-178.52-245.79-358.52-278.64-149.65-27.314-292.45 15.782-427.75 56.572-37.6 10.233 20.604 17.451-274.45-74.778-255.16-58.277-582.57-146.59-830.49-147.17 189.52 78.032 642.08 190.68 970.15 359.98 81.129 41.867 62.958 24.622 110.46 88.057 146.14 203.48 256.49 337.41 298.82 495.94 53.599 200.69-18.5 363.17-18.309 530.59 0.3057 259.73 99.126 549.19 213.89 722.08 35.29 53.152 174.59 216.49 274.97 300.66 93.225 78.172 201.86 133.54 288.14 220 114.37 114.6 183.42 275.27 181.81 438.11-1.1743 116.99-117.36 468.52-221.6 798.61-64.822 187.79-99.271 277.54-231.52 404.9 249.31-34.232 445.28-215.93 586.37-425.54 32.865-48.825 62.074-100.7 90.99-151.95 4.9387 198.27 3.8201 491.73-44.641 683.9 219.65-162.5 365.27-347.44 420.55-815.38l271.39 492.52c156.24-458.46 72.133-959.11-302.1-1383.6-16.186-17.873-10.303-3.9915-13.408-40.714-10.985-110.06-24.438-220.14-79.644-363.2-53.725-139.22-200.33-357.95-218.82-419.18 16.829 7.6045 92.22 90.332 240.73 110.3-58.31-42.308-104.31-97.137-135.73-161.88 108.95 49.385 266.56 130.5 467.4 96.588-33.949-10.971-122.47-61.232-200.3-137.5 29.937 5.3474 60.643 17.632 89.596 26.866 181.6 57.917 268.36 42.806 391.93-30.957-65.634-19.933-114.84-23.072-231.17-103.94-19.842-13.797-40.945-27.342-58.515-43.97 208.35 80.261 471.69 44.916 667.1-107.4-98.614 5.3784-195.79 0.1028-294.05-8.408-343.37-29.736-492.89-88.152-711.03-156.21 52.393-23.351 60.977-50.649 70.574-52.747 14.932-3.2694 480.17 161.32 749.33 136.09 227.83-21.364 441.04-144.14 586.92-319.16-315.95 112-960.87 99.519-1271.4 92.836 5.9504-7.9216 20.842-6.8616 55.085-36.166 40.474-34.642 42.677-51.18 50.753-56.029 27.394-16.474 685.82 153.35 1118.7-92.451 114.64-65.103 224.4-164.04 289.5-280.01 31.967-56.951 52.644-115.38 69.948-177.98-80.446 19.827-214.6 214.5-1402.4 433.1 23.032-27.32 65.297-79.806 49.661-115.63l2.9941-3.8452c67.956 14.755 835.85-73.218 1139.2-297.86 265.91-196.91 612.28-753.96 631.79-997.27 1.9591-24.438-2.1117-48.436-5.4134-72.605zm-2888.9 1424.1c6.3442 0.1798 4.7859 1.868 9.4128 12.633 5.491 12.71 11.9 27.871 24.497 35.069 28.379 16.222 65.032-0.9482 93.8-8.6488-4.4663 9.0316-20.961 30.954-44.441 47.687-31.044 22.121-61.469 15.969-78.234-10.311-13.403-21.005-9.398-53.152-5.0349-76.429zm4.6142 173.51c37.879 4.4762 67.446-17.421 95.917-38.694-20.154 30.013-51.15 65.734-85.196 79.787-16.797 6.9315-44.108 10.593-60.833 2.2301-12.628-6.3168-17.72-21.523-21.575-34.085-12.376-40.273 1.5686-73.373 19.488-108.59 1.8294 39.684 5.5942 93.854 52.199 99.352zm214.6 579.67-3.2915 0.3081c-37.75-65.231-38.846-159.45-23.789-233.1l4.2708 0.4822c8.7512 21.604-8.7688 92.679 22.81 232.31zm73.051-333.13c191.94 108.08 184.08 101.93 189.98 109.48l-6.3062 5.3423c-18.955 6.9727-38.048 11.567-58.346 11.131-55.326-1.1841-116.22-52.758-152.76-91.087-15.253-16.002-29.419-34.526-28.722-57.577l4.4812-1.441c17.899 4.0612 35.71 15.351 51.676 24.154zm-20.616-71.42c12.359-0.4562-4.1331-3.3873 230.11 58.284 118.6 28.938 126.01 29.22 137.3 37.269-5.4861 7.7161-17.919 11.218-26.435 14.91-92.794 43.864-140.53 23.11-232.3-27.67-33.172-18.356-66.108-37.264-95.03-62.028-8.5056-7.2855-12.767-9.0494-13.648-20.764zm224.48 999.78c9.9155 6.8037 21.785 26.327 29.748 36.238-194.08-59.353-148.88-34.934-225.5-115.8 222.24 104.37 171.57 62.95 195.75 79.562zm-206.79-131.52c-47.523-23.409-44.28-11.542-117.53-128.09 67.9 43.768 147.77 86.308 219.87 123.43 29.476 13.697 17.722 1.978 30.772 26.732l26.753 47.251c-54.511-20.354-107.67-43.616-159.87-69.323zm195.83-20.642c-3.0706 29.337 0.2769 58.854-2.5635 88.078l-3.322-2.5635c-13.546-21.946-28.325-45.23-34.87-70.231-17.299-66.082 8.2395-145.6 24.354-210 7.3965 17.072 31.958 81.311 31.306 98.188-1.2256 31.696-11.572 64.75-14.905 96.527zm-13.75-368.91c-9.5779 2.9836-10.537 2.594-19.652-0.0667-47.482-29.804-64.612-90.57-83.397-139.51-9.7415-25.379-20.519-49.984-28.66-75.968l28.634-17.063c5.9578-1.7485 5.1633-2.512 11.398 0 66.678 123.88 113.68 196.94 91.678 232.6zm-206.53-235.04 34.146 13.556c30.665 61.586 42.96 130.6 68.082 193.96-43.767-1.3521-63.314-73.097-74.789-112.26l-27.44-95.256zm18.904 189.57c-46.51-8.0183-66.159-190-71.005-233.84 40.096 33.506 16.641-3.0012 71.005 233.84zm65.431-208.65c-23.998 7.6511-72.101-3.6821-100.93-34.074-17.622-18.586-36.894-56.859-36.13-82.843 14.26 1.3025 130.84 97.155 137.06 116.92zm28.199 390.84c16.683-16.545 23.298-97.968 28.389-125.5 55.402 79.756 31.958 130.3 11.187 218.91l-21.672 100.96c-70.59-33.988-141.7-69.487-208.08-111.14-56.336-35.345-55.547-31.401-68.579-63.566-11.182-27.594-26.809-65.56-29.614-95.261 22.744 10.813 45.2 34.388 65.201 50.117 141.95 101.58 169.69 123.35 203.94 136.3 15.954-2.2354 28.41-11.369 28.066-27.68-0.8801-41.611-119.7-60.45-321.7-241.13l-3.5889-118.78c35.607 55.1 78.567 95.85 127.68 138.37 23.194 21.33 157.7 140.66 188.77 138.41zm-641.72-553.39c0.4 10.71 6.8494 41.77 2.1173 49l-7.66-8.1829c-39.659-70.942-23.045-109.6 8.2238-143.87l4.3481 1.3993c-6.2396 33.506-8.301 67.601-7.0292 101.65zm44.006 111.93c69.343-3.948 131.98 18.913 187.45 60.022l-10.992 65.955c-90.334-21.554-170.56-5.3018-258.21 18.56-50.23 16.647-93.031 39.355-137.44 67.754 44.24-121.67 83.1-195.58 219.19-212.29zm147.87-109.05c-64.275 41.681-134.32 27.617-146.85-55.947-4.6636-29.934-2.2267-51.495 2.8348-69.215 6.7423-24.769 17.294-35.684 35.018-53.168-3.3888 59.8-6.4595 145.52 54.285 160.39 36.397 8.9164 63.796-4.04 94.4-21.8-11.977 15.478-24.533 27.389-39.689 39.74zm13.879-80.987c-37.816 6.9191-71.318-13.095-81.377-64.75-8.2854-42.601 2.2356-70.656 25.81-105.85 0.4504 30.593 5.6597 66.298 17.95 94.574 21.712 49.944 71.317 30.76 118.85 4.5576-6.0908 16.104-22.272 31.762-34.085 44.154-13.94 11.418-28.942 23.99-47.143 27.312zm-1397.8-1189.7c22.296-0.4966 55.618 12.171 78.67 18.519 220.86 66.018 358.47 101.69 445.82 186.65l-524.49-205.17zm520.34 109.23c42.026 2.9991 83.699 14.412 126.39 17.278 117.75 7.9134 189.04-12.659 307.87 31.747 198.33 74.101 292.21 258.37 374.28 439.78-66.376-75.612-137.66-212.26-250.37-317.22-220.55-205.35-373.9-59.648-558.17-171.59zm349.28 234.09c-13.156 1.2202-28.568 1.7378-40.796-3.8148-49.062-22.276-60.061-95.482 16.053-119.13 80.132-2.3682 108.2 96.255 24.743 122.95zm-202.37 129.88c40.145 28.87 77.511 58.858 119.68 85.119 159.68 99.44 350.04 163.99 537.34 178.68-179.1 78.7-337.47 133.61-455.55 270.03-2.8487-228.93-75.452-363.26-201.46-533.83zm205.82 669.4c69.123-226.49 227.93-264.46 506.81-405.94 2.3071 0.8158 1.0055 0.1488 3.5585 2.5636-9.1416 22.565-23.985 44.093-37.746 64.073-166.14 241.22-479.02 244.86-472.12 746.13l6.6085 112.67c-12.672-22.215-60.092-345.9-7.1163-519.49zm80.403 378.38c16.783-262.79 144.61-375.42 258.67-481.05 150.67-139.54 165.7-173.1 211.59-263.72 1.3289 61.914 6.9858 88.664-47.251 168.21-83.482 122.41-119.83 131.24-226.33 233.16-180.09 172.32-190.9 314.53-195.72 536.79-6.9561-39.721-3.1263-105.24-0.9588-193.39zm58.31 369.22c4.0919-200.01 82.837-336.15 280.19-356.53 36.9-5.4297 79.418 0.5486 115.38 8.9312-58.654 182.49-298.02 253.55-395.57 347.6zm113.02 246.16-3.3943-0.272c-4.3069-4.3992-3.4041-8.772-3.9529-14.623-28.11-298.86 158.74-330 282.73-479.87l2.902 2.3843c5.3933 47.148 10.751 96.686 5.0754 144.04-17.214 143.76-111.87 281.63-283.36 348.33zm192.05 147.4c-35.434-105.51 50.315-258.37 82.961-337.5 17.273-41.873 31.04-83.289 42.991-126.96 62.146 131.26 63.626 131.9 68.78 150.43 13.612 48.922 8.9155 110.12-7.624 157.75-42.478 122.29-170.15 167.35-187.11 156.28zm220.28 185.28c-45.966-88.529-6.8628-235.11 5.6243-308.58l15.761-128.51c44.984 61.925 116.76 112.8 118.55 196.7 2.1284 99.917-64.802 192.51-139.93 240.4zm692.02 158.85c256.57 262.25 347.27 733.31 343.76 1103.1-8.3005-15.042-13.556-32.864-20.549-48.701-70.814-152.25-14.948-41.72-284.27-553.23-146.59-280.56-232.23-466.67-381.98-615.48 70.412 144.58 230.9 325.67 321.63 671.46 47.556 181.28-9.3804 589.75-142.36 816.33l-31.762 51.045c-2.2915-10.444 2.5686-29.921 3.8298-41.006 22.008-193.78-0.9014-322.43-24.354-585.03-19.449-213.01-27.256-369.4-83.176-575.45-45.25-144.7-76.589-258.62-137.8-359.42-12.749 100.49 25.118 148.08 58.649 234.18 43.42 127.61 100.05 278.86 108.14 456.65 9.5398 209.06-48.243 340.92-164.95 512.6-106.87 157.22-147.35 197.1-236.11 296.05 48.03-123.3 47.714-117.08 87.016-259.01 104.16-407.34 200.94-757.06 30.275-1122.7 65.227-75.153 104.44-176.9 114.72-275.24 164.61 63.565 315.98 167.81 439.29 293.85zm-63.898-277.72c-48.212-23.992-59.373-29.798-59.817-120.56l59.817 120.56zm-58.325-6.8088c17.899 5.7935 38.668 22.636 55.946 31.839-43.857-5.8755-85.381-13.136-125.55-32.26 11.002-0.9832 62.854-1.7596 69.606 0.4201zm-52.758-204.29 25.748 50.558c-6.8499 32.664-5.845 67.544-1.9438 100.54-1.1174 1.1174-2.6245 1.7534-3.9783 2.5635-29.451-33.727-23.375-26.491-23.666-66.636-0.221-29.327 0.1684-57.905 3.8396-87.022zm-7.1829 166.79-78.023 1.1226c-25.174-15.386-53.593-30.398-74.573-51.317 20.944 3.3376 44.426 15.099 65.657 20.575 34.202 8.8266 75.157 5.7461 86.94 29.619zm-50.948-289.75 35.079 73.84c-15.74 48.046-13.869 105.5-13.73 155.75-50.952-70.04-51.877-54.892-21.349-229.58zm127.72-320.69c-19.3 22.635-43.095 8.4619-69.498-6.0652-84.135-50.286-142.48-155.4-188.46-239.48 40.468 1.4224 42.855 5.6504 90.539-18.493h6.5061l73.758 113.85c39.413 56.666 91.427 114.11 87.155 150.19zm188.14 1.2817c-13.803 13.888-27.914 9.1599-45.41 3.0254-105.76-48.702-175.17-139.47-240.87-231.84-27.356-38.453-50.059-60.271-39.109-80.096l56.06-2.23c2.8733 1.3794-2.9929-4.2998 70.579 77.506 191.47 197.49 202.44 201.25 198.75 233.63zm162.58-50.342c-145.25-4.3357-271.56-142.54-412.57-270.22l34.541-15.309c401.3 258.58 404.21 240.52 404.8 278.19-7.1679 8.2903-16.212 6.5064-26.768 7.3372zm-9.3518-260.4c209.4 72.933 238.75 72.218 275.04 97.768 3.3984 6.9419 3.1116 7.2395 1.5784 14.878-19.585 16.155-55.546 11.987-79.367 10.931-249.18-22.526-408.64-103.97-542.89-164.72 16.58-16.109 21.2-33.541 24.978-55.526l56.895-12.92 263.77 109.59zm-704.7-210.19c172.16-13.497 136.06-5.5012 274.78-5.3069 155.38-2.197 180.95-4.1974 220.27 5.5781-99.411 129.05-325.14 43.093-495.04-0.2712zm1088.9 12.746c34.685 3.7327 201.96 23.846 218.61 48.83 2.7383 4.1173 1.2817 5.0244 0.1953 9.4646-29.665 29.292-104.34 37.896-139.75 41.058-215.64 19.278-427.47-40.817-638.04-76.583 8.8928-18.942 18.975-35.677 8.8696-54.306-2.8403-5.2247-2.261-2.4148-2.2866-7.583 8.8286-4.0811 18.924-6.1014 28.302-8.6394l524.1 47.759zm-455.78-158.76c-115.01 108.64-338.3 100.94-514.3 96.328-21.77-0.4207-45.456 1.0403-66.898-2.3999 101.85-36.013 206.65-52.978 312.07-74.286 180.54-36.495 216.16-50.56 289.8-43.103l-20.677 23.461zm-457.26 13.849-8.3987 1.1019c17.272-20.368 156.82-69.396 170.58-74.404 117.55-42.748 319.02-120.54 423.59-134.82l3.0662 2.4409c-101.28 157.65-414.62 164.53-588.84 205.68zm603.12-112.17c888.81-79.408 883.9-89.838 907.52-72.728l0.5947 6.1426c-28.517 57.487-294.91 129.4-363.02 143.56-236.51 49.145-430.44 22.354-628.65 21.272 15.042-53.87-0.179-42.541 1.2922-54.598 75.606-52.863 47.935-40.039 82.259-43.646zm-449.99-2.2102c-9.6287 3.8453-20.837 9.9978-31.05 11.162 39.416-43.629 253.49-146.02 310.19-171.65 42.154-19.047 149.37-72.416 195.42-52.255l3.917 6.0908c-29.376 89.701-311.42 145.9-478.48 206.65zm519.38-136.66c-7.7629-0.1027-17.058 2.6606-24.759 4.035 16.047-23.9 26.377-37.573 34.074-64.683 362.54-110.25 346.95-111.42 648.91-258.86 180.06-88.403 295.76-151.78 400.74-170.12 12.888-0.868 25.389-3.1545 31.05 9.4695-12.826 67.122-356.39 384.92-1090 480.15zm1271-851.33c-608.3 533.69-727.26 562.24-1261.7 780.5-4.4607-19.303-7.1729-31.09-25.569-41.934-43.851-25.84-112.32-6.4088-157.37 7.0193-413.81 123.34-691.92 401.03-779.47 611.27-39.655 95.251-58.742 228.09-6.6809 312.55-25.217-20.355-52.035-44.46-70.553-70.897-105.37-150.36-25.109-384.07 104.55-516.17 264.21-269.2 655.21-370.28 989.71-481.62 873.33-310.35 1230.3-638.26 1264-655.15-16.421 19.847-37.94 36.996-56.905 54.439z"/> <path d="m2623.1 3303.6c154.66 201.01 167.08 281.46 438.44 785.37 12.664 23.517 24.559 49.24 39.381 71.414-20.016-142.83-47.42-282.02-84.791-421.36-41.842-156.03-67.473-280.39-326.22-477.03-58.448-44.418-182.07-131.39-245.59-155.36 121.47 133.35 139.64 146.08 178.79 196.96zm299.26 390.62c14.105-2.5535 27.881 0.415 39.648 8.7827 18.966 13.482 19.038 27.189 29.896 64.77 6.926 23.945 52.242 192.29 44.077 204.22l-3.502-5.5117c-74.481-163.9-167.08-242.21-110.12-272.26z"/> <path d="m2667.4 4472.8c153.11-419.83 116.1-507.91 77.178-630.89-48.933-154.62-160.77-417.3-255.46-539.16 103.49 246.1 145.48 448.26 178.28 1170zm33.24-470.89c21.859-3.1914 35.234 1.6074 40.754 23.8 14.077 60.8-33.221 233.82-47.23 271.01l-1.6047-3.8452c-6.3933-25.097-4.5938-57.694-6.8699-83.966-8.7121-100.46-33.835-189.29 14.951-206.99z"/> <path d="m2396.8 3644c14.444 291.57-126.98 741.85-145.9 832.6 68.214-65.423 241.44-330.45 259.14-493.97 22.008-203.25-100.22-569.4-165.45-671.39 24.621 110.04 46.615 219.77 52.209 332.76zm16.027 365.55c119.77-16.304-32.316 233.54-97.763 334.07 76.037-316.17 70.604-320.39 97.763-334.07z"/> </svg>